<svg width="48" height="26" viewBox="0 0 48 26" fill="none" xmlns="http://www.w3.org/2000/svg">
<rect width="48" height="26" rx="2" fill="white"/>
<path fill-rule="evenodd" clip-rule="evenodd" d="M12.75 5.49414H35.25V20.5059H12.75V5.49414ZM14.25 6.99414V19.0059H33.75V6.99414H14.25ZM21.6657 14.278L20.8187 15.466C21.3871 16.0436 22.1848 16.4684 23.25 16.5939V17.5H24.75V16.5648C26.1686 16.318 26.8577 15.4168 26.8577 14.278C26.8577 12.618 25.3196 12.2545 24.1099 11.9686L24.1077 11.968L24.0859 11.9629C23.3034 11.7782 22.6447 11.6227 22.6447 11.154C22.6447 10.714 23.0187 10.417 23.6897 10.417C24.4377 10.417 25.2297 10.67 25.8237 11.22L26.6927 10.076C26.1666 9.58981 25.5135 9.27109 24.75 9.13242V8.30303H23.25V9.09399C21.8712 9.29478 21.0497 10.2091 21.0497 11.286C21.0497 12.9355 22.5485 13.2789 23.7401 13.5519L23.7887 13.563L23.8489 13.5779C24.6255 13.769 25.2737 13.9285 25.2737 14.454C25.2737 14.872 24.8557 15.268 23.9977 15.268C22.9857 15.268 22.1827 14.817 21.6657 14.278ZM30.4153 14.5C31.2437 14.5 31.9153 13.8285 31.9153 13C31.9153 12.1716 31.2437 11.5 30.4153 11.5C29.5869 11.5 28.9153 12.1716 28.9153 13C28.9153 13.8285 29.5869 14.5 30.4153 14.5ZM19.1846 13C19.1846 13.8285 18.513 14.5 17.6846 14.5C16.8562 14.5 16.1846 13.8285 16.1846 13C16.1846 12.1716 16.8562 11.5 17.6846 11.5C18.513 11.5 19.1846 12.1716 19.1846 13Z" fill="#6D6D6D"/>
</svg>
