<svg width="16" height="16" viewBox="0 0 16 16" fill="none" xmlns="http://www.w3.org/2000/svg">
<g clip-path="url(#clip0_10245_30338)">
<path d="M0.733333 7.99967V8.59967H1.93333V7.99967H0.733333ZM0.5 10.0663H-0.1V11.2663H0.5V10.0663ZM2.5 12.0663H1.9V13.2663H2.5V12.0663ZM4.5 14.0663H3.9V15.2663H4.5V14.0663ZM8.02346 5.33301V4.73301V5.33301ZM7.87573 7.85956L8.0305 7.27985L8.02633 7.27877L7.87573 7.85956ZM8.04105 7.90387L8.19963 7.32521L8.19779 7.32471L8.04105 7.90387ZM8.1502 7.93379L8.311 7.35573L8.30878 7.35512L8.1502 7.93379ZM7.96017 10.6663L7.95883 11.2663L7.96017 10.6663ZM14.0667 7.99967C14.0667 11.3502 11.3505 14.0663 8 14.0663V15.2663C12.0133 15.2663 15.2667 12.0129 15.2667 7.99967H14.0667ZM1.93333 7.99967C1.93333 4.64915 4.64947 1.93301 8 1.93301V0.733008C3.98673 0.733008 0.733333 3.98641 0.733333 7.99967H1.93333ZM8 1.93301C11.3505 1.93301 14.0667 4.64915 14.0667 7.99967H15.2667C15.2667 3.98641 12.0133 0.733008 8 0.733008V1.93301ZM3.33333 10.0663H0.5V11.2663H3.33333V10.0663ZM5.33333 12.0663H2.5V13.2663H5.33333V12.0663ZM6.66667 14.0663H4.5V15.2663H6.66667V14.0663ZM10.3729 5.58472C10.092 5.36183 9.78412 5.14035 9.3982 4.98075C9.00669 4.81884 8.56629 4.73301 8.02346 4.73301V5.93301C8.43308 5.93301 8.71428 5.99648 8.93961 6.08966C9.17052 6.18516 9.37469 6.32454 9.62708 6.52479L10.3729 5.58472ZM8.02346 4.73301C7.47706 4.73301 6.93479 4.84349 6.50933 5.12382C6.05723 5.42168 5.76975 5.89449 5.76975 6.49308H6.96975C6.96975 6.32313 7.0329 6.2159 7.16955 6.12587C7.33282 6.01829 7.61741 5.93301 8.02346 5.93301V4.73301ZM5.76975 6.49308C5.76975 7.094 6.01161 7.55317 6.4241 7.87615C6.79546 8.16692 7.27711 8.32418 7.72513 8.44036L8.02633 7.27877C7.5977 7.16763 7.32636 7.05852 7.16389 6.93131C7.04256 6.83631 6.96975 6.7259 6.96975 6.49308H5.76975ZM7.72097 8.43926C7.77667 8.45413 7.83069 8.46853 7.88431 8.48304L8.19779 7.32471C8.14172 7.30954 8.08537 7.29452 8.03049 7.27987L7.72097 8.43926ZM7.88247 8.48254L7.99162 8.51245L8.30878 7.35512L8.19963 7.32521L7.88247 8.48254ZM7.9894 8.51184C8.35412 8.6133 8.68275 8.71338 8.92197 8.86099C9.13796 8.99427 9.19473 9.10803 9.19473 9.24752H10.3947C10.3947 8.55002 9.98202 8.10504 9.55213 7.83977C9.14547 7.58883 8.65183 7.45055 8.311 7.35574L7.9894 8.51184ZM9.19473 9.24752C9.19473 9.51947 9.10712 9.6928 8.96563 9.81034C8.80891 9.94055 8.50621 10.0676 7.96152 10.0663L7.95883 11.2663C8.67173 11.2679 9.28631 11.104 9.73246 10.7334C10.1939 10.3501 10.3947 9.81257 10.3947 9.24752H9.19473ZM7.96152 10.0663C7.23177 10.0647 6.88223 9.77984 6.35989 9.38827L5.64011 10.3484C6.15276 10.7327 6.79076 11.2637 7.95883 11.2663L7.96152 10.0663ZM7.4 3.99965V5.33301H8.6V3.99965H7.4ZM7.4 10.6663V11.9997H8.6V10.6663H7.4Z" fill="black"/>
</g>
<defs>
<clipPath id="clip0_10245_30338">
<rect width="16" height="16" fill="white"/>
</clipPath>
</defs>
</svg>