<svg width="20" height="15" viewBox="0 0 20 15" fill="none" xmlns="http://www.w3.org/2000/svg">
<path d="M6.8095 5.17636C6.8046 5.18592 6.70872 5.2851 6.77091 5.36484C6.92254 5.5587 7.39127 5.66983 7.86525 5.56346C8.14746 5.50015 8.50914 5.21233 8.85956 4.93436C9.19407 4.63054 9.57784 4.38585 9.99444 4.21076C10.2606 4.11331 10.5513 4.10571 10.8222 4.18911C11.0972 4.29129 11.3525 4.44025 11.5767 4.6294C12.2345 5.12403 14.8798 7.433 15.337 7.832C16.7415 7.24791 18.1956 6.79113 19.6818 6.46714C19.4885 5.28197 18.7757 4.15214 17.6821 3.26432C16.1577 3.90453 14.1707 4.28786 12.3493 3.3985C11.7304 3.11834 11.0613 2.96619 10.3821 2.95117C8.93707 2.98479 8.31106 3.61009 7.64862 4.27209L6.8095 5.17636Z" fill="white"/>
<path d="M15.2302 8.08276C15.199 8.0549 12.1199 5.36057 11.4222 4.83625C11.1791 4.62002 10.8794 4.4777 10.5582 4.42602C10.4199 4.41501 10.2808 4.42839 10.1471 4.46555C9.73518 4.6207 9.35405 4.84781 9.02153 5.13628C8.63166 5.44703 8.26385 5.73949 7.92233 5.81601C7.50968 5.90078 7.08034 5.83628 6.71082 5.634C6.6243 5.58106 6.55458 5.50467 6.50975 5.41368C6.48506 5.34397 6.48168 5.26849 6.50001 5.19684C6.51835 5.1252 6.55759 5.06063 6.61274 5.01135L7.46257 4.0922C7.56146 3.99373 7.66077 3.89496 7.76289 3.79795C7.5008 3.83735 7.2419 3.89565 6.98822 3.97239C6.69608 4.06943 6.39207 4.12613 6.08459 4.14092C5.77474 4.10956 5.46682 4.06143 5.16218 3.99674C4.25382 3.7836 3.36712 3.48687 2.51343 3.11035C1.30531 4.00969 0.518616 5.11389 0.285156 6.3524C0.458737 6.39825 0.913591 6.50197 1.03114 6.52804C3.76518 7.13588 4.61657 7.76203 4.77105 7.89285C4.86191 7.79059 4.97476 7.71026 5.10114 7.6579C5.22751 7.60555 5.36411 7.58252 5.50066 7.59057C5.63721 7.59861 5.77016 7.63751 5.88952 7.70434C6.00887 7.77117 6.11152 7.8642 6.18973 7.97641C6.37412 7.82735 6.60424 7.74637 6.84134 7.74712C6.97455 7.7484 7.10664 7.77155 7.23235 7.81563C7.35418 7.85458 7.46629 7.91909 7.5612 8.00485C7.6561 8.09061 7.7316 8.19563 7.78266 8.31291C7.90212 8.25877 8.03189 8.23117 8.16304 8.23199C8.31991 8.23398 8.4747 8.26812 8.61785 8.3323C8.8169 8.42561 8.97838 8.58371 9.07587 8.78074C9.17336 8.97777 9.20108 9.20206 9.1545 9.41689C9.19067 9.41299 9.22703 9.41107 9.2634 9.41113C9.55076 9.41159 9.8262 9.52598 10.0293 9.72922C10.2325 9.93245 10.3468 10.208 10.3471 10.4953C10.3471 10.674 10.3025 10.8499 10.2174 11.0071C10.5004 11.18 10.8272 11.2675 11.1588 11.2592C11.2414 11.2592 11.3232 11.2422 11.399 11.2091C11.4747 11.1761 11.5429 11.1277 11.5991 11.0671C11.6264 11.0287 11.6548 10.9838 11.6284 10.9514L10.8569 10.0947C10.8569 10.0947 10.73 9.97451 10.7719 9.92824C10.8153 9.88055 10.8937 9.94891 10.9495 9.99536C11.3419 10.3231 11.8211 10.818 11.8211 10.818C11.8295 10.8234 11.861 10.8861 12.0383 10.9179C12.1442 10.9363 12.2528 10.9332 12.3576 10.9088C12.4623 10.8844 12.5611 10.8391 12.6479 10.7757C12.6971 10.7345 12.7421 10.6885 12.7822 10.6384C12.7795 10.641 12.7764 10.6434 12.7732 10.6454C12.8272 10.5706 12.8545 10.4798 12.8505 10.3876C12.8465 10.2955 12.8114 10.2073 12.7511 10.1376L11.8505 9.12623C11.8505 9.12623 11.7217 9.00696 11.7658 8.95949C11.8049 8.9178 11.8877 8.9806 11.9442 9.02743C12.2292 9.2659 12.6321 9.66987 13.0182 10.0485C13.1469 10.1355 13.2999 10.1795 13.4552 10.1741C13.6105 10.1688 13.7601 10.1143 13.8825 10.0185C13.9827 9.96317 14.0657 9.88113 14.1221 9.7815C14.1785 9.68187 14.2062 9.56854 14.2021 9.45412C14.1827 9.31104 14.1157 9.17866 14.0119 9.07822L12.7822 7.84128C12.7822 7.84128 12.6519 7.73028 12.698 7.6743C12.7357 7.62702 12.8196 7.69497 12.8753 7.74126C13.2669 8.06918 14.3276 9.04193 14.3276 9.04193C14.4526 9.12259 14.5988 9.16411 14.7475 9.16115C14.8962 9.1582 15.0407 9.1109 15.1624 9.02533C15.2405 8.97961 15.3063 8.91551 15.3541 8.8386C15.4018 8.76168 15.4301 8.67427 15.4364 8.58396C15.44 8.49052 15.4235 8.39738 15.3879 8.3109C15.3523 8.22442 15.2986 8.14661 15.2302 8.08276Z" fill="white"/>
<path d="M9.26303 9.65071C9.11855 9.67099 8.97589 9.70259 8.83637 9.74524C8.82117 9.73543 8.84804 9.6587 8.8658 9.61454C8.88436 9.5708 9.13552 8.81481 8.5231 8.55246C8.38606 8.47894 8.22894 8.45161 8.07513 8.47454C7.92131 8.49748 7.779 8.56945 7.66937 8.67975C7.64374 8.7065 7.6321 8.70427 7.62925 8.67048C7.6256 8.52934 7.57785 8.39288 7.49271 8.28026C7.40756 8.16764 7.28929 8.0845 7.15449 8.04251C6.96357 7.98376 6.75879 7.98825 6.57063 8.05533C6.38248 8.1224 6.22103 8.24846 6.11033 8.41473C6.09061 8.26568 6.02122 8.12763 5.91336 8.02288C5.8055 7.91814 5.66548 7.85282 5.51591 7.83747C5.36634 7.82213 5.21597 7.85766 5.08909 7.93833C4.96221 8.01899 4.86624 8.14008 4.81667 8.28202C4.7671 8.42397 4.76683 8.57848 4.81592 8.72059C4.865 8.86271 4.96056 8.98412 5.08717 9.06522C5.21377 9.14632 5.36402 9.18236 5.51363 9.16753C5.66325 9.1527 5.8035 9.08786 5.91172 8.98349C5.91559 8.98702 5.91706 8.99329 5.91515 9.00599C5.86985 9.2131 5.90063 9.42958 6.00185 9.61585C6.10307 9.80212 6.26798 9.94572 6.46639 10.0204C6.57358 10.0617 6.68972 10.0742 6.80326 10.0567C6.91679 10.0392 7.02375 9.99223 7.11349 9.92051C7.16665 9.88309 7.17526 9.89883 7.16778 9.94893C7.145 10.1039 7.17398 10.436 7.63945 10.6244C7.75478 10.681 7.88525 10.6988 8.01151 10.6753C8.13778 10.6519 8.25312 10.5883 8.34044 10.4942C8.40037 10.4399 8.4167 10.4487 8.41979 10.533C8.42729 10.6981 8.4831 10.8574 8.58031 10.9911C8.67752 11.1248 8.81185 11.227 8.96662 11.285C9.12139 11.3431 9.2898 11.3544 9.45094 11.3175C9.61208 11.2807 9.75886 11.1974 9.87308 11.0779C9.98729 10.9584 10.0639 10.808 10.0934 10.6454C10.1229 10.4828 10.104 10.315 10.0391 10.163C9.9741 10.011 9.86594 9.88147 9.728 9.79039C9.59006 9.69932 9.42842 9.65075 9.26312 9.65071H9.26303Z" fill="white"/>
<path d="M10.0007 0.579102C4.47793 0.579102 0.00112794 3.51651 0.00112794 7.1195C0.00112794 7.21267 0 7.46975 0 7.50238C0 11.3251 3.91298 14.4207 9.99945 14.4207C16.1227 14.4207 20 11.3258 20 7.50309V7.1195C19.9999 3.51651 15.523 0.579102 10.0007 0.579102ZM19.5491 6.39465C18.1083 6.71348 16.7016 7.17076 15.3486 7.76012C14.3999 6.93236 12.2079 5.02623 11.6143 4.58084C11.3841 4.38725 11.1223 4.23487 10.8403 4.1304C10.7173 4.09166 10.5893 4.07166 10.4604 4.07106C10.2964 4.07324 10.1336 4.10067 9.97792 4.15237C9.56101 4.32545 9.17684 4.56868 8.84208 4.87151L8.82303 4.88656C8.47857 5.16046 8.1225 5.44377 7.85312 5.5037C7.73526 5.53028 7.61482 5.54377 7.494 5.54393C7.37278 5.55403 7.25076 5.54005 7.13497 5.5028C7.01918 5.46554 6.9119 5.40575 6.81931 5.32685C6.80254 5.30535 6.81363 5.27073 6.85266 5.22095L6.85769 5.21418L7.69244 4.31499C8.34606 3.66132 8.96351 3.04414 10.3844 3.01153C10.4081 3.01085 10.432 3.0104 10.4553 3.0104C11.1007 3.03673 11.735 3.18696 12.3236 3.4529C13.1144 3.84822 13.9853 4.05709 14.8695 4.06346C15.8366 4.04677 16.7885 3.81915 17.6586 3.3965C18.6723 4.24908 19.3447 5.27592 19.5491 6.39465ZM10.0024 0.965324C12.9338 0.965324 15.5568 1.80552 17.3203 3.12881C16.5509 3.48028 15.7172 3.66926 14.8715 3.68393C14.044 3.67719 13.2292 3.48105 12.4893 3.11055C11.8496 2.81858 11.1587 2.65534 10.4559 2.63014C10.4292 2.63014 10.4022 2.63056 10.3758 2.63115C9.52931 2.61876 8.70658 2.91084 8.05743 3.4542C7.66439 3.4748 7.27562 3.54577 6.90065 3.66537C6.63708 3.75328 6.36301 3.80579 6.08561 3.82152C5.98108 3.82152 5.79304 3.81195 5.77617 3.81122C4.77886 3.63566 3.80066 3.36495 2.85499 3.0028C4.61495 1.75214 7.16469 0.965324 10.0024 0.965324ZM2.50898 3.2639C3.72861 3.76274 5.20827 4.14796 5.67617 4.17827C5.80669 4.18685 5.94575 4.20161 6.08488 4.2019C6.39783 4.18672 6.70729 4.12922 7.00481 4.03097C7.18195 3.98132 7.37728 3.92715 7.58286 3.88792C7.52783 3.94164 7.47313 3.99623 7.41811 4.05137L6.57038 4.96844C6.50591 5.02559 6.4603 5.10095 6.43958 5.18457C6.41885 5.26819 6.42399 5.35614 6.4543 5.43678C6.50351 5.53877 6.58083 5.62459 6.67717 5.68412C6.95141 5.83911 7.26211 5.91793 7.57707 5.9124C7.69774 5.91325 7.81812 5.90065 7.936 5.87484C8.29155 5.79524 8.66443 5.49813 9.05919 5.18414C9.38625 4.90176 9.75981 4.67824 10.1633 4.52354C10.2637 4.49685 10.3671 4.48268 10.471 4.48134C10.4976 4.48113 10.5242 4.48273 10.5506 4.48612C10.8611 4.5371 11.1507 4.67526 11.3857 4.8845C12.0818 5.40755 15.1612 8.10159 15.1915 8.12817C15.2527 8.18617 15.3008 8.25652 15.3327 8.33454C15.3645 8.41257 15.3794 8.49649 15.3764 8.58072C15.3708 8.66148 15.3454 8.73961 15.3025 8.80823C15.2595 8.87685 15.2003 8.93384 15.1302 8.97418C15.0104 9.0542 14.8702 9.09792 14.7262 9.10009C14.5998 9.10021 14.476 9.06435 14.3692 8.99671C14.3579 8.98742 13.3028 8.01984 12.9143 7.69467C12.8657 7.6433 12.8017 7.60913 12.732 7.59733C12.7165 7.59703 12.7012 7.6003 12.6872 7.60689C12.6732 7.61349 12.6609 7.62322 12.6512 7.63533C12.5902 7.71059 12.6586 7.81495 12.7393 7.88333L13.9718 9.12282C14.0637 9.21237 14.1236 9.32967 14.1423 9.45664C14.1454 9.56052 14.1198 9.66325 14.0681 9.75344C14.0165 9.84363 13.9409 9.91775 13.8497 9.96757C13.7215 10.0579 13.5694 10.1081 13.4127 10.112C13.2875 10.112 13.1651 10.0749 13.061 10.0053L12.8843 9.83117C12.5611 9.51323 12.2274 9.18434 11.9832 8.98065C11.9339 8.92984 11.8694 8.89637 11.7995 8.88526C11.7849 8.88501 11.7705 8.88784 11.7571 8.89356C11.7437 8.89928 11.7317 8.90777 11.7218 8.91846C11.694 8.94941 11.6745 9.00497 11.7443 9.09727C11.7631 9.12206 11.7839 9.14526 11.8065 9.16661L12.7057 10.1769C12.7576 10.2357 12.788 10.3104 12.7917 10.3888C12.7954 10.4672 12.7723 10.5445 12.7261 10.608L12.6942 10.6482C12.6679 10.6767 12.6399 10.7037 12.6104 10.7289C12.4832 10.8224 12.3287 10.8713 12.1709 10.8682C12.1302 10.8684 12.0895 10.865 12.0494 10.8579C11.9838 10.8528 11.9216 10.8266 11.8721 10.7832L11.8609 10.7719C11.812 10.7211 11.3587 10.2582 10.9837 9.94511C10.9371 9.89564 10.8756 9.86278 10.8086 9.85157C10.7933 9.85143 10.7781 9.85458 10.7641 9.86082C10.75 9.86706 10.7375 9.87624 10.7273 9.88773C10.6534 9.96902 10.7648 10.0904 10.812 10.135L11.5787 10.9812C11.5721 10.9999 11.5624 11.0174 11.55 11.0328C11.5225 11.0708 11.4296 11.1639 11.1513 11.1988C11.1175 11.2031 11.0835 11.2052 11.0495 11.205C10.7855 11.188 10.5288 11.1119 10.2983 10.9822C10.3804 10.8078 10.4172 10.6155 10.4052 10.4232C10.3932 10.2308 10.3328 10.0446 10.2296 9.88187C10.1264 9.7191 9.98382 9.58502 9.81498 9.49209C9.64614 9.39917 9.45656 9.35039 9.26383 9.3503C9.25037 9.3503 9.236 9.35071 9.22252 9.35115C9.25535 9.13334 9.21649 8.91075 9.1118 8.71694C9.0071 8.52313 8.84224 8.36861 8.64207 8.27667C8.4915 8.20912 8.32866 8.17323 8.16365 8.17123C8.0438 8.17065 7.92486 8.19221 7.81284 8.23481C7.69627 8.00846 7.49486 7.83745 7.25262 7.75911C7.12068 7.71234 6.98187 7.68791 6.8419 7.68683C6.61233 7.68553 6.38831 7.75731 6.20223 7.89177C6.11765 7.7855 6.01157 7.69831 5.89094 7.63591C5.77032 7.5735 5.63786 7.53729 5.50226 7.52965C5.36666 7.52201 5.23098 7.54312 5.1041 7.59158C4.97723 7.64003 4.86202 7.71476 4.76604 7.81085C4.52719 7.6283 3.57999 7.02661 1.04457 6.45099C0.923466 6.42356 0.648566 6.34485 0.475427 6.29406C0.713276 5.15597 1.43646 4.11665 2.50903 3.2639H2.50898ZM7.21194 9.86375L7.1845 9.83923H7.15679C7.12831 9.84134 7.1012 9.85231 7.07926 9.87059C6.97032 9.95442 6.83766 10.0016 6.70027 10.0055C6.62786 10.0049 6.55619 9.99095 6.48883 9.96439C6.30276 9.89494 6.14823 9.76031 6.05393 9.58551C5.95964 9.41071 5.932 9.20763 5.97615 9.014C5.97918 8.99991 5.9784 8.98528 5.97388 8.9716C5.96936 8.95792 5.96128 8.9457 5.95046 8.93619L5.90897 8.90231L5.87018 8.93928C5.7572 9.04898 5.6059 9.11031 5.44842 9.11022C5.33096 9.1107 5.21584 9.07726 5.11692 9.01392C5.01799 8.95057 4.93945 8.86002 4.89073 8.75313C4.84202 8.64623 4.82519 8.52755 4.84229 8.41133C4.85938 8.29511 4.90966 8.1863 4.98708 8.09795C5.06451 8.00961 5.1658 7.9455 5.27877 7.91332C5.39175 7.88114 5.51161 7.88226 5.62397 7.91654C5.73633 7.95083 5.8364 8.01682 5.91216 8.10659C5.98793 8.19636 6.03617 8.30609 6.05109 8.42261L6.0721 8.58648L6.16214 8.44777C6.26358 8.29035 6.41426 8.17094 6.59069 8.10816C6.76712 8.04539 6.95937 8.04277 7.13744 8.10073C7.26044 8.13935 7.36825 8.21553 7.44571 8.31858C7.52317 8.42163 7.56639 8.54636 7.5693 8.67525C7.57589 8.75472 7.63246 8.75862 7.64342 8.75862C7.65711 8.75766 7.67045 8.75388 7.68261 8.74751C7.69477 8.74115 7.70548 8.73234 7.71407 8.72164C7.77207 8.6611 7.84183 8.61305 7.91907 8.58044C7.99631 8.54783 8.0794 8.53135 8.16323 8.532C8.2794 8.53455 8.39386 8.5604 8.49985 8.60801C9.07436 8.85447 8.81383 9.58456 8.81077 9.59202C8.76121 9.713 8.75928 9.76646 8.80569 9.79728L8.82833 9.80794H8.8452C8.8835 9.80364 8.92098 9.79383 8.95649 9.77884C9.05438 9.74014 9.1578 9.7173 9.26288 9.71116H9.26317C9.36609 9.71119 9.46799 9.73149 9.56306 9.7709C9.65814 9.81031 9.74452 9.86806 9.81727 9.94085C9.89002 10.0136 9.94773 10.1001 9.98709 10.1951C10.0264 10.2902 10.0467 10.3922 10.0467 10.4951C10.0466 10.598 10.0263 10.6999 9.98693 10.795C9.94752 10.89 9.88977 10.9764 9.81697 11.0492C9.74418 11.1219 9.65777 11.1796 9.56268 11.219C9.46759 11.2583 9.36567 11.2786 9.26276 11.2786C9.06088 11.2798 8.86643 11.2025 8.72052 11.0629C8.57462 10.9234 8.48868 10.7326 8.48087 10.5309C8.47972 10.495 8.47597 10.3996 8.39505 10.3996C8.35826 10.4039 8.32439 10.4218 8.30011 10.4497C8.20009 10.5562 8.06189 10.6186 7.91589 10.6232C7.82872 10.6214 7.74272 10.6027 7.66265 10.5683C7.21637 10.3871 7.21024 10.0807 7.22827 9.95742C7.23266 9.94157 7.23347 9.92495 7.23064 9.90875C7.22782 9.89255 7.22143 9.87718 7.21194 9.86375ZM10.0024 13.2672C4.69211 13.2672 0.387423 10.5132 0.387423 7.11626C0.388248 6.98047 0.395982 6.84481 0.410595 6.70981C0.452991 6.71993 0.874719 6.82076 0.962061 6.8404C3.55204 7.41575 4.40787 8.01391 4.5525 8.12702C4.491 8.27448 4.46686 8.43485 4.48224 8.59388C4.49761 8.75291 4.55201 8.90568 4.64062 9.03864C4.72922 9.17159 4.84929 9.28061 4.99015 9.35601C5.13101 9.43141 5.28831 9.47086 5.44808 9.47086C5.50779 9.47097 5.56737 9.46546 5.62605 9.45441C5.6643 9.64674 5.7519 9.82583 5.88025 9.97409C6.0086 10.1224 6.17329 10.2347 6.35816 10.3001C6.46833 10.3434 6.58553 10.366 6.7039 10.3668C6.7784 10.3672 6.85265 10.3581 6.9248 10.3395C7.01374 10.5267 7.15264 10.6857 7.32619 10.799C7.49974 10.9123 7.7012 10.9755 7.90837 10.9815C8.00945 10.9815 8.10974 10.9636 8.20457 10.9287C8.2764 11.1044 8.3909 11.2595 8.53772 11.3798C8.68455 11.5002 8.85906 11.5821 9.04548 11.6181C9.2319 11.654 9.42434 11.643 9.60541 11.5859C9.78648 11.5288 9.95046 11.4274 10.0825 11.291C10.3779 11.4631 10.7101 11.5623 11.0515 11.5804C11.1005 11.5802 11.1495 11.5771 11.1981 11.5711C11.3242 11.5673 11.4479 11.5366 11.5612 11.4812C11.6745 11.4258 11.7746 11.3468 11.855 11.2497C11.8702 11.2288 11.8838 11.2068 11.8956 11.1838C11.9962 11.2145 12.1007 11.2308 12.2059 11.2324C12.4333 11.2278 12.6531 11.1492 12.8319 11.0085C13.0206 10.8846 13.1532 10.6917 13.2013 10.4711C13.2017 10.4686 13.202 10.4662 13.2021 10.4637C13.2711 10.4777 13.3413 10.4848 13.4117 10.4848C13.6416 10.4819 13.8654 10.411 14.0549 10.2808C14.199 10.1973 14.3179 10.0764 14.3992 9.9309C14.4804 9.78543 14.5208 9.62075 14.5163 9.45421C14.5862 9.46875 14.6574 9.47614 14.7287 9.47628C14.9432 9.47396 15.1524 9.40956 15.3311 9.29086C15.4498 9.21832 15.5497 9.11874 15.6225 9.00024C15.6954 8.88174 15.7392 8.74768 15.7504 8.60902C15.7646 8.41605 15.7181 8.22347 15.6173 8.05829C16.9092 7.53097 18.2432 7.11322 19.6051 6.80946C19.6129 6.91119 19.6172 7.01349 19.6172 7.11646C19.6172 10.5132 15.3126 13.2672 10.0024 13.2672L10.0024 13.2672Z" fill="black" fill-opacity="0.55"/>
</svg>
