<svg width="16" height="16" viewBox="0 0 16 16" fill="none" xmlns="http://www.w3.org/2000/svg">
<g clip-path="url(#clip0_10246_30419)">
<g clip-path="url(#clip1_10246_30419)">
<path d="M12.525 3.9035L10.8733 1.70132C10.6591 1.41568 10.3436 1.22292 9.99169 1.16264C9.63977 1.10235 9.27812 1.17912 8.98104 1.37718L5.14258 3.93615" stroke="black" stroke-width="1.1" stroke-linecap="round" stroke-linejoin="round"/>
<path d="M14.9698 7.0791H12.5253C12.0623 7.0791 11.6181 7.26306 11.2907 7.59051C10.9633 7.91795 10.7793 8.36207 10.7793 8.82514C10.7793 9.28822 10.9633 9.73234 11.2907 10.0598C11.6181 10.3872 12.0623 10.5712 12.5253 10.5712H14.9698V7.0791Z" stroke="black" stroke-width="1.1" stroke-linecap="round" stroke-linejoin="round"/>
<path d="M14.2707 7.0794V5.68257C14.2707 5.21949 14.0868 4.77537 13.7593 4.44793C13.4319 4.12048 12.9878 3.93652 12.5247 3.93652H3.44526C2.98218 3.93652 2.53807 4.12048 2.21062 4.44793C1.88318 4.77537 1.69922 5.21949 1.69922 5.68257V11.9683C1.69922 12.4314 1.88318 12.8755 2.21062 13.203C2.53807 13.5304 2.98218 13.7144 3.44526 13.7144H12.5247C12.9878 13.7144 13.4319 13.5304 13.7593 13.203C14.0868 12.8755 14.2707 12.4314 14.2707 11.9683V10.5715" stroke="black" stroke-width="1.1" stroke-linecap="round" stroke-linejoin="round"/>
</g>
</g>
<defs>
<clipPath id="clip0_10246_30419">
<rect width="16" height="16" fill="white"/>
</clipPath>
<clipPath id="clip1_10246_30419">
<rect width="16" height="16" fill="white"/>
</clipPath>
</defs>
</svg>