<svg width="16" height="16" viewBox="0 0 16 16" fill="none" xmlns="http://www.w3.org/2000/svg">
<path d="M5.58267 7.11574L7.15682 8.62888L10.3475 5.04664L11.2436 5.84477L7.22387 10.3578L4.75108 7.98087L5.58267 7.11574Z" fill="black" fill-opacity="0.9"/>
<path fill-rule="evenodd" clip-rule="evenodd" d="M1.39844 3.89512C1.39844 9.52791 3.56322 13.1374 7.8717 14.5735L8.06144 14.6368L8.25117 14.5735C12.5597 13.1374 14.7244 9.52791 14.7244 3.89512V3.29512H14.1244C12.2543 3.29512 10.3642 2.51189 8.44429 0.920807L8.06144 0.603516L7.67858 0.920807C5.75871 2.51189 3.86854 3.29512 1.99844 3.29512H1.39844V3.89512ZM8.06144 2.15238C9.86082 3.55286 11.6811 4.33098 13.5164 4.4718C13.3819 9.19658 11.5695 12.1203 8.06144 13.3697C4.55334 12.1203 2.74097 9.19658 2.60652 4.4718C4.44179 4.33098 6.26205 3.55286 8.06144 2.15238Z" fill="black" fill-opacity="0.9"/>
</svg>