<svg width="9" height="11" viewBox="0 0 11 11" fill="none" xmlns="http://www.w3.org/2000/svg">
<path d="M0.678516 10.2998V9.0118C4.30452 6.2678 5.71852 5.0498 5.71852 3.7058C5.71852 2.7258 4.87852 2.2778 4.02452 2.2778C2.93252 2.2778 2.09252 2.7258 1.50452 3.3978L0.552516 2.3198C1.37852 1.3258 2.69452 0.821804 3.99652 0.821804C5.80252 0.821804 7.38452 1.8438 7.38452 3.7058C7.38452 5.4278 5.80252 6.9678 3.29652 8.8578H7.44052V10.2998H0.678516ZM9.03269 9.4738C9.03269 8.9418 9.48069 8.4938 10.0127 8.4938C10.5447 8.4938 10.9927 8.9418 10.9927 9.4738C10.9927 10.0058 10.5447 10.4538 10.0127 10.4538C9.48069 10.4538 9.03269 10.0058 9.03269 9.4738Z" fill="#009EE3"/>
</svg>
