<svg width="9" height="11" viewBox="0 0 11 11" fill="none" xmlns="http://www.w3.org/2000/svg">
<path d="M0.314516 8.9558L1.19652 7.8778C1.79852 8.5778 2.79252 9.0118 3.78652 9.0118C5.01852 9.0118 5.73252 8.4518 5.73252 7.5838C5.73252 6.6598 4.99052 6.2678 3.66052 6.2678C3.26852 6.2678 2.72252 6.2678 2.58252 6.2818V4.8118C2.75052 4.8258 3.29652 4.8258 3.66052 4.8258C4.75252 4.8258 5.57852 4.4478 5.57852 3.5938C5.57852 2.7258 4.73852 2.2778 3.68852 2.2778C2.73652 2.2778 1.95252 2.6418 1.28052 3.3138L0.440516 2.2918C1.15452 1.4518 2.28852 0.821804 3.84252 0.821804C5.85852 0.821804 7.21652 1.7738 7.21652 3.3418C7.21652 4.5878 6.15252 5.3158 5.18652 5.4838C6.09652 5.5678 7.35652 6.3098 7.35652 7.7518C7.35652 9.3338 5.99852 10.4678 3.84252 10.4678C2.17652 10.4678 0.944516 9.7958 0.314516 8.9558ZM8.74558 9.4738C8.74558 8.9418 9.19358 8.4938 9.72558 8.4938C10.2576 8.4938 10.7056 8.9418 10.7056 9.4738C10.7056 10.0058 10.2576 10.4538 9.72558 10.4538C9.19358 10.4538 8.74558 10.0058 8.74558 9.4738Z" fill="#009EE3"/>
</svg>
