<svg width="17" height="16" viewBox="0 0 17 16" fill="none" xmlns="http://www.w3.org/2000/svg">
<path d="M9.68502 10.3948C9.68502 11.0548 9.15 11.5898 8.49002 11.5898C7.83004 11.5898 7.29502 11.0548 7.29502 10.3948C7.29502 9.73484 7.83004 9.19982 8.49002 9.19982C9.15 9.19982 9.68502 9.73484 9.68502 10.3948Z" fill="black" fill-opacity="0.55"/>
<path fill-rule="evenodd" clip-rule="evenodd" d="M13.7012 6.20009H12.1094V3.80935C12.1094 1.81593 10.4934 0.199951 8.50002 0.199951C6.5066 0.199951 4.89062 1.81593 4.89062 3.80935V6.20009H3.29883V12.798C3.29883 14.4548 4.64197 15.798 6.29883 15.798H10.7012C12.3581 15.798 13.7012 14.4548 13.7012 12.798V6.20009ZM10.9094 3.80935V6.20009H6.09062V3.80935C6.09062 2.47867 7.16934 1.39995 8.50002 1.39995C9.83069 1.39995 10.9094 2.47867 10.9094 3.80935ZM4.49883 12.798V7.40009H12.5012V12.798C12.5012 13.7921 11.6953 14.598 10.7012 14.598H6.29883C5.30472 14.598 4.49883 13.7921 4.49883 12.798Z" fill="black" fill-opacity="0.55"/>
</svg>
