<svg width="16" height="18" viewBox="0 0 16 18" fill="none" xmlns="http://www.w3.org/2000/svg">
<circle cx="8" cy="9" r="8" fill="#479AD1" fill-opacity="0.1"/>
<path d="M4.84269 10.848C5.38269 11.568 6.43869 12.144 7.86669 12.144C9.71469 12.144 10.8787 11.172 10.8787 9.816C10.8787 8.58 9.79869 7.944 9.01869 7.872C9.84669 7.728 10.7587 7.104 10.7587 6.036C10.7587 4.692 9.59469 3.876 7.86669 3.876C6.53469 3.876 5.56269 4.416 4.95069 5.136L5.67069 6.012C6.24669 5.436 6.91869 5.124 7.73469 5.124C8.63469 5.124 9.35469 5.508 9.35469 6.252C9.35469 6.984 8.64669 7.308 7.71069 7.308C7.39869 7.308 6.93069 7.308 6.78669 7.296V8.556C6.90669 8.544 7.37469 8.544 7.71069 8.544C8.85069 8.544 9.48669 8.88 9.48669 9.672C9.48669 10.416 8.87469 10.896 7.81869 10.896C6.96669 10.896 6.11469 10.524 5.59869 9.924L4.84269 10.848Z" fill="#009EE3"/>
</svg>
