<svg width="21" height="15" viewBox="0 0 21 15" fill="none" xmlns="http://www.w3.org/2000/svg">
<path d="M7.21966 5.23788C7.21475 5.24744 7.11888 5.34663 7.18106 5.42637C7.3327 5.62023 7.80143 5.73135 8.27541 5.62498C8.55762 5.56167 8.91929 5.27385 9.26972 4.99589C9.60423 4.69206 9.988 4.44737 10.4046 4.27229C10.6707 4.17484 10.9615 4.16723 11.2323 4.25064C11.5074 4.35281 11.7626 4.50177 11.9869 4.69093C12.6447 5.18555 15.2899 7.49452 15.7471 7.89352C17.1516 7.30944 18.6058 6.85265 20.092 6.52866C19.8987 5.34349 19.1858 4.21366 18.0922 3.32585C16.5679 3.96605 14.5809 4.34938 12.7595 3.46002C12.1406 3.17987 11.4715 3.02771 10.7923 3.0127C9.34722 3.04631 8.72122 3.67161 8.05877 4.33361L7.21966 5.23788Z" fill="white"/>
<path d="M15.6404 8.14428C15.6092 8.11643 12.5301 5.42209 11.8324 4.89777C11.5893 4.68154 11.2895 4.53922 10.9684 4.48755C10.8301 4.47653 10.6909 4.48991 10.5573 4.52707C10.1453 4.68222 9.76421 4.90933 9.43169 5.19781C9.04181 5.50855 8.674 5.80101 8.33248 5.87754C7.91984 5.9623 7.4905 5.8978 7.12098 5.69552C7.03446 5.64259 6.96473 5.56619 6.91991 5.47521C6.89522 5.40549 6.89183 5.33001 6.91017 5.25837C6.92851 5.18672 6.96775 5.12215 7.02289 5.07287L7.87272 4.15372C7.97162 4.05525 8.07092 3.95648 8.17305 3.85948C7.91096 3.89887 7.65206 3.95717 7.39838 4.03392C7.10624 4.13095 6.80222 4.18765 6.49475 4.20245C6.1849 4.17108 5.87698 4.12295 5.57234 4.05827C4.66397 3.84512 3.77728 3.54839 2.92359 3.17188C1.71546 4.07121 0.928772 5.17542 0.695312 6.41392C0.868893 6.45978 1.32375 6.5635 1.4413 6.58956C4.17533 7.1974 5.02673 7.82355 5.18121 7.95437C5.27206 7.85211 5.38492 7.77178 5.51129 7.71943C5.63767 7.66707 5.77426 7.64405 5.91082 7.65209C6.04737 7.66013 6.18032 7.69904 6.29967 7.76587C6.41903 7.8327 6.52167 7.92572 6.59989 8.03794C6.78428 7.88887 7.01439 7.8079 7.2515 7.80865C7.3847 7.80993 7.5168 7.83307 7.6425 7.87716C7.76433 7.91611 7.87645 7.98062 7.97135 8.06637C8.06626 8.15213 8.14176 8.25716 8.19281 8.37443C8.31227 8.32029 8.44205 8.29269 8.5732 8.29351C8.73007 8.2955 8.88486 8.32964 9.02801 8.39383C9.22705 8.48713 9.38853 8.64523 9.48602 8.84226C9.58351 9.03929 9.61124 9.26358 9.56466 9.47842C9.60083 9.47451 9.63718 9.47259 9.67356 9.47265C9.96091 9.47312 10.2364 9.5875 10.4395 9.79074C10.6426 9.99398 10.7569 10.2695 10.7572 10.5568C10.7572 10.7355 10.7127 10.9114 10.6276 11.0686C10.9105 11.2415 11.2374 11.3291 11.5689 11.3207C11.6516 11.3207 11.7334 11.3037 11.8091 11.2706C11.8849 11.2376 11.953 11.1893 12.0093 11.1287C12.0365 11.0903 12.0649 11.0453 12.0385 11.0129L11.267 10.1562C11.267 10.1562 11.1402 10.036 11.1821 9.98977C11.2254 9.94208 11.3039 10.0104 11.3596 10.0569C11.7521 10.3846 12.2312 10.8795 12.2312 10.8795C12.2397 10.8849 12.2712 10.9476 12.4484 10.9794C12.5544 10.9979 12.663 10.9948 12.7677 10.9703C12.8725 10.9459 12.9712 10.9006 13.0581 10.8372C13.1073 10.796 13.1523 10.75 13.1923 10.6999C13.1896 10.7026 13.1866 10.7049 13.1833 10.7069C13.2374 10.6321 13.2646 10.5413 13.2606 10.4491C13.2566 10.357 13.2216 10.2689 13.1613 10.1991L12.2607 9.18775C12.2607 9.18775 12.1318 9.06848 12.176 9.02101C12.2151 8.97933 12.2978 9.04212 12.3544 9.08896C12.6394 9.32742 13.0423 9.7314 13.4284 10.11C13.5571 10.197 13.7101 10.241 13.8654 10.2357C14.0207 10.2303 14.1703 10.1758 14.2927 10.08C14.3929 10.0247 14.4758 9.94265 14.5323 9.84302C14.5887 9.74339 14.6164 9.63007 14.6123 9.51564C14.5928 9.37256 14.5258 9.24018 14.4221 9.13974L13.1923 7.90281C13.1923 7.90281 13.0621 7.7918 13.1082 7.73582C13.1459 7.68855 13.2297 7.75649 13.2854 7.80279C13.6771 8.1307 14.7378 9.10345 14.7378 9.10345C14.8627 9.18412 15.009 9.22563 15.1577 9.22268C15.3064 9.21972 15.4509 9.17242 15.5725 9.08685C15.6507 9.04113 15.7165 8.97704 15.7642 8.90012C15.812 8.8232 15.8402 8.7358 15.8465 8.64548C15.8502 8.55204 15.8336 8.45891 15.7981 8.37242C15.7625 8.28594 15.7087 8.20813 15.6404 8.14428Z" fill="white"/>
<path d="M9.67318 9.71224C9.52871 9.73251 9.38605 9.76412 9.24653 9.80676C9.23132 9.79695 9.2582 9.72023 9.27595 9.67607C9.29451 9.63232 9.54568 8.87633 8.93325 8.61399C8.79621 8.54046 8.6391 8.51313 8.48528 8.53607C8.33146 8.559 8.18916 8.63097 8.07952 8.74127C8.0539 8.76803 8.04225 8.76579 8.03941 8.732C8.03576 8.59086 7.98801 8.45441 7.90286 8.34178C7.81772 8.22916 7.69944 8.14602 7.56464 8.10404C7.37373 8.04528 7.16894 8.04978 6.98079 8.11685C6.79264 8.18392 6.63118 8.30998 6.52049 8.47626C6.50077 8.3272 6.43138 8.18915 6.32352 8.08441C6.21566 7.97966 6.07563 7.91434 5.92607 7.899C5.7765 7.88366 5.62613 7.91919 5.49925 7.99985C5.37237 8.08052 5.27639 8.2016 5.22682 8.34355C5.17725 8.48549 5.17699 8.64 5.22607 8.78212C5.27516 8.92423 5.37072 9.04564 5.49732 9.12674C5.62392 9.20784 5.77417 9.24389 5.92379 9.22906C6.07341 9.21423 6.21365 9.14938 6.32187 9.04501C6.32575 9.04854 6.32722 9.05482 6.3253 9.06752C6.28 9.27462 6.31078 9.49111 6.41201 9.67738C6.51323 9.86365 6.67813 10.0072 6.87655 10.0819C6.98374 10.1232 7.09988 10.1358 7.21341 10.1182C7.32695 10.1007 7.43391 10.0538 7.52364 9.98203C7.57681 9.94462 7.58541 9.96036 7.57793 10.0105C7.55515 10.1655 7.58414 10.4975 8.04961 10.686C8.16493 10.7425 8.2954 10.7603 8.42167 10.7369C8.54794 10.7134 8.66328 10.6499 8.7506 10.5557C8.81053 10.5014 8.82686 10.5103 8.82995 10.5945C8.83744 10.7597 8.89326 10.9189 8.99047 11.0526C9.08768 11.1863 9.22201 11.2885 9.37678 11.3465C9.53155 11.4046 9.69995 11.4159 9.86109 11.3791C10.0222 11.3423 10.169 11.2589 10.2832 11.1394C10.3974 11.02 10.4741 10.8696 10.5036 10.7069C10.5331 10.5443 10.5142 10.3766 10.4492 10.2246C10.3843 10.0726 10.2761 9.94299 10.1382 9.85192C10.0002 9.76084 9.83857 9.71227 9.67328 9.71224H9.67318Z" fill="white"/>
<path d="M10.4109 0.640625C4.88808 0.640625 0.411284 3.57803 0.411284 7.18102C0.411284 7.2742 0.410156 7.53127 0.410156 7.56391C0.410156 11.3866 4.32313 14.4823 10.4096 14.4823C16.5329 14.4823 20.4102 11.3873 20.4102 7.56462V7.18102C20.41 3.57803 15.9332 0.640625 10.4109 0.640625ZM19.9593 6.45617C18.5184 6.775 17.1117 7.23228 15.7588 7.82164C14.8101 6.99388 12.6181 5.08776 12.0244 4.64237C11.7943 4.44878 11.5324 4.29639 11.2504 4.19192C11.1275 4.15318 10.9995 4.13318 10.8706 4.13259C10.7065 4.13476 10.5438 4.16219 10.3881 4.2139C9.97117 4.38698 9.587 4.63021 9.25224 4.93303L9.23319 4.94809C8.88872 5.22198 8.53266 5.50529 8.26328 5.56522C8.14541 5.5918 8.02498 5.60529 7.90415 5.60546C7.78293 5.61556 7.66092 5.60158 7.54512 5.56432C7.42933 5.52707 7.32205 5.46727 7.22947 5.38838C7.2127 5.36687 7.22378 5.33225 7.26282 5.28247L7.26785 5.27571L8.1026 4.37651C8.75621 3.72285 9.37366 3.10567 10.7946 3.07306C10.8182 3.07237 10.8421 3.07193 10.8655 3.07193C11.5108 3.09826 12.1451 3.24849 12.7337 3.51442C13.5246 3.90975 14.3955 4.11861 15.2796 4.12498C16.2468 4.10829 17.1986 3.88067 18.0687 3.45803C19.0825 4.3106 19.7549 5.33745 19.9593 6.45617ZM10.4126 1.02685C13.3439 1.02685 15.967 1.86704 17.7305 3.19034C16.9611 3.5418 16.1274 3.73078 15.2816 3.74546C14.4542 3.73872 13.6393 3.54257 12.8994 3.17207C12.2597 2.8801 11.5688 2.71687 10.8661 2.69166C10.8394 2.69166 10.8124 2.69208 10.7859 2.69267C9.93947 2.68028 9.11673 2.97237 8.46758 3.51572C8.07454 3.53632 7.68577 3.60729 7.31081 3.72689C7.04724 3.8148 6.77316 3.86731 6.49577 3.88304C6.39124 3.88304 6.20319 3.87348 6.18632 3.87274C5.18901 3.69718 4.21082 3.42648 3.26515 3.06433C5.0251 1.81366 7.57484 1.02685 10.4126 1.02685ZM2.91914 3.32542C4.13876 3.82426 5.61843 4.20948 6.08633 4.23979C6.21685 4.24837 6.3559 4.26313 6.49503 4.26343C6.80799 4.24825 7.11745 4.19075 7.41497 4.09249C7.5921 4.04284 7.78743 3.98867 7.99301 3.94944C7.93799 4.00317 7.88329 4.05775 7.82826 4.1129L6.98054 5.02996C6.91607 5.08711 6.87046 5.16247 6.84973 5.2461C6.82901 5.32972 6.83414 5.41766 6.86446 5.4983C6.91367 5.6003 6.99099 5.68611 7.08733 5.74564C7.36156 5.90064 7.67227 5.97946 7.98723 5.97393C8.10789 5.97477 8.22828 5.96217 8.34616 5.93636C8.7017 5.85677 9.07459 5.55965 9.46934 5.24567C9.7964 4.96328 10.17 4.73977 10.5734 4.58506C10.6739 4.55837 10.7773 4.5442 10.8812 4.54286C10.9078 4.54265 10.9344 4.54425 10.9608 4.54764C11.2713 4.59862 11.5609 4.73678 11.7958 4.94603C12.4919 5.46907 15.5713 8.16311 15.6017 8.18969C15.6628 8.24769 15.7109 8.31804 15.7428 8.39607C15.7747 8.47409 15.7896 8.55801 15.7865 8.64224C15.7809 8.723 15.7556 8.80114 15.7126 8.86976C15.6697 8.93838 15.6105 8.99537 15.5403 9.0357C15.4206 9.11572 15.2803 9.15944 15.1363 9.16161C15.0099 9.16173 14.8861 9.12587 14.7793 9.05823C14.7681 9.04894 13.713 8.08136 13.3244 7.7562C13.2758 7.70482 13.2119 7.67065 13.1421 7.65885C13.1267 7.65855 13.1113 7.66183 13.0973 7.66842C13.0833 7.67501 13.071 7.68474 13.0614 7.69686C13.0003 7.77211 13.0688 7.87647 13.1494 7.94486L14.3819 9.18434C14.4738 9.27389 14.5338 9.3912 14.5524 9.51816C14.5556 9.62205 14.5299 9.72478 14.4783 9.81497C14.4266 9.90515 14.351 9.97927 14.2598 10.0291C14.1316 10.1194 13.9796 10.1697 13.8229 10.1736C13.6977 10.1736 13.5753 10.1364 13.4712 10.0668L13.2945 9.89269C12.9712 9.57476 12.6375 9.24586 12.3934 9.04217C12.344 8.99136 12.2796 8.9579 12.2096 8.94679C12.1951 8.94654 12.1806 8.94936 12.1673 8.95509C12.1539 8.96081 12.1419 8.96929 12.132 8.97999C12.1041 9.01093 12.0847 9.0665 12.1545 9.15879C12.1733 9.18359 12.1941 9.20678 12.2167 9.22814L13.1159 10.2384C13.1678 10.2972 13.1981 10.372 13.2018 10.4503C13.2055 10.5287 13.1824 10.606 13.1363 10.6695L13.1044 10.7097C13.0781 10.7382 13.0501 10.7652 13.0206 10.7905C12.8933 10.8839 12.7389 10.9328 12.5811 10.9297C12.5403 10.9299 12.4997 10.9265 12.4595 10.9195C12.394 10.9143 12.3318 10.8881 12.2823 10.8448L12.271 10.8334C12.2221 10.7826 11.7688 10.3198 11.3938 10.0066C11.3473 9.95716 11.2858 9.9243 11.2188 9.91309C11.2035 9.91295 11.1883 9.91611 11.1742 9.92235C11.1602 9.92859 11.1477 9.93776 11.1375 9.94926C11.0635 10.0305 11.1749 10.1519 11.2221 10.1965L11.9888 11.0427C11.9823 11.0614 11.9726 11.0789 11.9602 11.0943C11.9326 11.1323 11.8397 11.2254 11.5615 11.2603C11.5277 11.2646 11.4937 11.2667 11.4596 11.2665C11.1957 11.2495 10.9389 11.1734 10.7085 11.0437C10.7906 10.8693 10.8274 10.6771 10.8154 10.4847C10.8034 10.2924 10.743 10.1062 10.6398 9.94339C10.5366 9.78062 10.394 9.64655 10.2251 9.55362C10.0563 9.46069 9.86672 9.41191 9.67399 9.41182C9.66053 9.41182 9.64616 9.41224 9.63267 9.41268C9.66551 9.19486 9.62665 8.97227 9.52195 8.77846C9.41726 8.58466 9.2524 8.43013 9.05223 8.33819C8.90166 8.27064 8.73882 8.23475 8.57381 8.23275C8.45395 8.23217 8.33502 8.25373 8.22299 8.29633C8.10642 8.06999 7.90502 7.89897 7.66277 7.82064C7.53084 7.77387 7.39203 7.74944 7.25205 7.74835C7.02249 7.74706 6.79846 7.81883 6.61239 7.95329C6.52781 7.84703 6.42173 7.75984 6.3011 7.69743C6.18047 7.63503 6.04802 7.59882 5.91242 7.59118C5.77682 7.58354 5.64113 7.60464 5.51426 7.6531C5.38738 7.70156 5.27218 7.77628 5.1762 7.87237C4.93735 7.68982 3.99015 7.08814 1.45473 6.51252C1.33362 6.48508 1.05872 6.40637 0.885584 6.35559C1.12343 5.21749 1.84661 4.17817 2.91919 3.32542H2.91914ZM7.62209 9.92528L7.59465 9.90076H7.56695C7.53846 9.90287 7.51135 9.91383 7.48941 9.93212C7.38048 10.0159 7.24782 10.0631 7.11042 10.067C7.03802 10.0664 6.96634 10.0525 6.89898 10.0259C6.71292 9.95646 6.55838 9.82183 6.46409 9.64703C6.3698 9.47224 6.34216 9.26916 6.38631 9.07552C6.38934 9.06144 6.38856 9.0468 6.38404 9.03313C6.37952 9.01945 6.37143 9.00722 6.36061 8.99772L6.31912 8.96383L6.28033 9.00081C6.16736 9.11051 6.01605 9.17183 5.85858 9.17174C5.74111 9.17222 5.626 9.13878 5.52707 9.07544C5.42814 9.0121 5.34961 8.92154 5.30089 8.81465C5.25217 8.70776 5.23535 8.58907 5.25244 8.47285C5.26953 8.35663 5.31981 8.24782 5.39724 8.15948C5.47467 8.07114 5.57595 8.00703 5.68893 7.97485C5.80191 7.94267 5.92177 7.94379 6.03413 7.97807C6.14648 8.01235 6.24655 8.07834 6.32232 8.16811C6.39809 8.25788 6.44633 8.36762 6.46124 8.48414L6.48226 8.64801L6.5723 8.50929C6.67373 8.35188 6.82442 8.23247 7.00085 8.16969C7.17728 8.10691 7.36953 8.1043 7.5476 8.16226C7.6706 8.20087 7.7784 8.27705 7.85586 8.3801C7.93333 8.48315 7.97655 8.60789 7.97945 8.73677C7.98605 8.81624 8.04262 8.82014 8.05358 8.82014C8.06727 8.81918 8.08061 8.8154 8.09277 8.80904C8.10493 8.80267 8.11563 8.79387 8.12422 8.78316C8.18223 8.72263 8.25199 8.67458 8.32923 8.64197C8.40646 8.60936 8.48955 8.59287 8.57339 8.59352C8.68955 8.59607 8.80402 8.62192 8.91001 8.66953C9.48452 8.91599 9.22399 9.64609 9.22093 9.65354C9.17137 9.77452 9.16943 9.82798 9.21585 9.8588L9.23848 9.86947H9.25535C9.29366 9.86516 9.33114 9.85536 9.36665 9.84036C9.46453 9.80167 9.56796 9.77882 9.67303 9.77269H9.67333C9.77625 9.77271 9.87815 9.79301 9.97322 9.83242C10.0683 9.87183 10.1547 9.92958 10.2274 10.0024C10.3002 10.0752 10.3579 10.1616 10.3972 10.2567C10.4366 10.3518 10.4568 10.4537 10.4568 10.5566C10.4568 10.6595 10.4365 10.7614 10.3971 10.8565C10.3577 10.9516 10.2999 11.0379 10.2271 11.1107C10.1543 11.1834 10.0679 11.2411 9.97284 11.2805C9.87774 11.3199 9.77583 11.3401 9.67291 11.3401C9.47103 11.3413 9.27659 11.264 9.13068 11.1245C8.98477 10.9849 8.89883 10.7941 8.89103 10.5924C8.88987 10.5565 8.88612 10.4612 8.80521 10.4612C8.76841 10.4654 8.73454 10.4833 8.71026 10.5112C8.61025 10.6177 8.47205 10.6801 8.32605 10.6847C8.23888 10.6829 8.15288 10.6643 8.0728 10.6298C7.62653 10.4486 7.6204 10.1422 7.63842 10.0189C7.64281 10.0031 7.64362 9.98647 7.6408 9.97027C7.63798 9.95407 7.63159 9.9387 7.62209 9.92528ZM10.4125 13.3287C5.10227 13.3287 0.79758 10.5748 0.79758 7.17778C0.798405 7.04199 0.806139 6.90633 0.820752 6.77133C0.863147 6.78146 1.28488 6.88229 1.37222 6.90193C3.96219 7.47728 4.81803 8.07543 4.96265 8.18854C4.90115 8.336 4.87702 8.49637 4.89239 8.6554C4.90777 8.81443 4.96217 8.96721 5.05077 9.10016C5.13938 9.23311 5.25944 9.34213 5.4003 9.41753C5.54116 9.49293 5.69846 9.53238 5.85824 9.53239C5.91794 9.53249 5.97753 9.52698 6.03621 9.51593C6.07446 9.70827 6.16206 9.88735 6.29041 10.0356C6.41876 10.1839 6.58345 10.2962 6.76831 10.3616C6.87849 10.4049 6.99569 10.4275 7.11405 10.4283C7.18855 10.4288 7.2628 10.4196 7.33496 10.401C7.4239 10.5882 7.5628 10.7473 7.73635 10.8605C7.9099 10.9738 8.11136 11.037 8.31852 11.0431C8.41961 11.0431 8.51989 11.0252 8.61473 10.9902C8.68655 11.1659 8.80106 11.321 8.94788 11.4414C9.0947 11.5617 9.26921 11.6436 9.45563 11.6796C9.64205 11.7156 9.8345 11.7045 10.0156 11.6474C10.1966 11.5903 10.3606 11.489 10.4927 11.3526C10.7881 11.5247 11.1203 11.6239 11.4617 11.6419C11.5107 11.6418 11.5596 11.6387 11.6083 11.6326C11.7343 11.6288 11.8581 11.5981 11.9714 11.5427C12.0846 11.4873 12.1848 11.4084 12.2652 11.3112C12.2804 11.2903 12.2939 11.2683 12.3057 11.2454C12.4064 11.276 12.5108 11.2924 12.616 11.2939C12.8435 11.2893 13.0632 11.2108 13.242 11.0701C13.4308 10.9462 13.5634 10.7532 13.6114 10.5326C13.6119 10.5301 13.6121 10.5277 13.6123 10.5252C13.6813 10.5393 13.7515 10.5463 13.8219 10.5463C14.0517 10.5435 14.2756 10.4725 14.465 10.3423C14.6092 10.2588 14.7281 10.1379 14.8093 9.99242C14.8905 9.84695 14.931 9.68228 14.9265 9.51574C14.9964 9.53027 15.0675 9.53767 15.1389 9.5378C15.3534 9.53548 15.5626 9.47108 15.7412 9.35238C15.8599 9.27985 15.9598 9.18026 16.0327 9.06176C16.1056 8.94326 16.1494 8.80921 16.1605 8.67054C16.1748 8.47757 16.1282 8.28499 16.0275 8.11981C17.3194 7.5925 18.6533 7.17475 20.0152 6.87098C20.0231 6.97272 20.0274 7.07502 20.0274 7.17798C20.0274 10.5748 15.7227 13.3287 10.4126 13.3287L10.4125 13.3287Z" fill="black" fill-opacity="0.55"/>
</svg>
