<svg width="32" height="32" viewBox="0 0 32 32" fill="none" xmlns="http://www.w3.org/2000/svg">
<path d="M8.82895 20.8557C8.66173 21.0178 8.50312 21.1756 8.34013 21.3285C8.11607 21.5388 7.87047 21.7162 7.58215 21.8234C6.88387 22.083 6.25908 21.7492 6.0585 21.0167C5.9694 20.6913 5.98063 20.3656 6.03401 20.0392C6.09025 19.6954 6.14059 19.3491 6.22411 19.0119C6.30983 18.6658 6.4274 18.3274 6.54057 17.989C6.68583 17.5545 6.8359 17.1215 6.99307 16.6913C7.09239 16.4195 7.08851 16.1398 7.07483 15.8598C7.06055 15.5688 7.19551 15.4043 7.47573 15.4198C7.70368 15.4323 7.92909 15.4643 8.10256 15.6484C8.30499 15.8633 8.37104 16.1208 8.29832 16.4001C8.16049 16.9298 7.99851 17.4529 7.85519 17.9812C7.73822 18.4122 7.62564 18.8448 7.52835 19.2809C7.49474 19.4317 7.496 19.5964 7.51137 19.7516C7.54169 20.0573 7.78526 20.2105 8.05661 20.0816C8.21404 20.0069 8.36192 19.8905 8.48454 19.763C8.87295 19.3593 9.09473 18.8528 9.28036 18.3276C9.34556 18.1431 9.41304 17.9595 9.4774 17.7748C9.6224 17.3584 9.77045 16.9431 9.90887 16.5245C10.0265 16.1687 10.128 15.8073 10.2446 15.4512C10.4327 14.8759 11.0269 14.3887 11.6305 14.4221C11.9436 14.4395 12.0131 14.5733 11.9565 14.8446C11.8516 15.3462 11.7202 15.8425 11.5856 16.337C10.987 18.5362 10.3833 20.7338 9.78169 22.9321C9.76859 22.98 9.75854 23.0289 9.74841 23.0719C11.8438 22.7223 13.9332 22.3735 16.0419 22.0216C16.1264 21.5652 16.2144 21.0899 16.3105 20.5712C16.2272 20.6243 16.178 20.6565 16.1281 20.6873C15.9062 20.8246 15.6781 20.9467 15.4189 20.9939C14.9616 21.0774 14.6225 20.8651 14.4846 20.4071C14.4657 20.3442 14.4506 20.2799 14.428 20.1949C14.3434 20.3485 14.2753 20.4882 14.1931 20.6186C13.9588 20.9902 13.6608 21.2779 13.2221 21.3776C12.5792 21.5236 11.9514 21.1796 11.7254 20.5444C11.6 20.1918 11.5468 19.8227 11.534 19.4487C11.4981 18.3991 11.7587 17.4118 12.1368 16.4489C12.3161 15.9923 12.5351 15.5594 12.8265 15.1674C13.047 14.8709 13.2926 14.6006 13.5901 14.3818C14.0698 14.0292 14.7722 13.972 15.3328 14.5023C15.3677 14.3964 15.4026 14.2985 15.4322 14.1989C15.5105 13.9363 15.7188 13.8636 15.9806 13.9002C16.0834 13.9146 16.1859 13.943 16.2843 13.9778C16.4803 14.047 16.5864 14.1978 16.5881 14.4069C16.5893 14.544 16.5659 14.6833 16.5376 14.8181C16.3188 15.8605 16.0876 16.9003 15.8796 17.9449C15.8135 18.2768 15.8041 18.6209 15.7741 18.9598C15.7681 19.0276 15.7791 19.0995 15.7949 19.1663C15.8348 19.3336 15.9079 19.3763 16.0633 19.3105C16.1759 19.2629 16.2843 19.2008 16.3866 19.1326C16.5489 19.0244 16.6315 18.8697 16.6685 18.6682C16.9475 17.1488 17.236 15.6312 17.5216 14.113C17.5251 14.0945 17.5311 14.0763 17.5349 14.0579C17.6226 13.6383 17.7763 13.6354 18.1192 13.6821C18.2443 13.6991 18.3677 13.74 18.4878 13.7822C18.6406 13.8356 18.6796 13.909 18.6626 14.0782C18.6526 14.1787 18.6391 14.279 18.6614 14.39C18.7478 14.283 18.8321 14.174 18.921 14.0692C19.0332 13.9371 19.1336 13.7879 19.2663 13.6822C19.6288 13.3934 20.0456 13.3172 20.4897 13.4271C20.7953 13.5027 20.9811 13.7219 21.1023 14.0088C21.292 14.4577 21.3461 14.9327 21.358 15.4148C21.38 16.3075 21.1868 17.165 20.9384 18.0112C20.7964 18.4953 20.6218 18.969 20.3609 19.4002C20.2189 19.635 20.0646 19.8678 19.8831 20.0707C19.1284 20.9143 18.157 20.6237 17.6271 20.1217C17.5872 20.0839 17.5514 20.0414 17.4792 19.9644C17.3848 20.617 17.2963 21.2287 17.2034 21.8705C17.382 21.8493 17.5316 21.8324 17.681 21.8137C18.8776 21.6632 20.0738 21.5083 21.2712 21.3635C21.8149 21.2977 22.36 21.24 22.906 21.2012C23.1928 21.1808 23.4841 21.1938 23.7712 21.2183C24.2354 21.2581 24.4412 21.7127 24.3412 22.1125C24.2959 22.2935 24.1764 22.4256 23.9892 22.464C23.6579 22.5317 23.3271 22.6078 22.9926 22.6516C21.51 22.8456 20.026 23.0282 18.5428 23.2176C18.0667 23.2784 17.5921 23.3515 17.1158 23.4101C17.0131 23.4228 16.9705 23.4583 16.9451 23.562C16.8988 23.7509 16.8394 23.9376 16.7708 24.1194C16.7022 24.3015 16.5749 24.4404 16.4078 24.5344C16.1194 24.6966 15.7962 24.5462 15.7486 24.2115C15.7215 24.0213 15.7437 23.8236 15.7437 23.6089C15.4657 23.6492 15.1997 23.6797 14.9366 23.7274C13.1627 24.0486 11.3932 24.392 9.63972 24.8175C9.49049 24.8538 9.30688 24.8581 9.20553 24.9524C9.10503 25.046 9.08341 25.2328 9.03586 25.3816C8.76578 26.2275 8.46681 27.0614 8.06844 27.8544C7.63974 28.7077 7.12339 29.4964 6.4415 30.1604C6.02379 30.5671 5.55033 30.8723 4.96911 30.9727C3.94476 31.1497 3.07665 30.4484 3.00537 29.3811C2.97134 28.8721 3.10402 28.394 3.26127 27.9193C3.46185 27.3143 3.76327 26.7646 4.14011 26.2609C4.33959 25.9943 4.55199 25.7288 4.79801 25.5094C5.66097 24.7401 6.58499 24.0639 7.67665 23.6677C7.74033 23.6446 7.81102 23.6289 7.8633 23.589C7.92824 23.5394 8.00535 23.4777 8.02925 23.4048C8.30204 22.5742 8.56579 21.7404 8.83106 20.9071C8.83655 20.8909 8.82988 20.8707 8.82895 20.8557ZM7.41788 25.45C7.3662 25.4692 7.3124 25.4839 7.26316 25.5083C6.46523 25.9046 5.77828 26.4456 5.23101 27.1653C4.88914 27.6151 4.5862 28.0901 4.43072 28.6444C4.38401 28.8109 4.36172 28.9922 4.36839 29.1652C4.37903 29.441 4.6074 29.5922 4.86329 29.5065C4.9665 29.472 5.06522 29.4137 5.15576 29.3508C5.43902 29.1539 5.66409 28.8939 5.87151 28.6185C6.34792 27.9861 6.71708 27.288 7.03091 26.56C7.1842 26.2044 7.30268 25.833 7.43688 25.4689C7.44389 25.4612 7.4509 25.4535 7.45791 25.4459C7.44457 25.4473 7.43123 25.4486 7.41788 25.45ZM20.0977 15.7527C20.0755 15.6215 20.059 15.3987 19.9976 15.1897C19.8883 14.8174 19.6386 14.7298 19.3378 14.9682C19.1665 15.104 19.0022 15.2748 18.8959 15.4656C18.7296 15.7642 18.5913 16.0848 18.4835 16.4108C18.2088 17.2412 18.0314 18.0986 17.8591 18.9567C17.837 19.067 17.8611 19.1453 17.9565 19.1911C18.0387 19.2307 18.1255 19.2736 18.2137 19.2843C18.5629 19.3266 18.8629 19.1984 19.0868 18.9331C19.2414 18.75 19.3768 18.5381 19.4723 18.317C19.621 17.9727 19.7386 17.6129 19.8511 17.2537C19.9946 16.7957 20.0671 16.3224 20.0977 15.7527ZM15.1135 15.8569C15.1223 15.4789 14.9235 15.3136 14.6345 15.3889C14.5578 15.4089 14.4835 15.4419 14.411 15.4753C13.991 15.6691 13.6881 15.9936 13.4598 16.3946C13.1264 16.9801 12.9313 17.6144 12.8677 18.2882C12.8374 18.61 12.8536 18.9325 12.9734 19.2391C13.0006 19.3088 13.0319 19.379 13.0737 19.4401C13.2782 19.7387 13.5953 19.7654 13.8413 19.5013C14.0623 19.2638 14.199 18.9703 14.2977 18.6654C14.5318 17.9422 14.7513 17.214 14.9681 16.4851C15.036 16.2569 15.0763 16.02 15.1135 15.8569Z" fill="#742385"/>
<path d="M16.2702 1C18.3238 1.12815 19.9466 2.09839 20.8356 4.15125C21.726 6.20723 21.1229 8.63483 19.43 10.0703C18.356 10.981 17.1175 11.3818 15.7326 11.3089C15.3143 11.2868 14.9 11.2129 14.5051 11.0647C14.3123 10.9924 14.145 11.012 13.9809 11.1222C13.7339 11.288 13.4892 11.4574 13.2431 11.6247C13.0893 11.7293 12.9356 11.8341 12.7803 11.9363C12.7287 11.9702 12.6736 11.9997 12.6176 12.0253C12.3604 12.1429 12.2405 12.0739 12.2305 11.7883C12.2246 11.6187 12.2348 11.447 12.2553 11.2784C12.2972 10.9339 12.3486 10.5907 12.4006 10.2476C12.4447 9.95693 12.3803 9.7217 12.1832 9.48542C11.329 8.46211 10.9413 7.26661 11.005 5.91824C11.0535 4.89016 11.4071 3.97333 11.9842 3.14546C12.1539 2.90199 12.3642 2.68453 12.5754 2.47583C13.4119 1.64865 14.424 1.19916 15.5675 1.04786C15.7683 1.02124 15.9725 1.01942 16.2702 1ZM15.0812 8.74504C15.2823 8.69882 15.5491 8.66865 15.7927 8.57492C16.3042 8.3781 16.5815 7.84754 16.4863 7.31421C16.4323 7.01186 16.2711 6.78322 16.029 6.60833C15.6982 6.36946 15.3209 6.23376 14.9499 6.08125C14.7576 6.00217 14.5599 5.91573 14.3959 5.78965C14.0564 5.52884 14.12 5.08638 14.5095 4.91149C14.8339 4.76583 15.1477 4.81534 15.4447 4.9969C15.6309 5.11074 15.7409 5.27705 15.7455 5.50751C15.7466 5.55728 15.7552 5.60826 15.7685 5.6563C15.8161 5.82789 15.9537 5.93142 16.1073 5.91572C16.2735 5.89873 16.4023 5.76685 16.4059 5.58589C16.4149 5.12947 16.2578 4.75013 15.8578 4.5227C15.315 4.21411 14.7437 4.17718 14.1694 4.4229C13.8305 4.56788 13.6069 4.82721 13.561 5.21635C13.5113 5.63878 13.6279 5.99749 13.9869 6.2348C14.1821 6.36391 14.3941 6.46813 14.6045 6.57079C14.8152 6.67354 15.0378 6.75097 15.2464 6.85753C15.3824 6.92698 15.5179 7.01238 15.6265 7.11964C15.8028 7.29383 15.857 7.52257 15.7852 7.7643C15.7156 7.99919 15.5122 8.05442 15.307 8.08876C15.2163 8.10393 15.1229 8.10679 15.0309 8.10636C14.4421 8.10358 14.1489 7.83393 14.0803 7.23531C14.0556 7.01958 13.9192 6.89299 13.7261 6.9066C13.5402 6.9197 13.4105 7.07429 13.426 7.28872C13.4708 7.90997 13.8031 8.48006 14.5072 8.65634C14.6736 8.69796 14.8469 8.70983 15.0812 8.74504ZM19.3784 4.5977C19.3748 4.42438 19.3142 4.32787 19.1984 4.27143C19.0871 4.21715 18.9427 4.2416 18.8572 4.33446C18.8116 4.38397 18.776 4.44519 18.7438 4.50553C18.1088 5.69532 17.4749 6.88571 16.8413 8.07619C16.8118 8.1315 16.7799 8.18656 16.7595 8.24544C16.7121 8.38217 16.7654 8.53096 16.8835 8.60969C17.0009 8.68807 17.1565 8.67819 17.258 8.577C17.301 8.53391 17.3352 8.47885 17.3645 8.42414C18.0147 7.20695 18.664 5.98934 19.3118 4.77077C19.3462 4.70583 19.3653 4.6323 19.3784 4.5977Z" fill="#00D0B6"/>
<path d="M21.4489 18.1666C21.472 17.7501 21.4543 17.409 21.5179 17.0848C21.6054 16.6388 21.7314 16.197 21.8822 15.7687C22.1404 15.0353 22.4824 14.3388 22.9708 13.7378C23.2086 13.445 23.4911 13.1776 23.7935 12.9567C24.1191 12.7189 24.5158 12.6838 24.9132 12.7341C25.1527 12.7645 25.3775 12.831 25.5706 12.989C25.8066 13.1823 25.9359 13.4311 25.9815 13.7379C26.032 14.0785 25.9743 14.4029 25.869 14.7202C25.4422 16.0056 24.5901 16.817 23.2988 17.1336C23.2809 17.138 23.2622 17.1496 23.2454 17.1472C22.9987 17.1112 22.9402 17.2837 22.8852 17.4751C22.8035 17.7588 22.7669 18.0424 22.8362 18.334C22.9115 18.6509 23.1532 18.8183 23.4705 18.7685C23.8294 18.7122 24.1305 18.5254 24.4 18.2923C24.6199 18.1021 24.826 17.8917 25.0183 17.6719C25.304 17.3452 25.4708 17.3649 25.6456 17.7698C25.658 17.7986 25.6687 17.8283 25.682 17.8567C25.8612 18.2389 25.8039 18.5529 25.494 18.8594C24.9957 19.3522 24.4899 19.8269 23.8361 20.089C23.598 20.1845 23.345 20.2681 23.0928 20.2935C22.3934 20.3641 21.8503 19.9855 21.6154 19.2977C21.5709 19.1673 21.5301 19.0321 21.5132 18.8958C21.4802 18.6269 21.4648 18.3556 21.4489 18.1666ZM23.2371 15.8976C23.2489 15.914 23.2608 15.9304 23.2726 15.9468C23.4368 15.8836 23.6085 15.8357 23.7637 15.7544C24.2132 15.5188 24.585 15.1987 24.7653 14.6931C24.8209 14.5374 24.8556 14.3771 24.8089 14.2112C24.7618 14.0443 24.634 13.9501 24.4731 14.0001C24.3544 14.037 24.2289 14.1019 24.1432 14.1914C23.6839 14.6713 23.4267 15.2669 23.2371 15.8976Z" fill="#742385"/>
</svg>
