<svg width="141" height="55" viewBox="0 0 141 55" fill="none" xmlns="http://www.w3.org/2000/svg">
<rect width="140.4" height="54.03" rx="27.015" fill="#FFE600"/>
<path d="M33.5138 12.9961C22.0944 12.9961 12.838 18.9176 12.838 26.2228C12.838 33.528 22.0944 40.0229 33.5138 40.0229C44.9333 40.0229 54.1893 33.5274 54.1893 26.2228C54.1893 18.9181 44.9327 12.9961 33.5138 12.9961Z" fill="#00BCFF"/>
<path d="M26.7863 22.1359C26.7759 22.1561 26.5739 22.3651 26.7049 22.5331C27.0244 22.9416 28.0121 23.1757 29.0108 22.9516C29.6055 22.8182 30.3675 22.2117 31.1059 21.626C31.8108 20.9858 32.6194 20.4702 33.4972 20.1013C34.058 19.896 34.6706 19.88 35.2413 20.0557C35.8208 20.271 36.3587 20.5849 36.8312 20.9834C38.2173 22.0257 43.791 26.8908 44.7543 27.7316C47.7138 26.5009 50.7777 25.5384 53.9093 24.8557C53.502 22.3584 52 19.9778 49.6957 18.1071C46.4838 19.4561 42.297 20.2638 38.4592 18.3898C37.1551 17.7995 35.7452 17.4789 34.3141 17.4473C31.2692 17.5181 29.9502 18.8357 28.5543 20.2305L26.7863 22.1359Z" fill="white"/>
<path d="M44.528 28.2605C44.4623 28.2018 37.9744 22.5246 36.5042 21.4198C35.992 20.9642 35.3604 20.6643 34.6837 20.5554C34.3923 20.5322 34.0991 20.5604 33.8175 20.6387C32.9495 20.9656 32.1464 21.4442 31.4458 22.052C30.6243 22.7068 29.8493 23.323 29.1297 23.4843C28.2602 23.6629 27.3555 23.527 26.5769 23.1007C26.3946 22.9892 26.2477 22.8282 26.1532 22.6365C26.1012 22.4896 26.0941 22.3306 26.1327 22.1796C26.1714 22.0287 26.254 21.8926 26.3702 21.7888L28.1609 19.852C28.3693 19.6445 28.5785 19.4364 28.7937 19.232C28.2415 19.315 27.6959 19.4379 27.1614 19.5996C26.5459 19.8041 25.9053 19.9235 25.2574 19.9547C24.6045 19.8886 23.9557 19.7872 23.3138 19.6509C21.3998 19.2018 19.5315 18.5766 17.7327 17.7832C15.187 19.6782 13.5294 22.0048 13.0375 24.6145C13.4033 24.7111 14.3617 24.9296 14.6094 24.9846C20.3702 26.2653 22.1642 27.5847 22.4897 27.8603C22.6811 27.6449 22.9189 27.4756 23.1852 27.3653C23.4515 27.255 23.7393 27.2064 24.027 27.2234C24.3147 27.2403 24.5949 27.3223 24.8464 27.4631C25.0978 27.6039 25.3141 27.7999 25.4789 28.0364C25.8675 27.7223 26.3523 27.5517 26.8519 27.5533C27.1326 27.556 27.4109 27.6047 27.6758 27.6976C27.9325 27.7797 28.1688 27.9156 28.3687 28.0963C28.5687 28.277 28.7278 28.4983 28.8354 28.7454C29.0871 28.6314 29.3605 28.5732 29.6369 28.5749C29.9674 28.5791 30.2936 28.6511 30.5952 28.7863C31.0146 28.9829 31.3548 29.316 31.5603 29.7312C31.7657 30.1463 31.8241 30.6189 31.726 31.0716C31.8022 31.0634 31.8788 31.0593 31.9554 31.0595C32.5609 31.0604 33.1413 31.3015 33.5693 31.7297C33.9974 32.1579 34.2381 32.7384 34.2388 33.3439C34.2388 33.7205 34.1449 34.0911 33.9656 34.4222C34.5618 34.7866 35.2506 34.9711 35.9491 34.9534C36.1233 34.9535 36.2956 34.9176 36.4552 34.848C36.6149 34.7784 36.7585 34.6765 36.8769 34.5488C36.9344 34.4679 36.9943 34.3732 36.9386 34.3049L35.313 32.4997C35.313 32.4997 35.0456 32.2466 35.134 32.1491C35.2253 32.0486 35.3907 32.1926 35.5081 32.2905C36.335 32.9811 37.3447 34.0238 37.3447 34.0238C37.3624 34.0352 37.4288 34.1673 37.8023 34.2343C38.0255 34.2732 38.2544 34.2667 38.4751 34.2152C38.6958 34.1637 38.9039 34.0683 39.0869 33.9347C39.1906 33.8479 39.2853 33.751 39.3697 33.6453C39.364 33.651 39.3577 33.656 39.3508 33.6601C39.4647 33.5026 39.5221 33.3112 39.5136 33.117C39.5052 32.9228 39.4314 32.7371 39.3043 32.5901L37.4067 30.4592C37.4067 30.4592 37.1351 30.2078 37.2283 30.1078C37.3106 30.02 37.4849 30.1523 37.6041 30.251C38.2046 30.7534 39.0535 31.6047 39.8671 32.4024C40.1383 32.5858 40.4607 32.6785 40.7879 32.6672C41.1152 32.6559 41.4304 32.541 41.6882 32.3393C41.8994 32.2227 42.0742 32.0498 42.1931 31.8399C42.312 31.6299 42.3703 31.3911 42.3617 31.15C42.3207 30.8486 42.1796 30.5696 41.961 30.358L39.3697 27.7517C39.3697 27.7517 39.0953 27.5178 39.1925 27.3998C39.2719 27.3002 39.4486 27.4434 39.5659 27.5409C40.3911 28.2319 42.6261 30.2815 42.6261 30.2815C42.8895 30.4515 43.1975 30.539 43.5109 30.5327C43.8243 30.5265 44.1286 30.4269 44.385 30.2465C44.5497 30.1502 44.6883 30.0152 44.7889 29.8531C44.8896 29.691 44.9491 29.5068 44.9624 29.3165C44.97 29.1197 44.9352 28.9234 44.8603 28.7412C44.7853 28.559 44.672 28.395 44.528 28.2605Z" fill="white"/>
<path d="M31.9551 31.5643C31.6507 31.607 31.3501 31.6736 31.0561 31.7635C31.0241 31.7428 31.0807 31.5812 31.1181 31.4881C31.1572 31.3959 31.6864 29.803 30.396 29.2502C30.1072 29.0953 29.7762 29.0377 29.4521 29.086C29.128 29.1344 28.8281 29.286 28.5971 29.5184C28.5431 29.5748 28.5186 29.5701 28.5126 29.4989C28.5049 29.2015 28.4043 28.914 28.2249 28.6767C28.0455 28.4394 27.7963 28.2642 27.5122 28.1757C27.11 28.0519 26.6785 28.0614 26.282 28.2027C25.8855 28.344 25.5454 28.6097 25.3121 28.96C25.2706 28.6459 25.1243 28.3551 24.8971 28.1344C24.6698 27.9136 24.3748 27.776 24.0596 27.7437C23.7445 27.7114 23.4276 27.7862 23.1603 27.9562C22.8929 28.1262 22.6907 28.3813 22.5863 28.6804C22.4818 28.9795 22.4812 29.305 22.5847 29.6045C22.6881 29.9039 22.8894 30.1598 23.1562 30.3306C23.423 30.5015 23.7396 30.5775 24.0548 30.5462C24.3701 30.515 24.6656 30.3783 24.8936 30.1584C24.9018 30.1659 24.9049 30.1791 24.9008 30.2059C24.8054 30.6422 24.8702 31.0984 25.0835 31.4909C25.2968 31.8834 25.6443 32.1859 26.0624 32.3432C26.2882 32.4303 26.5329 32.4567 26.7722 32.4198C27.0114 32.3829 27.2368 32.2839 27.4258 32.1328C27.5379 32.054 27.556 32.0871 27.5402 32.1927C27.4922 32.5193 27.5533 33.2189 28.5341 33.6161C28.7771 33.7351 29.052 33.7727 29.3181 33.7233C29.5841 33.6738 29.8271 33.54 30.0111 33.3416C30.1374 33.2272 30.1718 33.2458 30.1783 33.4234C30.1941 33.7713 30.3117 34.107 30.5166 34.3886C30.7214 34.6703 31.0044 34.8857 31.3305 35.008C31.6567 35.1302 32.0115 35.1541 32.351 35.0765C32.6906 34.9989 32.9999 34.8233 33.2405 34.5716C33.4812 34.3198 33.6426 34.0029 33.7048 33.6602C33.7669 33.3175 33.7271 32.9641 33.5903 32.6438C33.4534 32.3236 33.2255 32.0506 32.9348 31.8586C32.6442 31.6667 32.3036 31.5644 31.9553 31.5643H31.9551Z" fill="white"/>
<path d="M33.5102 12.4492C21.8732 12.4492 12.4402 18.6386 12.4402 26.2304C12.4402 26.4267 12.4379 26.9684 12.4379 27.0371C12.4379 35.092 20.6828 41.6147 33.5075 41.6147C46.4097 41.6147 54.5795 35.0934 54.5795 27.0386V26.2304C54.5793 18.6386 45.1462 12.4492 33.5102 12.4492ZM53.6295 24.7031C50.5935 25.3749 47.6295 26.3384 44.7787 27.5802C42.7797 25.8361 38.1609 21.8197 36.9101 20.8812C36.4252 20.4733 35.8734 20.1522 35.2792 19.9321C35.0202 19.8505 34.7504 19.8083 34.4789 19.8071C34.1332 19.8117 33.7903 19.8694 33.4622 19.9784C32.5837 20.3431 31.7742 20.8556 31.0689 21.4937L31.0287 21.5254C30.3029 22.1025 29.5527 22.6995 28.985 22.8257C28.7367 22.8818 28.4829 22.9102 28.2283 22.9105C27.9729 22.9318 27.7158 22.9024 27.4718 22.8239C27.2279 22.7454 27.0018 22.6194 26.8067 22.4531C26.7714 22.4078 26.7947 22.3349 26.877 22.23L26.8876 22.2157L28.6465 20.321C30.0237 18.9437 31.3247 17.6433 34.3187 17.5746C34.3686 17.5731 34.4189 17.5722 34.4681 17.5722C35.8279 17.6277 37.1644 17.9442 38.4047 18.5046C40.0711 19.3375 41.9062 19.7776 43.7691 19.7911C45.807 19.7559 47.8126 19.2763 49.6459 18.3857C51.782 20.1822 53.1988 22.3458 53.6295 24.7031ZM33.5138 13.263C39.6904 13.263 45.2174 15.0334 48.9332 17.8217C47.312 18.5622 45.5554 18.9604 43.7733 18.9914C42.0298 18.9772 40.3128 18.5639 38.7538 17.7832C37.4059 17.168 35.9501 16.824 34.4694 16.7709C34.4131 16.7709 34.3562 16.7718 34.3005 16.773C32.5169 16.7469 30.7833 17.3624 29.4155 18.5073C28.5874 18.5507 27.7682 18.7002 26.9781 18.9522C26.4228 19.1375 25.8453 19.2481 25.2608 19.2813C25.0405 19.2813 24.6443 19.2611 24.6087 19.2596C22.5073 18.8896 20.4462 18.3192 18.4536 17.5562C22.1619 14.9209 27.5345 13.263 33.5138 13.263ZM17.7245 18.1063C20.2944 19.1574 23.4121 19.9691 24.398 20.033C24.673 20.051 24.9661 20.0821 25.2592 20.0828C25.9186 20.0508 26.5707 19.9296 27.1976 19.7226C27.5708 19.618 27.9824 19.5038 28.4156 19.4212C28.2996 19.5344 28.1844 19.6494 28.0684 19.7656L26.2822 21.6979C26.1464 21.8183 26.0503 21.9771 26.0066 22.1533C25.9629 22.3295 25.9737 22.5148 26.0376 22.6847C26.1413 22.8997 26.3042 23.0805 26.5072 23.2059C27.0851 23.5325 27.7397 23.6986 28.4034 23.6869C28.6576 23.6887 28.9113 23.6622 29.1597 23.6078C29.9088 23.4401 30.6945 22.814 31.5263 22.1524C32.2155 21.5574 33.0026 21.0865 33.8527 20.7605C34.0644 20.7042 34.2822 20.6744 34.5012 20.6716C34.5573 20.6711 34.6133 20.6745 34.6689 20.6816C35.3231 20.789 35.9334 21.0802 36.4285 21.5211C37.8951 22.6232 44.3837 28.2997 44.4476 28.3557C44.5765 28.4779 44.6779 28.6262 44.7451 28.7906C44.8122 28.955 44.8436 29.1318 44.8372 29.3093C44.8254 29.4794 44.7719 29.6441 44.6814 29.7887C44.5909 29.9333 44.4663 30.0534 44.3184 30.1383C44.0661 30.3069 43.7705 30.3991 43.4672 30.4036C43.2008 30.4039 42.9399 30.3283 42.7149 30.1858C42.6912 30.1662 40.4681 28.1275 39.6493 27.4423C39.5469 27.3341 39.4121 27.2621 39.2652 27.2372C39.2326 27.2366 39.2003 27.2435 39.1708 27.2574C39.1413 27.2712 39.1154 27.2918 39.0951 27.3173C38.9664 27.4758 39.1106 27.6957 39.2806 27.8398L41.8775 30.4515C42.0712 30.6402 42.1975 30.8874 42.2368 31.1549C42.2435 31.3738 42.1894 31.5903 42.0806 31.7803C41.9718 31.9703 41.8124 32.1265 41.6202 32.2315C41.3502 32.4218 41.0298 32.5277 40.6995 32.5359C40.4357 32.5359 40.1779 32.4576 39.9586 32.3109L39.5862 31.9441C38.9051 31.2742 38.202 30.5812 37.6875 30.152C37.5835 30.0449 37.4477 29.9744 37.3003 29.951C37.2697 29.9505 37.2393 29.9564 37.2111 29.9685C37.1829 29.9805 37.1575 29.9984 37.1368 30.0209C37.0781 30.0862 37.0371 30.2032 37.1842 30.3977C37.2237 30.4499 37.2676 30.4988 37.3152 30.5438L39.2098 32.6725C39.3192 32.7964 39.3831 32.954 39.391 33.1191C39.3988 33.2843 39.3501 33.4472 39.2529 33.5809L39.1857 33.6656C39.1302 33.7257 39.0712 33.7825 39.0091 33.8358C38.741 34.0326 38.4155 34.1357 38.083 34.1292C37.9972 34.1296 37.9115 34.1224 37.8269 34.1076C37.6887 34.0967 37.5577 34.0415 37.4534 33.9502L37.4297 33.9262C37.3267 33.8192 36.3715 32.844 35.5814 32.1842C35.4833 32.0799 35.3538 32.0107 35.2126 31.9871C35.1802 31.9868 35.1482 31.9934 35.1186 32.0066C35.0891 32.0197 35.0627 32.0391 35.0413 32.0633C34.8854 32.2346 35.1201 32.4904 35.2196 32.5843L36.8351 34.3673C36.8213 34.4067 36.8009 34.4435 36.7747 34.476C36.7167 34.5561 36.5209 34.7523 35.9346 34.8258C35.8634 34.8349 35.7917 34.8392 35.72 34.8388C35.1639 34.8031 34.6229 34.6426 34.1372 34.3693C34.3103 34.002 34.3878 33.5968 34.3625 33.1915C34.3372 32.7862 34.21 32.3939 33.9926 32.0509C33.7751 31.7079 33.4746 31.4254 33.1188 31.2296C32.7631 31.0338 32.3636 30.9311 31.9575 30.9309C31.9292 30.9309 31.8989 30.9317 31.8705 30.9327C31.9397 30.4737 31.8578 30.0047 31.6372 29.5963C31.4166 29.188 31.0692 28.8624 30.6474 28.6686C30.3302 28.5263 29.987 28.4507 29.6394 28.4465C29.3868 28.4452 29.1362 28.4907 28.9002 28.5804C28.6545 28.1035 28.2302 27.7432 27.7197 27.5781C27.4417 27.4796 27.1492 27.4281 26.8543 27.4258C26.3706 27.4231 25.8986 27.5743 25.5065 27.8576C25.3283 27.6337 25.1048 27.45 24.8506 27.3185C24.5964 27.187 24.3173 27.1107 24.0316 27.0946C23.7459 27.0785 23.46 27.123 23.1926 27.2251C22.9253 27.3272 22.6826 27.4846 22.4803 27.6871C21.977 27.3025 19.9812 26.0347 14.6389 24.8218C14.3837 24.764 13.8044 24.5981 13.4396 24.4911C13.9408 22.0931 15.4646 19.9031 17.7246 18.1063H17.7245ZM27.634 32.0127L27.5762 31.9611H27.5178C27.4578 31.9655 27.4007 31.9886 27.3544 32.0272C27.1249 32.2038 26.8454 32.3033 26.5559 32.3113C26.4033 32.3101 26.2523 32.2808 26.1104 32.2248C25.7183 32.0785 25.3927 31.7948 25.194 31.4265C24.9953 31.0582 24.9371 30.6303 25.0301 30.2222C25.0365 30.1926 25.0348 30.1617 25.0253 30.1329C25.0158 30.1041 24.9988 30.0783 24.976 30.0583L24.8886 29.9869L24.8068 30.0648C24.5688 30.296 24.25 30.4252 23.9181 30.425C23.6706 30.426 23.4281 30.3555 23.2196 30.2221C23.0112 30.0886 22.8457 29.8978 22.743 29.6726C22.6404 29.4473 22.6049 29.1973 22.641 28.9524C22.677 28.7075 22.7829 28.4782 22.9461 28.2921C23.1092 28.1059 23.3226 27.9708 23.5607 27.903C23.7987 27.8352 24.0513 27.8376 24.288 27.9098C24.5248 27.9821 24.7356 28.1211 24.8953 28.3103C25.0549 28.4994 25.1566 28.7306 25.188 28.9761L25.2323 29.3214L25.422 29.0292C25.6357 28.6975 25.9533 28.4459 26.325 28.3136C26.6968 28.1813 27.1018 28.1758 27.4771 28.2979C27.7362 28.3793 27.9634 28.5398 28.1266 28.7569C28.2898 28.9741 28.3809 29.2369 28.387 29.5085C28.4009 29.6759 28.5201 29.6841 28.5432 29.6841C28.572 29.6821 28.6001 29.6742 28.6258 29.6607C28.6514 29.6473 28.6739 29.6288 28.692 29.6062C28.8143 29.4787 28.9613 29.3774 29.124 29.3087C29.2868 29.24 29.4618 29.2053 29.6385 29.2066C29.8832 29.212 30.1244 29.2665 30.3478 29.3668C31.5583 29.8861 31.0093 31.4245 31.0029 31.4402C30.8985 31.6951 30.8944 31.8077 30.9922 31.8727L31.0399 31.8952H31.0754C31.1561 31.8861 31.2351 31.8654 31.3099 31.8338C31.5162 31.7523 31.7341 31.7042 31.9555 31.6912H31.9561C32.173 31.6913 32.3877 31.7341 32.588 31.8171C32.7884 31.9001 32.9704 32.0218 33.1237 32.1752C33.277 32.3286 33.3986 32.5107 33.4815 32.711C33.5644 32.9114 33.6071 33.1261 33.607 33.343C33.607 33.5598 33.5642 33.7746 33.4811 33.9749C33.3981 34.1752 33.2764 34.3572 33.123 34.5105C32.9697 34.6638 32.7876 34.7854 32.5872 34.8683C32.3869 34.9513 32.1721 34.9939 31.9553 34.9939C31.5299 34.9964 31.1202 34.8335 30.8127 34.5395C30.5053 34.2455 30.3242 33.8435 30.3078 33.4184C30.3053 33.3429 30.2974 33.1419 30.1269 33.1419C30.0494 33.1509 29.978 33.1885 29.9269 33.2474C29.7161 33.4717 29.4249 33.6032 29.1173 33.6129C28.9336 33.6092 28.7524 33.5699 28.5837 33.4972C27.6434 33.1154 27.6304 32.4698 27.6684 32.2101C27.6777 32.1767 27.6794 32.1417 27.6734 32.1076C27.6675 32.0734 27.654 32.041 27.634 32.0127ZM33.5137 39.1841C22.3245 39.1841 13.2542 33.3812 13.2542 26.2236C13.2559 25.9374 13.2722 25.6516 13.303 25.3671C13.3924 25.3885 14.281 25.6009 14.465 25.6423C19.9223 26.8546 21.7256 28.115 22.0304 28.3533C21.9008 28.664 21.8499 29.0019 21.8823 29.337C21.9147 29.6721 22.0293 29.994 22.216 30.2742C22.4027 30.5543 22.6557 30.784 22.9525 30.9429C23.2493 31.1018 23.5808 31.1849 23.9174 31.1849C24.0432 31.1851 24.1688 31.1735 24.2924 31.1502C24.373 31.5555 24.5576 31.9328 24.828 32.2452C25.0985 32.5576 25.4455 32.7944 25.835 32.9322C26.0672 33.0234 26.3141 33.071 26.5635 33.0727C26.7205 33.0736 26.877 33.0543 27.029 33.0152C27.2164 33.4097 27.5091 33.7447 27.8748 33.9834C28.2404 34.2221 28.6649 34.3552 29.1015 34.368C29.3144 34.368 29.5258 34.3303 29.7256 34.2566C29.8769 34.6269 30.1182 34.9536 30.4276 35.2073C30.7369 35.4609 31.1046 35.6334 31.4974 35.7092C31.8902 35.785 32.2957 35.7617 32.6773 35.6414C33.0588 35.5211 33.4043 35.3076 33.6826 35.0202C34.305 35.3828 35.0049 35.5918 35.7243 35.6298C35.8276 35.6295 35.9307 35.623 36.0332 35.6103C36.2988 35.6022 36.5596 35.5376 36.7983 35.4208C37.0369 35.304 37.248 35.1377 37.4174 34.933C37.4494 34.889 37.4779 34.8426 37.5029 34.7943C37.7149 34.8589 37.935 34.8933 38.1567 34.8965C38.6359 34.8869 39.099 34.7214 39.4757 34.4249C39.8734 34.1639 40.1528 33.7572 40.2541 33.2924C40.2549 33.2872 40.2555 33.2821 40.2559 33.2769C40.4012 33.3064 40.5491 33.3213 40.6975 33.3213C41.1818 33.3153 41.6534 33.1658 42.0527 32.8915C42.3564 32.7155 42.607 32.4608 42.7781 32.1542C42.9492 31.8477 43.0345 31.5007 43.025 31.1498C43.1722 31.1804 43.3222 31.196 43.4725 31.1963C43.9245 31.1914 44.3653 31.0557 44.7417 30.8056C44.9919 30.6528 45.2023 30.4429 45.3558 30.1933C45.5094 29.9436 45.6017 29.6611 45.6252 29.3689C45.6552 28.9623 45.5572 28.5565 45.3448 28.2085C48.067 27.0974 50.8777 26.2172 53.7474 25.5771C53.7639 25.7915 53.773 26.007 53.773 26.224C53.773 33.3812 44.7028 39.1841 33.5138 39.1841L33.5137 39.1841Z" fill="#0A0080"/>
<path d="M126.814 16.6901C126.049 15.7311 124.888 15.2517 123.329 15.252C121.773 15.252 120.611 15.7313 119.846 16.6901C119.078 17.654 118.671 18.8562 118.697 20.0884C118.666 21.3256 119.072 22.5341 119.846 23.5006C120.611 24.4439 121.772 24.916 123.329 24.9169C124.888 24.9169 126.05 24.4448 126.814 23.5006C127.587 22.5341 127.994 21.3255 127.962 20.0884C127.988 18.8563 127.582 17.6541 126.814 16.6901ZM124.919 22.1901C124.722 22.4219 124.477 22.6082 124.201 22.7359C123.925 22.8636 123.624 22.9298 123.32 22.9298C123.016 22.9298 122.715 22.8636 122.439 22.7359C122.163 22.6082 121.918 22.4219 121.721 22.1901C121.31 21.5693 121.113 20.8313 121.16 20.0884C121.113 19.3468 121.31 18.6101 121.721 17.991C121.918 17.7604 122.164 17.5752 122.44 17.4483C122.716 17.3214 123.016 17.2557 123.32 17.2557C123.624 17.2557 123.924 17.3214 124.2 17.4483C124.476 17.5752 124.721 17.7604 124.919 17.991C125.327 18.6113 125.522 19.3474 125.476 20.0884C125.522 20.8307 125.327 21.5681 124.919 22.1901Z" fill="#0A0080"/>
<path d="M107.26 15.8889C106.431 15.4832 105.519 15.2807 104.597 15.2979C103.06 15.2979 101.976 15.698 101.344 16.4983C100.927 17.0691 100.693 17.7532 100.673 18.46H102.969C103.004 18.1565 103.121 17.8681 103.307 17.6252C103.466 17.4717 103.656 17.3548 103.865 17.2827C104.073 17.2107 104.295 17.1852 104.515 17.2081C104.912 17.1853 105.308 17.2585 105.671 17.4215C105.803 17.4988 105.911 17.6126 105.981 17.7493C106.05 17.886 106.079 18.0399 106.064 18.1926C106.061 18.3451 106.01 18.493 105.918 18.6145C105.826 18.7361 105.697 18.8251 105.551 18.8684C105.245 18.9789 104.925 19.0492 104.6 19.0773L103.786 19.177C103.055 19.2376 102.342 19.436 101.685 19.7618C101.262 20.0028 100.914 20.3585 100.684 20.788C100.454 21.2175 100.349 21.7034 100.383 22.1897C100.36 22.5619 100.421 22.9345 100.561 23.2801C100.701 23.6257 100.917 23.9357 101.192 24.1873C101.773 24.6535 102.499 24.9029 103.244 24.8929C108.434 25.1254 108.376 22.1582 108.423 21.541V18.1261C108.423 17.0306 108.035 16.2849 107.26 15.8889ZM106.054 21.0715C106.083 21.3802 106.035 21.6912 105.917 21.9776C105.798 22.2639 105.611 22.5171 105.373 22.7151C104.953 23.0102 104.452 23.1678 103.938 23.1662C103.637 23.1745 103.341 23.0784 103.102 22.8943C102.981 22.7842 102.886 22.6472 102.827 22.4942C102.767 22.3412 102.744 22.1765 102.76 22.0131C102.749 21.8092 102.796 21.6064 102.895 21.428C102.995 21.2496 103.142 21.1027 103.321 21.0042C103.666 20.8375 104.035 20.7283 104.415 20.6807L104.957 20.5801C105.173 20.5425 105.387 20.4872 105.594 20.4148C105.755 20.356 105.91 20.2794 106.054 20.1866V21.0715Z" fill="#0A0080"/>
<path d="M95.4241 17.3306C95.6708 17.311 95.9185 17.3506 96.1467 17.4463C96.3748 17.542 96.5767 17.6909 96.7355 17.8806C96.9284 18.1518 97.052 18.466 97.0957 18.7959H99.6555C99.5157 17.5038 99.064 16.6024 98.3004 16.0918C97.4164 15.55 96.391 15.2836 95.3551 15.3267C94.7414 15.2933 94.1278 15.3918 93.5555 15.6156C92.9832 15.8394 92.4655 16.1833 92.0373 16.6241C91.1844 17.6346 90.7535 18.9349 90.8343 20.2548C90.7807 21.4709 91.1672 22.6655 91.9227 23.6199C92.6484 24.4844 93.7802 24.9169 95.3183 24.9173C95.9821 24.9607 96.6464 24.8417 97.2537 24.5705C97.8611 24.2993 98.3932 23.8842 98.804 23.3611C99.2733 22.7746 99.5599 22.0633 99.6284 21.3153H97.0774C97.0462 21.7396 96.8901 22.1451 96.6289 22.4807C96.4676 22.6439 96.2718 22.7689 96.056 22.8465C95.8401 22.9241 95.6095 22.9523 95.3813 22.9292C95.0146 22.953 94.6503 22.8548 94.3451 22.6501C94.04 22.4453 93.811 22.1454 93.694 21.7971C93.5111 21.2839 93.4271 20.7407 93.4465 20.1963C93.4271 19.627 93.5109 19.059 93.694 18.5197C93.8107 18.1583 94.0437 17.8457 94.3566 17.6306C94.6696 17.4155 95.045 17.31 95.4241 17.3306Z" fill="#0A0080"/>
<path d="M90.1483 15.3262C84.8887 15.3262 85.2 19.9825 85.2 19.9825V24.7125H87.587V20.2764C87.5552 19.7241 87.6488 19.1718 87.8609 18.6608C88.1887 18.0401 88.8296 17.7295 89.7833 17.7289C89.855 17.7289 89.9495 17.7332 90.0657 17.7385C90.182 17.7446 90.314 17.754 90.4661 17.7725V15.3448C90.3604 15.3369 90.2913 15.3344 90.2615 15.3308C90.2305 15.3281 90.1929 15.3262 90.1483 15.3262Z" fill="#0A0080"/>
<path d="M83.2869 17.0908C82.9019 16.5041 82.3584 16.0387 81.7193 15.7488C81.047 15.4588 80.3209 15.3145 79.5888 15.3256C78.9912 15.3022 78.3951 15.4015 77.8374 15.6174C77.2797 15.8334 76.7721 16.1614 76.3462 16.5811C75.5139 17.4204 75.0971 18.6248 75.0958 20.1944C75.0958 21.8712 75.5574 23.0812 76.4805 23.8244C77.3805 24.5603 78.511 24.9556 79.6735 24.9408C80.3036 24.9775 80.9343 24.8783 81.5227 24.65C82.1111 24.4216 82.6436 24.0693 83.084 23.6171C83.4727 23.2364 83.758 22.7628 83.9127 22.2411H81.3811C81.2902 22.3764 81.1804 22.498 81.055 22.6022C80.6659 22.8744 80.1941 23.0023 79.7209 22.9641C79.2768 22.9895 78.835 22.8837 78.4505 22.6599C78.1391 22.4549 77.8862 22.1725 77.7167 21.8404C77.5471 21.5083 77.4668 21.1378 77.4836 20.7653H84.0878C84.1066 20.1641 84.08 19.5624 84.0082 18.9652C83.9132 18.2938 83.6665 17.6527 83.2869 17.0908ZM77.5421 19.2004C77.5974 18.6773 77.8186 18.1856 78.1734 17.7972C78.361 17.6181 78.5836 17.4798 78.8272 17.3907C79.0708 17.3017 79.3301 17.2639 79.589 17.2796C80.1024 17.2631 80.6036 17.4375 80.9957 17.7692C81.1926 17.9524 81.35 18.1738 81.4583 18.4199C81.5667 18.6659 81.6238 18.9315 81.6261 19.2004H77.5421Z" fill="#0A0080"/>
<path d="M70.3538 15.296C69.8367 15.2915 69.325 15.4026 68.8563 15.6212C68.3875 15.8397 67.9735 16.1603 67.6445 16.5593C67.321 16.1535 66.9078 15.8283 66.4374 15.6091C65.967 15.3899 65.4522 15.2827 64.9334 15.296C62.6027 15.296 61.099 17.0087 61.099 19.2756V24.7126H63.2803V19.2232C63.2666 19.0006 63.2997 18.7777 63.3774 18.5687C63.4551 18.3597 63.5757 18.1693 63.7315 18.0097C63.8872 17.8501 64.0746 17.7249 64.2816 17.6421C64.4887 17.5593 64.7108 17.5207 64.9336 17.5289C65.1544 17.5173 65.3751 17.5541 65.5801 17.6367C65.7852 17.7193 65.9698 17.8457 66.1209 18.0071C66.2721 18.1685 66.3861 18.3609 66.4551 18.571C66.5241 18.781 66.5464 19.0036 66.5204 19.2232V24.7126H68.7017V19.2232C68.6895 19.0011 68.7235 18.7788 68.8017 18.5705C68.8799 18.3622 69.0004 18.1724 69.1557 18.0132C69.3111 17.8539 69.4978 17.7286 69.704 17.6452C69.9103 17.5619 70.1316 17.5223 70.354 17.5289C70.5756 17.5172 70.7971 17.5537 71.0031 17.636C71.2092 17.7183 71.395 17.8443 71.5475 18.0055C71.7001 18.1666 71.8158 18.3589 71.8868 18.5692C71.9577 18.7794 71.9821 19.0026 71.9583 19.2232V24.7126H74.1378V19.2756C74.1376 16.939 72.7344 15.296 70.3538 15.296Z" fill="#0A0080"/>
<path d="M115.583 14.1348L115.581 16.692C115.326 16.2744 114.968 15.9291 114.542 15.6892C114.094 15.4427 113.589 15.318 113.078 15.3275C112.531 15.3088 111.987 15.4195 111.491 15.6505C110.995 15.8816 110.56 16.2265 110.223 16.6573C109.456 17.7387 109.079 19.0478 109.153 20.3711C109.103 21.5662 109.489 22.7386 110.239 23.6706C110.963 24.5256 112.381 24.9015 113.641 24.9015C118.036 24.9015 117.985 21.1335 117.985 21.1335L117.987 12.4606C117.987 12.4606 115.583 12.2035 115.583 14.1348ZM115.124 22.2103C114.954 22.4551 114.724 22.6524 114.457 22.7833C114.189 22.9143 113.892 22.9747 113.594 22.9587C113.3 22.9765 113.006 22.9163 112.743 22.7842C112.479 22.652 112.255 22.4525 112.093 22.2059C111.737 21.5762 111.566 20.8585 111.599 20.1357C111.575 19.4528 111.743 18.7769 112.085 18.1852C112.243 17.9279 112.469 17.7187 112.738 17.58C113.007 17.4414 113.308 17.3786 113.61 17.3984C114.049 17.3926 114.475 17.546 114.809 17.8302C115.368 18.3076 115.649 19.1644 115.649 20.2721C115.679 20.9568 115.495 21.634 115.124 22.2103Z" fill="#0A0080"/>
<path d="M66.1423 28.3614C64.1766 28.2687 63.1836 28.7372 62.5368 29.2311C61.6426 29.9131 61.099 30.9224 61.099 32.535V40.8264H62.2545C62.5665 40.8302 62.8687 40.717 63.1014 40.5091C63.2234 40.402 63.3208 40.2697 63.3868 40.1214C63.4529 39.9731 63.4862 39.8123 63.4843 39.65V36.5514C63.7413 37.0143 64.1326 37.3886 64.6066 37.6247C65.0917 37.8406 65.6185 37.9468 66.1493 37.9359C66.6715 37.9457 67.1887 37.8316 67.6583 37.6029C68.1279 37.3742 68.5366 37.0376 68.851 36.6204C69.5907 35.5964 69.9614 34.3519 69.9026 33.09C69.9645 31.838 69.5631 30.6071 68.775 29.6323C68.449 29.2486 68.0464 28.9373 67.5931 28.7184C67.1397 28.4996 66.6455 28.378 66.1423 28.3614ZM66.9561 35.1668C66.7967 35.399 66.5815 35.5873 66.3302 35.7144C66.0789 35.8415 65.7997 35.9033 65.5183 35.8941C65.2261 35.9091 64.9349 35.8503 64.6714 35.7232C64.4079 35.5961 64.1806 35.4048 64.0105 35.1668C63.618 34.5872 63.4327 33.8921 63.4846 33.1941C63.4284 32.4677 63.5994 31.7419 63.974 31.1171C64.1397 30.8825 64.3614 30.6931 64.6189 30.5661C64.8765 30.4391 65.1617 30.3785 65.4486 30.3898C65.7407 30.3755 66.0316 30.4346 66.295 30.5616C66.5584 30.6886 66.7857 30.8796 66.9563 31.1171C67.3453 31.7371 67.5296 32.4636 67.4833 33.1941C67.5216 33.891 67.3369 34.5819 66.9561 35.1668Z" fill="#0A0080"/>
<path d="M86.6425 29.2165C85.7706 28.5412 84.6757 28.2202 83.5771 28.318C82.1305 28.3573 81.0781 28.762 80.4235 29.6492C79.7299 30.671 79.3859 31.8899 79.4428 33.1236C79.3949 34.1612 79.6519 35.1901 80.1822 36.0832C80.6004 36.7673 81.2212 37.3044 81.9584 37.6198C82.6173 37.8946 83.3458 37.9558 84.0413 37.7946C84.3868 37.7155 84.7128 37.5677 84.9999 37.3598C85.2871 37.152 85.5294 36.8885 85.7124 36.5849V37.1705C85.7136 37.7666 85.527 38.348 85.1793 38.8321C84.9194 39.1666 84.5546 39.404 84.1435 39.506C83.7633 39.5753 83.3711 39.5283 83.018 39.3711C82.665 39.2139 82.3676 38.9539 82.1647 38.625H79.65C80.301 40.5828 81.4707 41.4465 83.5772 41.5994C86.9755 41.8441 88.0585 38.9668 88.055 37.4144V32.5362C88.0549 30.9236 87.5296 29.8904 86.6425 29.2165ZM85.6434 34.0082C85.5958 34.4365 85.4416 34.8461 85.195 35.1995C84.7589 35.7983 84.0817 36.0118 83.1636 35.8402C82.2442 35.6662 81.7844 34.7842 81.7844 33.1944C81.7711 32.5139 81.9128 31.8392 82.1987 31.2216C82.344 30.934 82.5733 30.6974 82.8562 30.5432C83.1391 30.389 83.4621 30.3244 83.7826 30.358C84.0355 30.3438 84.2879 30.3933 84.5166 30.5021C84.7454 30.6108 84.9432 30.7753 85.0919 30.9803C85.3935 31.4005 85.5888 31.8876 85.6609 32.3998C85.7407 32.9335 85.7348 33.4764 85.6434 34.0082Z" fill="#0A0080"/>
<path d="M77.4017 28.9746C76.5732 28.5699 75.6604 28.3674 74.7385 28.3837C73.2019 28.3837 72.1184 28.784 71.4878 29.5847C71.0709 30.1553 70.8369 30.8388 70.8166 31.5452H73.1127C73.1487 31.2421 73.2652 30.9542 73.4501 30.7114C73.6089 30.5579 73.7992 30.441 74.0079 30.3688C74.2165 30.2966 74.4384 30.2709 74.6581 30.2935C75.0548 30.2704 75.4512 30.3436 75.8136 30.5068C75.9461 30.5843 76.0536 30.6982 76.1232 30.8351C76.1928 30.9719 76.2216 31.1259 76.2062 31.2786C76.204 31.4311 76.1532 31.579 76.061 31.7005C75.9689 31.8221 75.8403 31.911 75.694 31.9543C75.3872 32.0641 75.0676 32.1343 74.743 32.1631L73.9301 32.2619C73.1994 32.3228 72.4868 32.5212 71.8297 32.8467C71.406 33.0873 71.0588 33.4427 70.8283 33.872C70.5977 34.3012 70.4931 34.7869 70.5265 35.2731C70.504 35.6452 70.565 36.0178 70.705 36.3633C70.8451 36.7089 71.0606 37.0188 71.3359 37.2703C71.9171 37.7371 72.6428 37.9869 73.3882 37.9766C78.5756 38.2091 78.5172 35.2416 78.5644 34.6254V31.2102C78.5643 30.116 78.1767 29.3708 77.4017 28.9746ZM76.1955 34.156C76.2246 34.4646 76.1778 34.7755 76.0593 35.0619C75.9408 35.3482 75.7541 35.6013 75.5155 35.799C75.0956 36.0942 74.5945 36.2517 74.0812 36.25C73.7797 36.2583 73.4845 36.1623 73.2456 35.9782C73.1237 35.8682 73.0292 35.7313 72.9695 35.5783C72.9099 35.4254 72.8868 35.2606 72.9021 35.0971C72.8917 34.8932 72.9389 34.6905 73.0382 34.5121C73.1376 34.3337 73.2852 34.1869 73.4641 34.0884C73.8083 33.9221 74.1773 33.8128 74.5567 33.7651L75.0995 33.6645C75.3155 33.6276 75.5281 33.5727 75.735 33.5002C75.8965 33.4411 76.051 33.3643 76.1956 33.2712L76.1955 34.156Z" fill="#0A0080"/>
<path d="M97.0806 29.7278C96.314 28.768 95.1521 28.2885 93.5948 28.2891C92.0389 28.2891 90.8781 28.7686 90.1124 29.7278C89.3448 30.6911 88.9384 31.8928 88.9639 33.1244C88.9326 34.3614 89.3394 35.5697 90.1124 36.5359C90.8771 37.4782 92.0379 37.9499 93.5948 37.951C95.1533 37.951 96.3152 37.4793 97.0806 36.5359C97.852 35.569 98.2578 34.361 98.2264 33.1244C98.252 31.8932 97.8467 30.6918 97.0806 29.7278ZM95.1838 35.2239C94.9872 35.4559 94.7425 35.6423 94.4665 35.7702C94.1906 35.898 93.8902 35.9642 93.5861 35.9642C93.2819 35.9642 92.9815 35.898 92.7056 35.7702C92.4296 35.6423 92.1849 35.4559 91.9883 35.2239C91.576 34.6045 91.3786 33.8669 91.4262 33.1244C91.3784 32.383 91.5759 31.6464 91.9883 31.0284C92.1858 30.7979 92.4309 30.6128 92.7067 30.4859C92.9825 30.359 93.2825 30.2933 93.5861 30.2933C93.8896 30.2933 94.1896 30.359 94.4654 30.4859C94.7412 30.6128 94.9863 30.7979 95.1838 31.0284C95.5923 31.648 95.7878 32.3838 95.7406 33.1244C95.7876 33.8661 95.5922 34.603 95.1838 35.2239Z" fill="#0A0080"/>
</svg>