<svg width="48" height="26" viewBox="0 0 48 26" fill="none" xmlns="http://www.w3.org/2000/svg">
<g clip-path="url(#clip0_203_82474)">
<rect width="48" height="26" rx="2" fill="white"/>
<rect x="-3" y="-3" width="55" height="34" fill="#016FD0"/>
<g clip-path="url(#clip1_203_82474)">
<path d="M11 0H36.9354V14.0356L35.6517 16.0464L36.9354 17.836V26H11V12.7687L11.8023 11.8438L11 10.959V0Z" fill="#016FD0"/>
<path d="M16.0347 18.1171V14.0352H20.346L20.8086 14.6397L21.2864 14.0352H36.9355V17.8356C36.9355 17.8356 36.5262 18.1131 36.0529 18.1171H27.3877L26.8662 17.4737V18.1171H25.1572V17.0187C25.1572 17.0187 24.9238 17.172 24.4191 17.172H23.8374V18.1171H21.2498L20.7879 17.4997L20.3189 18.1171H16.0347Z" fill="white"/>
<path d="M11 10.9588L11.9722 8.68652H13.6536L14.2053 9.95934V8.68652H16.2954L16.6239 9.60647L16.9423 8.68652H26.3246V9.14901C26.3246 9.14901 26.8178 8.68652 27.6284 8.68652L30.6726 8.69719L31.2148 9.95334V8.68652H32.9639L33.4453 9.40808V8.68652H35.2104V12.7685H33.4453L32.9839 12.0446V12.7685H30.4141L30.1557 12.125H29.4649L29.2106 12.7685H27.4679C26.7704 12.7685 26.3246 12.3155 26.3246 12.3155V12.7685H23.6969L23.1754 12.125V12.7685H13.4045L13.1462 12.125H12.4576L12.2012 12.7685H11V10.9588Z" fill="white"/>
<path d="M12.3165 9.18994L11.0052 12.2464H11.8589L12.1009 11.6344H13.5075L13.7482 12.2464H14.6207L13.3106 9.18994H12.3165ZM12.8017 9.90127L13.2304 10.9708H12.3717L12.8017 9.90127V9.90127Z" fill="#016FD0"/>
<path d="M14.7108 12.2459V9.18945L15.924 9.19397L16.6297 11.1646L17.3184 9.18945H18.5219V12.2459H17.7597V9.99379L16.9517 12.2459H16.2833L15.473 9.99379V12.2459H14.7108Z" fill="#016FD0"/>
<path d="M19.0434 12.2459V9.18945H21.5306V9.87314H19.8136V10.3959H21.4905V11.0394H19.8136V11.5823H21.5306V12.2459H19.0434Z" fill="#016FD0"/>
<path d="M21.9719 9.18994V12.2464H22.7341V11.1606H23.055L23.9689 12.2464H24.9004L23.8975 11.1203C24.3091 11.0855 24.7337 10.7314 24.7337 10.1815C24.7337 9.53835 24.2301 9.18994 23.6681 9.18994H21.9719V9.18994ZM22.7341 9.87362H23.6054C23.8144 9.87362 23.9664 10.0375 23.9664 10.1954C23.9664 10.3984 23.7694 10.5171 23.6167 10.5171H22.7341V9.87362V9.87362Z" fill="#016FD0"/>
<path d="M25.8231 12.2459H25.0448V9.18945H25.8231V12.2459Z" fill="#016FD0"/>
<path d="M27.6685 12.2459H27.5005C26.6877 12.2459 26.1942 11.604 26.1942 10.7303C26.1942 9.83496 26.6822 9.18945 27.7086 9.18945H28.551V9.91335H27.6778C27.2611 9.91335 26.9664 10.2393 26.9664 10.7378C26.9664 11.3297 27.3034 11.5783 27.7888 11.5783H27.9894L27.6685 12.2459Z" fill="#016FD0"/>
<path d="M29.3271 9.18994L28.0158 12.2464H28.8695L29.1115 11.6344H30.518L30.7587 12.2464H31.6313L30.3212 9.18994H29.3271ZM29.8122 9.90127L30.241 10.9708H29.3822L29.8122 9.90127Z" fill="#016FD0"/>
<path d="M31.7202 12.2459V9.18945H32.6893L33.9267 11.1098V9.18945H34.6889V12.2459H33.7512L32.4825 10.2753V12.2459H31.7202Z" fill="#016FD0"/>
<path d="M16.5562 17.5945V14.5381H19.0434V15.2218H17.3264V15.7446H19.0033V16.388H17.3264V16.931H19.0434V17.5945H16.5562Z" fill="#016FD0"/>
<path d="M28.7437 17.5945V14.5381H31.2309V15.2218H29.5139V15.7446H31.1827V16.388H29.5139V16.931H31.2309V17.5945H28.7437Z" fill="#016FD0"/>
<path d="M19.1399 17.5945L20.351 16.0852L19.1111 14.5381H20.0714L20.8098 15.4945L21.5507 14.5381H22.4734L21.2498 16.0663L22.4631 17.5945H21.5029L20.786 16.6532L20.0865 17.5945H19.1399Z" fill="#016FD0"/>
<path d="M22.5536 14.5386V17.595H23.3359V16.6298H24.1382C24.8171 16.6298 25.3317 16.2688 25.3317 15.5666C25.3317 14.9849 24.9281 14.5386 24.2372 14.5386H22.5536V14.5386ZM23.3359 15.2298H24.1808C24.4001 15.2298 24.5569 15.3646 24.5569 15.5817C24.5569 15.7857 24.4009 15.9336 24.1783 15.9336H23.3359V15.2298Z" fill="#016FD0"/>
<path d="M25.6626 14.5381V17.5945H26.4248V16.5087H26.7457L27.6597 17.5945H28.5911L27.5882 16.4685C27.9998 16.4337 28.4244 16.0795 28.4244 15.5297C28.4244 14.8865 27.9208 14.5381 27.3588 14.5381H25.6626V14.5381ZM26.4248 15.2218H27.2961C27.5051 15.2218 27.6571 15.3857 27.6571 15.5435C27.6571 15.7466 27.4602 15.8652 27.3074 15.8652H26.4248V15.2218V15.2218Z" fill="#016FD0"/>
<path d="M31.5838 17.5945V16.931H33.1093C33.335 16.931 33.4327 16.8087 33.4327 16.6746C33.4327 16.5461 33.3353 16.4162 33.1093 16.4162H32.42C31.8208 16.4162 31.4871 16.0502 31.4871 15.5008C31.4871 15.0107 31.7927 14.5381 32.683 14.5381H34.1674L33.8464 15.2258H32.5627C32.3173 15.2258 32.2418 15.3549 32.2418 15.4781C32.2418 15.6049 32.3351 15.7446 32.5226 15.7446H33.2447C33.9126 15.7446 34.2025 16.1244 34.2025 16.6218C34.2025 17.1566 33.8795 17.5945 33.2083 17.5945H31.5838Z" fill="#016FD0"/>
<path d="M34.3814 17.5945V16.931H35.9068C36.1325 16.931 36.2302 16.8087 36.2302 16.6746C36.2302 16.5461 36.1328 16.4162 35.9068 16.4162H35.2175C34.6183 16.4162 34.2846 16.0502 34.2846 15.5008C34.2846 15.0107 34.5902 14.5381 35.4806 14.5381H36.9649L36.6439 15.2258H35.3602C35.1148 15.2258 35.0393 15.3549 35.0393 15.4781C35.0393 15.6049 35.1326 15.7446 35.3201 15.7446H36.0422C36.7101 15.7446 37 16.1244 37 16.6218C37 17.1566 36.677 17.5945 36.0058 17.5945H34.3814Z" fill="#016FD0"/>
</g>
</g>
<defs>
<clipPath id="clip0_203_82474">
<rect width="48" height="26" rx="2" fill="white"/>
</clipPath>
<clipPath id="clip1_203_82474">
<rect width="26" height="26" fill="white" transform="translate(11)"/>
</clipPath>
</defs>
</svg>
