<svg width="32" height="32" viewBox="0 0 32 32" fill="none" xmlns="http://www.w3.org/2000/svg">
<path d="M4.74902 22.75H9.24902V21.25H4.74902V22.75Z" fill="#969696"/>
<path d="M15.249 22.75H10.749V21.25H15.249V22.75Z" fill="#969696"/>
<path fill-rule="evenodd" clip-rule="evenodd" d="M2.49902 4.75H29.499C30.7417 4.75 31.749 5.75736 31.749 7V25C31.749 26.2426 30.7417 27.25 29.499 27.25H2.49902C1.25638 27.25 0.249023 26.2426 0.249023 25V7C0.249023 5.75736 1.25638 4.75 2.49902 4.75ZM1.74902 11.4796V13.75H30.249V11.4796H1.74902ZM30.249 9.97964H1.74902V7C1.74902 6.58579 2.08481 6.25 2.49902 6.25H29.499C29.9132 6.25 30.249 6.58579 30.249 7V9.97964ZM30.249 15.25H1.74902V25C1.74902 25.4142 2.08481 25.75 2.49902 25.75H29.499C29.9132 25.75 30.249 25.4142 30.249 25V15.25Z" fill="#969696"/>
</svg>