<svg width="48" height="26" viewBox="0 0 48 26" fill="none" xmlns="http://www.w3.org/2000/svg">
<g clip-path="url(#clip0_203_202)">
<rect width="48" height="26" rx="2" fill="white"/>
<path d="M12.749 19.75H17.249V18.25H12.749V19.75Z" fill="#6D6D6D"/>
<path d="M23.249 19.75H18.749V18.25H23.249V19.75Z" fill="#6D6D6D"/>
<path fill-rule="evenodd" clip-rule="evenodd" d="M10.499 1.75H37.499C38.7416 1.75 39.749 2.75736 39.749 4V22C39.749 23.2426 38.7416 24.25 37.499 24.25H10.499C9.25635 24.25 8.24899 23.2426 8.24899 22V4C8.24899 2.75736 9.25635 1.75 10.499 1.75ZM9.74899 8.47964V10.75H38.249V8.47964H9.74899ZM38.249 6.97964H9.74899V4C9.74899 3.58579 10.0848 3.25 10.499 3.25H37.499C37.9132 3.25 38.249 3.58579 38.249 4V6.97964ZM38.249 12.25H9.74899V22C9.74899 22.4142 10.0848 22.75 10.499 22.75H37.499C37.9132 22.75 38.249 22.4142 38.249 22V12.25Z" fill="#6D6D6D"/>
</g>
<defs>
<clipPath id="clip0_203_202">
<rect width="48" height="26" rx="2" fill="white"/>
</clipPath>
</defs>
</svg>
