<svg width="48" height="26" viewBox="0 0 48 26" fill="none" xmlns="http://www.w3.org/2000/svg">
<g clip-path="url(#clip0_203_82498)">
<rect width="48" height="26" rx="2" fill="white"/>
<rect x="-3" y="-3" width="55" height="34" fill="#1434CB"/>
<path fill-rule="evenodd" clip-rule="evenodd" d="M13.7764 19.8983H10.3922L7.85446 9.81324C7.73401 9.34933 7.47826 8.9392 7.10205 8.74591C6.16319 8.26014 5.12862 7.87355 4 7.67857V7.2903H9.45169C10.2041 7.2903 10.7684 7.87355 10.8625 8.55093L12.1792 15.8256L15.5617 7.2903H18.8519L13.7764 19.8983ZM20.733 19.8983H17.5369L20.1686 7.2903H23.3647L20.733 19.8983ZM27.4997 10.7836C27.5937 10.1045 28.158 9.71623 28.8164 9.71623C29.8509 9.61875 30.9779 9.81372 31.9184 10.2978L32.4827 7.58325C31.5422 7.19498 30.5077 7 29.5688 7C26.4667 7 24.2095 8.74639 24.2095 11.1702C24.2095 13.014 25.8084 13.9822 26.937 14.5655C28.158 15.147 28.6283 15.5353 28.5342 16.1169C28.5342 16.9892 27.5937 17.3775 26.6548 17.3775C25.5262 17.3775 24.3976 17.0867 23.3647 16.6009L22.8004 19.3172C23.929 19.8013 25.15 19.9962 26.2786 19.9962C29.7569 20.092 31.9184 18.3473 31.9184 15.7286C31.9184 12.4308 27.4997 12.2375 27.4997 10.7836ZM43.1041 19.8983L40.5663 7.2903H37.8405C37.2762 7.2903 36.7119 7.67857 36.5238 8.26014L31.8245 19.8983H35.1146L35.7713 18.0561H39.8139L40.1901 19.8983H43.1041ZM38.3107 10.6863L39.2495 15.438H36.6177L38.3107 10.6863Z" fill="white"/>
</g>
<defs>
<clipPath id="clip0_203_82498">
<rect width="48" height="26" rx="2" fill="white"/>
</clipPath>
</defs>
</svg>
