<svg width="23" height="17" viewBox="0 0 23 17" fill="none" xmlns="http://www.w3.org/2000/svg">
<path d="M7.83138 13.4334H3.43431V11.9667H7.83138V13.4334Z" fill="black" fill-opacity="0.41"/>
<path fill-rule="evenodd" clip-rule="evenodd" d="M20.3 0.233398H2.7C1.48497 0.233398 0.5 1.21837 0.5 2.4334V14.1667C0.5 15.3818 1.48497 16.3667 2.7 16.3667H20.3C21.515 16.3667 22.5 15.3818 22.5 14.1667V2.4334C22.5 1.21837 21.515 0.233398 20.3 0.233398ZM1.96667 7.56673V6.10007H21.0333V7.56673H1.96667ZM1.96667 4.6334H21.0333V2.4334C21.0333 2.02839 20.705 1.70007 20.3 1.70007H2.7C2.29499 1.70007 1.96667 2.02839 1.96667 2.4334V4.6334ZM1.96667 9.0334H21.0333V14.1667C21.0333 14.5717 20.705 14.9001 20.3 14.9001H2.7C2.29499 14.9001 1.96667 14.5717 1.96667 14.1667V9.0334Z" fill="black" fill-opacity="0.41"/>
</svg>
