<svg width="32" height="32" viewBox="0 0 32 32" fill="none" xmlns="http://www.w3.org/2000/svg">
<path fill-rule="evenodd" clip-rule="evenodd" d="M2.42857 5H25.5714C26.6366 5 27.5 5.89543 27.5 7V8H29.5C30.6046 8 31.5 8.85066 31.5 9.9V25.1C31.5 26.1493 30.6046 27 29.5 27H5.5C4.39543 27 3.5 26.1493 3.5 25.1V25H2.42857C1.36345 25 0.5 24.1046 0.5 23V7C0.5 5.89543 1.36345 5 2.42857 5ZM3.5 23.6667V9.9C3.5 8.85066 4.39543 8 5.5 8H26.2143V7C26.2143 6.63181 25.9265 6.33333 25.5714 6.33333H2.42857C2.07353 6.33333 1.78571 6.63181 1.78571 7V10.9819V13V23C1.78571 23.3682 2.07353 23.6667 2.42857 23.6667H3.5ZM4.83333 15.6V13.6828H30.1667V15.6H4.83333ZM4.83333 12.4161H30.1667V9.9C30.1667 9.55022 29.8682 9.26667 29.5 9.26667H5.5C5.13181 9.26667 4.83333 9.55022 4.83333 9.9V12.4161ZM4.83333 16.8667H30.1667V25.1C30.1667 25.4498 29.8682 25.7333 29.5 25.7333H5.5C5.13181 25.7333 4.83333 25.4498 4.83333 25.1V16.8667ZM7.5 23.2H11.5V21.9333H7.5V23.2ZM16.8333 23.2H12.8333V21.9333H16.8333V23.2Z" fill="#969696"/>
</svg>
