<svg width="30" height="23" viewBox="0 0 30 23" fill="none" xmlns="http://www.w3.org/2000/svg">
<path fill-rule="evenodd" clip-rule="evenodd" d="M3.86234 18.7594H3.02174C1.62902 18.7594 0.5 17.6303 0.5 16.2376V2.78834C0.5 1.39562 1.62902 0.266602 3.02174 0.266602H23.1957C24.5884 0.266602 25.7174 1.39562 25.7174 2.78834V3.62894H24.0357V2.78835C24.0357 2.32411 23.6594 1.94777 23.1951 1.94777H3.02123C2.55699 1.94777 2.18065 2.32411 2.18065 2.78835V16.2376C2.18065 16.7019 2.55699 17.0782 3.02123 17.0782H3.86234V18.7594Z" fill="black" fill-opacity="0.41"/>
<g clip-path="url(#clip0_4068_45274)">
<path fill-rule="evenodd" clip-rule="evenodd" d="M26.5589 3.62891H6.38502C4.9923 3.62891 3.86328 4.75793 3.86328 6.15065V19.5999C3.86328 20.9926 4.9923 22.1217 6.38502 22.1217H26.5589C27.9517 22.1217 29.0807 20.9926 29.0807 19.5999V13.7159H29.0808V8.67244H29.0807V6.15065C29.0807 4.75793 27.9517 3.62891 26.5589 3.62891ZM27.3991 12.0347V10.3536H5.54413V12.0347H27.3991ZM27.3991 6.15069V8.67244H5.54403V6.15069C5.54403 5.68645 5.92037 5.31011 6.38461 5.31011H26.5585C27.0228 5.31011 27.3991 5.68645 27.3991 6.15069ZM27.3991 13.7159H5.54403V19.6C5.54403 20.0642 5.92037 20.4405 6.38461 20.4405H26.5585C27.0228 20.4405 27.3991 20.0642 27.3991 19.6V13.7159ZM12.2669 18.7594H7.22677V17.0782H12.2669V18.7594Z" fill="black" fill-opacity="0.41"/>
</g>
<defs>
<clipPath id="clip0_4068_45274">
<rect width="26.4783" height="18.913" fill="white" transform="translate(3.02246 3.2085)"/>
</clipPath>
</defs>
</svg>
