<svg width="32" height="24" viewBox="0 0 32 24" fill="none" xmlns="http://www.w3.org/2000/svg">
<rect x="0.5" y="0.5" width="31" height="23" rx="3.5" fill="white"/>
<rect x="0.5" y="0.5" width="31" height="23" rx="3.5" stroke="#E5E5E5"/>
<path d="M22.3279 14.3484L23.0377 13.8576V11.0036L22.3279 10.748V9.13722C22.3279 8.64361 22.1318 8.17022 21.7828 7.82118C21.6267 7.66513 20.4667 7.27607 20.4667 7.27607C20.4667 7.27607 18.6056 4.30068 17.4819 4.32832C16.3581 4.35596 12.6723 7.27607 12.6723 7.27607H10.7888C10.2952 7.27607 9.82176 7.47215 9.47273 7.82118C9.1237 8.17022 8.92761 8.64361 8.92761 9.13722V15.8373C8.92761 16.331 9.1237 16.8043 9.47273 17.1534C9.82176 17.5024 10.2952 17.6985 10.7888 17.6985L20.4667 17.6985C20.9603 17.6985 21.4337 17.5024 21.7828 17.1534C22.1318 16.8043 22.3279 16.331 22.3279 15.8373L22.3279 14.3484Z" fill="#FFE600"/>
<path d="M20.4667 17.699V18.299V17.699ZM20.4667 7.27658V7.87658V7.27658ZM18.7062 4.8944L19.1887 4.53778L19.1862 4.5344L18.7062 4.8944ZM16.6892 4.5489L16.3563 4.04967V4.04967L16.6892 4.5489ZM12.2648 6.77733C11.9891 6.96115 11.9146 7.33367 12.0984 7.60938C12.2822 7.8851 12.6548 7.95961 12.9305 7.77579L12.2648 6.77733ZM20.4667 10.6266V11.2266V10.6266ZM20.4667 14.3489L20.4667 13.7489H20.4667V14.3489ZM18.6056 12.4878H19.2056H18.6056ZM10.7888 7.27657L10.7888 6.67657H10.7888V7.27657ZM8.92761 9.13772H8.32761H8.92761ZM10.7888 17.699L10.7888 17.099H10.7888V17.699ZM22.3279 15.8379L21.7279 15.8379V15.8379H22.3279ZM19.1862 4.5344C18.8658 4.10723 18.394 3.81897 17.8677 3.72882L17.6651 4.91159C17.8891 4.94996 18.0899 5.07262 18.2262 5.2544L19.1862 4.5344ZM17.8677 3.72882C17.3414 3.63867 16.8006 3.75348 16.3563 4.04967L17.022 5.04813C17.211 4.92209 17.4412 4.87323 17.6651 4.91159L17.8677 3.72882ZM16.3563 4.04967L12.2648 6.77733L12.9305 7.77579L17.022 5.04813L16.3563 4.04967ZM20.4667 11.2266H22.3279V10.0266H20.4667V11.2266ZM22.3279 11.2266C22.3662 11.2266 22.4029 11.2419 22.43 11.2689L23.2786 10.4204C23.0264 10.1683 22.6844 10.0266 22.3279 10.0266V11.2266ZM22.43 11.2689C22.4571 11.296 22.4723 11.3328 22.4723 11.3711H23.6723C23.6723 11.0145 23.5307 10.6726 23.2786 10.4204L22.43 11.2689ZM22.4723 11.3711V13.6045H23.6723V11.3711H22.4723ZM22.4723 13.6045C22.4723 13.6428 22.4571 13.6795 22.43 13.7066L23.2786 14.5552C23.5307 14.303 23.6723 13.961 23.6723 13.6045H22.4723ZM22.43 13.7066C22.4029 13.7337 22.3662 13.7489 22.3279 13.7489V14.9489C22.6845 14.9489 23.0264 14.8073 23.2786 14.5552L22.43 13.7066ZM22.3279 13.7489L20.4667 13.7489L20.4667 14.9489L22.3279 14.9489L22.3279 13.7489ZM20.4667 13.7489C20.1322 13.7489 19.8115 13.6161 19.575 13.3796L18.7264 14.2281C19.188 14.6896 19.814 14.9489 20.4667 14.9489V13.7489ZM19.575 13.3796C19.3384 13.143 19.2056 12.8223 19.2056 12.4878H18.0056C18.0056 13.1405 18.2649 13.7665 18.7264 14.2281L19.575 13.3796ZM19.2056 12.4878C19.2056 12.1533 19.3384 11.8325 19.575 11.596L18.7264 10.7475C18.2649 11.209 18.0056 11.835 18.0056 12.4878H19.2056ZM19.575 11.596C19.8115 11.3595 20.1322 11.2266 20.4667 11.2266V10.0266C19.814 10.0266 19.188 10.2859 18.7264 10.7475L19.575 11.596ZM22.9279 10.6266V9.13772H21.7279V10.6266H22.9279ZM22.9279 9.13772C22.9279 8.48498 22.6686 7.85898 22.207 7.39743L21.3585 8.24596C21.595 8.48247 21.7279 8.80325 21.7279 9.13772H22.9279ZM22.207 7.39743C21.7455 6.93587 21.1195 6.67658 20.4667 6.67658V7.87658C20.8012 7.87658 21.122 8.00945 21.3585 8.24596L22.207 7.39743ZM20.4667 6.67658L10.7888 6.67657L10.7888 7.87657L20.4667 7.87658V6.67658ZM10.7888 6.67657C10.136 6.67657 9.51002 6.93587 9.04847 7.39743L9.89699 8.24596C10.1335 8.00944 10.4543 7.87657 10.7888 7.87657V6.67657ZM9.04847 7.39743C8.58691 7.85898 8.32761 8.48498 8.32761 9.13772H9.52761C9.52761 8.80324 9.66048 8.48247 9.89699 8.24596L9.04847 7.39743ZM8.32761 9.13772V15.8379H9.52761V9.13772H8.32761ZM8.32761 15.8379C8.32761 16.4906 8.58691 17.1166 9.04847 17.5781L9.89699 16.7296C9.66048 16.4931 9.52761 16.1723 9.52761 15.8379H8.32761ZM9.04847 17.5781C9.51002 18.0397 10.136 18.299 10.7888 18.299V17.099C10.4543 17.099 10.1335 16.9661 9.89699 16.7296L9.04847 17.5781ZM10.7888 18.299L20.4667 18.299V17.099L10.7888 17.099L10.7888 18.299ZM20.4667 18.299C21.1195 18.299 21.7455 18.0397 22.207 17.5781L21.3585 16.7296C21.122 16.9661 20.8012 17.099 20.4667 17.099V18.299ZM22.207 17.5781C22.6686 17.1166 22.9279 16.4906 22.9279 15.8379H21.7279C21.7279 16.1723 21.595 16.4931 21.3585 16.7296L22.207 17.5781ZM22.9279 15.8379L22.9279 14.3489L21.7279 14.3489L21.7279 15.8379L22.9279 15.8379ZM20.9493 6.91997L19.1887 4.53779L18.2237 5.25101L19.9842 7.63318L20.9493 6.91997Z" fill="black" fill-opacity="0.9"/>
</svg>

