<svg width="33" height="25" viewBox="0 0 33 25" fill="none" xmlns="http://www.w3.org/2000/svg">
<g clip-path="url(#clip0_8585_72449)">
<rect x="0.0273438" y="0.12793" width="32" height="24" rx="4" fill="white"/>
<path fill-rule="evenodd" clip-rule="evenodd" d="M13.3507 4.12793H9.73801L6.02734 12.5939H9.03977V20.108L18.3321 20.1277L19.7918 18.491L21.262 20.1211H24.0274V17.7336L22.2948 15.8554L24.0274 13.9942V11.6552L24.0271 11.6552V4.12793H20.6206L19.849 6.29888L19.08 4.12793H14.6198V7.02472L13.3507 4.12793Z" fill="white"/>
<path fill-rule="evenodd" clip-rule="evenodd" d="M15.6355 11.6477L15.6362 11.6493H13.5863L13.0366 10.3275H10.0558L9.50612 11.6493H7.50586L10.4214 5.04848H12.7324L15.6075 11.5841V5.04688L18.4186 5.05738L19.8652 9.11446L21.321 5.04688H24.0263V11.6477L22.2859 11.6634V7.12858L20.6421 11.6477H19.0531L17.3753 7.11414V11.6477H15.6355ZM10.6721 8.84568L11.5469 6.74429L12.4203 8.84568H10.6721ZM10.0388 12.5742V19.1803H15.5828H15.6113H17.9043L19.8027 17.0658L21.7194 19.1803H24.0265V19.0858L21.0091 15.8727L24.0265 12.6267V12.5742H21.7429L19.8536 14.6677L17.9696 12.5742H15.6113H15.5828H10.0388ZM15.6113 12.6047V14.0955H11.8432V15.1284H15.5212V16.6247H11.8432V17.6393H15.6113V19.1497L18.6668 15.8727L15.6113 12.6047Z" fill="#016FD0"/>
</g>
<rect x="0.527344" y="0.62793" width="31" height="23" rx="3.5" stroke="#E5E5E5"/>
<defs>
<clipPath id="clip0_8585_72449">
<rect x="0.0273438" y="0.12793" width="32" height="24" rx="4" fill="white"/>
</clipPath>
</defs>
</svg>
