<svg width="33" height="25" viewBox="0 0 33 25" fill="none" xmlns="http://www.w3.org/2000/svg">
<g clip-path="url(#clip0_9153_1531)">
<rect x="0.896484" y="0.12793" width="32" height="24" rx="4" fill="white"/>
<path d="M10.5237 12.2979C10.5892 12.32 10.6654 12.3527 10.7523 12.3962C10.9047 12.4837 11.0351 12.6033 11.1446 12.7557C11.2756 12.9736 11.3405 13.235 11.3405 13.5398C11.3405 14.5857 10.7083 15.1084 9.44503 15.1084H6.9947C6.92922 15.1084 6.89648 15.0757 6.89648 15.0102V9.97744C6.89648 9.91197 6.92922 9.87923 6.9947 9.87923H9.57655C10.0343 9.87923 10.404 10.0051 10.6874 10.2552C10.9702 10.5058 11.1124 10.8382 11.1124 11.252C11.1124 11.4919 11.0577 11.7041 10.9493 11.8893C10.8398 12.075 10.6981 12.211 10.5237 12.2979ZM9.41285 14.3565C9.78314 14.3565 10.0552 14.2967 10.2296 14.177C10.4035 14.0574 10.491 13.8502 10.491 13.5561C10.491 13.262 10.4035 13.0555 10.2296 12.9352C10.0552 12.8156 9.78258 12.7557 9.41285 12.7557H7.87695C7.78946 12.7557 7.746 12.7885 7.746 12.8539V14.2594C7.746 14.3249 7.78946 14.3577 7.87695 14.3577H9.41285V14.3565ZM7.87695 10.6311C7.81148 10.6311 7.77874 10.6638 7.77874 10.7293V11.9056C7.77874 11.9711 7.81148 12.0039 7.87695 12.0039H9.38012C9.94627 12.0039 10.2296 11.7753 10.2296 11.3175C10.2296 10.8597 9.94627 10.6311 9.38012 10.6311H7.87695ZM15.8184 12.2979C15.8838 12.32 15.9493 12.3527 16.0142 12.3962C16.1881 12.4837 16.319 12.6033 16.4065 12.7557C16.5589 12.9736 16.6351 13.235 16.6351 13.5398C16.6351 14.5857 16.0029 15.1084 14.7397 15.1084H12.2888C12.2233 15.1084 12.1906 15.0757 12.1906 15.0102V9.97744C12.1906 9.91197 12.2233 9.87923 12.2888 9.87923H14.8706C15.3064 9.87923 15.671 10.0051 15.9657 10.2552C16.2598 10.5058 16.4071 10.8382 16.4071 11.252C16.4071 11.4919 16.3523 11.7041 16.244 11.8893C16.1339 12.075 15.9922 12.211 15.8184 12.2979ZM13.1383 10.6311C13.0728 10.6311 13.0401 10.6638 13.0401 10.7293V11.9056C13.0401 11.9711 13.0728 12.0039 13.1383 12.0039H14.6742C15.2404 12.0039 15.5237 11.7753 15.5237 11.3175C15.5237 10.8597 15.2404 10.6311 14.6742 10.6311H13.1383ZM14.7069 14.3565C15.0772 14.3565 15.3493 14.2967 15.5237 14.177C15.6976 14.0574 15.7851 13.8502 15.7851 13.5561C15.7851 13.262 15.6976 13.0555 15.5237 12.9352C15.3493 12.8156 15.0767 12.7557 14.7069 12.7557H13.1383C13.0728 12.7557 13.0401 12.7885 13.0401 12.8539V14.2594C13.0401 14.3249 13.0728 14.3577 13.1383 14.3577H14.7069V14.3565ZM21.3083 9.94471C21.3298 9.90124 21.3518 9.87923 21.3738 9.87923H22.2233C22.2448 9.87923 22.2668 9.89052 22.2888 9.91197C22.3102 9.93398 22.3102 9.95599 22.2888 9.97744L19.5765 15.0757C19.5545 15.0977 19.5274 15.1084 19.4947 15.1084C19.462 15.1084 19.4343 15.0977 19.4129 15.0757L16.7006 9.97744C16.6786 9.95599 16.673 9.93398 16.6842 9.91197C16.695 9.89052 16.7221 9.87923 16.7661 9.87923H17.5829C17.6263 9.87923 17.6591 9.90124 17.6811 9.94471L19.4129 13.2129C19.4129 13.235 19.4343 13.2457 19.4783 13.2457C19.5218 13.2457 19.5545 13.235 19.5765 13.2129L21.3083 9.94471ZM22.2888 14.2916C22.2668 14.3357 22.234 14.3571 22.1906 14.3571H21.3411C21.319 14.3571 21.3027 14.3464 21.2919 14.3244C21.2807 14.3029 21.2756 14.2809 21.2756 14.2589L23.9884 9.16067C24.0098 9.13922 24.0426 9.12793 24.0866 9.12793C24.1301 9.12793 24.1628 9.13922 24.1848 9.16067L26.8965 14.2589C26.8965 14.2809 26.8908 14.3029 26.8801 14.3244C26.8688 14.3464 26.8525 14.3571 26.831 14.3571H25.9815C25.9375 14.3571 25.9047 14.3357 25.8833 14.2916L24.1837 11.0234C24.1617 10.9799 24.1289 10.9579 24.0855 10.9579C24.0414 10.9579 24.0087 10.9799 23.9873 11.0234L22.2888 14.2916Z" fill="#004580"/>
</g>
<rect x="1.39648" y="0.62793" width="31" height="23" rx="3.5" stroke="#E5E5E5"/>
<defs>
<clipPath id="clip0_9153_1531">
<rect x="0.896484" y="0.12793" width="32" height="24" rx="4" fill="white"/>
</clipPath>
</defs>
</svg>
