<svg width="33" height="25" viewBox="0 0 33 25" fill="none" xmlns="http://www.w3.org/2000/svg">
<g clip-path="url(#clip0_9153_368)">
<rect x="0.896484" y="0.12793" width="32" height="24" rx="4" fill="white"/>
<path d="M17.8196 3.12793L25.7631 11.3011C26.2066 11.7521 26.2066 12.5038 25.7631 12.9548L17.8327 21.1279V16.563L21.5631 12.7088C21.8761 12.3944 21.8761 11.8751 21.5631 11.5471L17.8327 7.67918V3.12793H17.8196ZM15.3587 7.67918L11.6283 11.5471C11.3153 11.8614 11.3153 12.3808 11.6283 12.7088L15.3587 16.563V21.1279L7.42831 12.9548C6.98483 12.5038 6.98483 11.7521 7.42831 11.3011L15.3718 3.12793V7.67918H15.3587Z" fill="#00609C"/>
</g>
<rect x="1.39648" y="0.62793" width="31" height="23" rx="3.5" stroke="#E5E5E5"/>
<defs>
<clipPath id="clip0_9153_368">
<rect x="0.896484" y="0.12793" width="32" height="24" rx="4" fill="white"/>
</clipPath>
</defs>
</svg>
