<svg width="33" height="25" viewBox="0 0 33 25" fill="none" xmlns="http://www.w3.org/2000/svg">
<g clip-path="url(#clip0_8585_72450)">
<rect x="0.0273438" y="0.12793" width="32" height="24" rx="4" fill="white"/>
<path d="M5.07428 9.88644C4.7884 8.81951 5.42156 7.72284 6.48849 7.43695L21.9433 3.29585C23.0102 3.00996 24.1069 3.64313 24.3928 4.71006L26.981 14.3693C27.2669 15.4363 26.6337 16.5329 25.5668 16.8188L10.112 20.9599C9.04503 21.2458 7.94835 20.6126 7.66247 19.5457L5.07428 9.88644Z" fill="#F3CE13"/>
<path d="M19.5955 12.2019L19.3731 12.2615L19.2954 12.5575L19.4081 12.5273L19.5955 12.2019Z" fill="#00559E"/>
<path d="M12.9134 14.8505L13.3531 14.7327L13.3212 14.6137L12.8815 14.7315L12.8145 14.4815L13.2764 14.3577L13.2506 14.2358L12.6309 14.4019L12.8695 15.2926L13.4924 15.1257L13.4677 15.0035L12.9888 15.1318L12.9134 14.8505Z" fill="#00559E"/>
<path d="M10.7616 15.0635C10.8066 15.0195 10.8668 14.9871 10.9407 14.9673C11.0237 14.945 11.1079 14.9426 11.1909 14.9601L11.2063 14.9633L11.2396 14.8377L11.2234 14.8339C11.1307 14.8119 11.0243 14.8167 10.9073 14.8481C10.83 14.8688 10.7619 14.8991 10.7046 14.9382C10.6469 14.9776 10.6014 15.0238 10.5694 15.0756C10.5375 15.1272 10.5171 15.185 10.5086 15.2473C10.5003 15.3094 10.505 15.3743 10.5227 15.4405C10.541 15.5088 10.5687 15.5688 10.6051 15.619C10.6415 15.6695 10.6865 15.7101 10.7388 15.7398C10.7913 15.7696 10.8528 15.7873 10.922 15.7926C10.9906 15.7977 11.065 15.7898 11.1435 15.7687C11.2628 15.7368 11.3542 15.6919 11.415 15.6355L11.4242 15.6269L11.3662 15.5191L11.3508 15.5307C11.2777 15.5862 11.2018 15.6248 11.1254 15.6453C11.0661 15.6612 11.0109 15.6668 10.9611 15.6621C10.912 15.6574 10.8689 15.6436 10.833 15.6211C10.797 15.5982 10.7662 15.5683 10.7415 15.5319C10.7165 15.4952 10.6971 15.4514 10.6838 15.4018C10.6661 15.3355 10.6634 15.2727 10.6758 15.2153C10.6882 15.1584 10.717 15.1074 10.7616 15.0635Z" fill="#00559E"/>
<path d="M14.3454 14.0548C14.285 14.0331 14.2171 14.0229 14.1434 14.0241C14.0706 14.0253 13.9898 14.0376 13.9034 14.0608L13.6035 14.1411L13.8422 15.0318L14.1621 14.9461C14.3343 14.9 14.4606 14.8252 14.5376 14.7236C14.6153 14.6209 14.6351 14.4956 14.5964 14.3514C14.5763 14.2762 14.5446 14.2128 14.5021 14.1631C14.4595 14.1132 14.4067 14.0767 14.3454 14.0548ZM13.7871 14.2197L13.9319 14.1809C14.069 14.1441 14.1814 14.1424 14.2662 14.1757C14.3492 14.2084 14.4069 14.2829 14.4375 14.3972C14.4662 14.5042 14.4544 14.5947 14.4026 14.6662C14.3501 14.7387 14.2573 14.7932 14.1269 14.8281L13.9621 14.8723L13.7872 14.2196L13.7871 14.2197Z" fill="#00559E"/>
<path d="M13.1639 13.9251L12.9416 13.9846L12.8637 14.2807L12.9764 14.2505L13.1639 13.9251Z" fill="#00559E"/>
<path d="M12.2518 15.0556C12.2339 15.0398 12.2184 15.0265 12.2055 15.0156C12.2046 15.0149 12.2038 15.0141 12.203 15.0135C12.2537 14.982 12.2906 14.9431 12.3128 14.8977C12.3379 14.846 12.3427 14.7907 12.3272 14.7328C12.3195 14.7039 12.309 14.6784 12.2958 14.6571C12.2828 14.6356 12.2674 14.6175 12.2505 14.6035C12.2333 14.5894 12.2126 14.5787 12.1892 14.5715C12.1665 14.5647 12.1427 14.5605 12.1184 14.5589C12.094 14.5575 12.0663 14.5587 12.0358 14.5624C12.006 14.566 11.9755 14.571 11.9452 14.5775C11.9151 14.5839 11.8808 14.5923 11.8434 14.6023L11.5 14.6943L11.7413 15.5949L11.8956 15.5536L11.788 15.1519L11.9567 15.1112C11.9987 15.1 12.036 15.0891 12.0676 15.0789C12.0845 15.0944 12.1181 15.1293 12.1679 15.1826L12.3881 15.4217L12.5629 15.3749L12.2952 15.0968C12.2845 15.0854 12.2701 15.0717 12.2518 15.0556ZM12.1789 14.7744C12.1919 14.823 12.1862 14.8611 12.1616 14.8909C12.136 14.922 12.08 14.9491 11.9957 14.9718C11.9634 14.9804 11.9175 14.9923 11.8581 15.0074C11.812 15.0192 11.7779 15.0278 11.7561 15.0336L11.6867 14.7742L11.945 14.705C12.0193 14.6851 12.0753 14.6814 12.1113 14.6941C12.1456 14.7064 12.1677 14.7326 12.1789 14.7744Z" fill="#00559E"/>
<path d="M21.3312 12.0703L21.1797 12.1108L21.4184 13.0016L21.5698 12.961L21.3312 12.0703Z" fill="#00559E"/>
<path d="M19.31 12.61L19.1415 13.6117L19.2983 13.5697L19.3491 13.2639L19.7369 13.16L19.9298 13.4004L20.0877 13.3581L19.4533 12.5716L19.31 12.61ZM19.6541 13.0584L19.3718 13.134L19.424 12.7534C19.462 12.8052 19.5391 12.9073 19.6541 13.0584Z" fill="#00559E"/>
<path d="M20.414 12.4771C20.459 12.433 20.5192 12.4006 20.5931 12.3808C20.676 12.3586 20.7602 12.3562 20.8433 12.3737L20.8586 12.3769L20.892 12.2513L20.8758 12.2475C20.7832 12.2254 20.6768 12.2302 20.5596 12.2616C20.4824 12.2823 20.4143 12.3127 20.3569 12.3518C20.2991 12.3913 20.2538 12.4375 20.2218 12.4892C20.1898 12.5409 20.1693 12.5987 20.161 12.6609C20.1528 12.7231 20.1574 12.7881 20.1751 12.8541C20.1934 12.9223 20.2211 12.9824 20.2574 13.0326C20.2941 13.0832 20.3391 13.1239 20.3912 13.1533C20.4435 13.183 20.5051 13.2008 20.5741 13.2061C20.6428 13.2112 20.7173 13.2032 20.7959 13.1822C20.9151 13.1502 21.0064 13.1054 21.0672 13.049L21.0762 13.0404L21.0185 12.9326L21.003 12.9442C20.9298 12.9997 20.854 13.0384 20.7774 13.0589C20.7182 13.0747 20.6629 13.0804 20.6131 13.0756C20.5638 13.071 20.5208 13.0572 20.4852 13.0346C20.449 13.0118 20.4182 12.9818 20.3935 12.9455C20.3684 12.9085 20.349 12.8647 20.3357 12.8152C20.318 12.7491 20.3154 12.6864 20.3279 12.6287C20.3404 12.572 20.3691 12.521 20.414 12.4771Z" fill="#00559E"/>
<path d="M22.0891 12.6925L21.8828 11.9225L21.7305 11.9634L21.9691 12.8541L22.5674 12.6938L22.5406 12.5715L22.0891 12.6925Z" fill="#00559E"/>
<path d="M14.9817 13.7719L14.8301 13.8125L15.0687 14.7032L15.2203 14.6626L14.9817 13.7719Z" fill="#00559E"/>
<path d="M18.3949 13.8121L18.5465 13.7715L18.4437 13.3879L18.8668 13.2746L18.8356 13.1579L18.4125 13.2713L18.34 13.001L18.7829 12.8823L18.7575 12.7603L18.1562 12.9214L18.3949 13.8121Z" fill="#00559E"/>
<path d="M15.2978 13.816L15.6129 13.7316L15.8194 14.5021L15.9717 14.4613L15.7652 13.6908L16.0803 13.6063L16.0481 13.4861L15.2656 13.6958L15.2978 13.816Z" fill="#00559E"/>
<path d="M16.7685 13.2769C16.6113 13.319 16.498 13.3938 16.4318 13.4994C16.3655 13.6051 16.3511 13.7305 16.3889 13.8718C16.4134 13.9631 16.4542 14.0389 16.5104 14.0967C16.5669 14.1551 16.6394 14.1938 16.7258 14.2117C16.8114 14.2293 16.9083 14.224 17.0138 14.1957C17.0919 14.1748 17.1603 14.1445 17.2174 14.1057C17.2747 14.0665 17.3196 14.0206 17.3507 13.9689C17.3816 13.9176 17.4009 13.8599 17.4081 13.7978C17.4154 13.7361 17.4099 13.6708 17.3919 13.6035C17.3542 13.4631 17.2791 13.3618 17.1683 13.3029C17.0579 13.2441 16.9234 13.2354 16.7685 13.2769ZM16.8005 13.3965C16.9123 13.3665 17.0057 13.3735 17.0783 13.4171C17.1512 13.4608 17.203 13.5381 17.232 13.6465C17.2605 13.7528 17.2542 13.8444 17.2134 13.919C17.1728 13.9933 17.095 14.0464 16.9819 14.0767C16.8688 14.107 16.7744 14.1 16.7015 14.0558C16.6282 14.0115 16.5766 13.9354 16.5483 13.8297C16.5192 13.7213 16.526 13.6286 16.5684 13.5539C16.6105 13.4794 16.6887 13.4264 16.8005 13.3965Z" fill="#00559E"/>
<path fill-rule="evenodd" clip-rule="evenodd" d="M7.8004 11.6259C7.91965 11.5092 8.07646 11.4247 8.27097 11.3726C8.48765 11.3145 8.70446 11.3083 8.92139 11.3539L8.98477 11.1154C8.75687 11.0613 8.498 11.0731 8.20789 11.1508C8.0168 11.202 7.85071 11.2759 7.70927 11.3724C7.56775 11.469 7.45811 11.5803 7.38022 11.7065C7.30233 11.8327 7.25298 11.9719 7.23265 12.1239C7.21221 12.276 7.22379 12.4332 7.26727 12.5954C7.31232 12.7636 7.37943 12.9093 7.46857 13.0325C7.55782 13.1557 7.66615 13.2535 7.79344 13.3257C7.92075 13.398 8.0689 13.4404 8.23772 13.4534C8.40654 13.4663 8.58825 13.4467 8.78276 13.3946C9.07858 13.3153 9.30098 13.2064 9.44992 13.068L9.3415 12.8661C9.15176 13.0102 8.95717 13.1089 8.75805 13.1623C8.60317 13.2038 8.46006 13.2182 8.32869 13.2058C8.19741 13.1934 8.08364 13.1568 7.98761 13.0961C7.89145 13.0354 7.81033 12.9566 7.74444 12.8595C7.67845 12.7625 7.62792 12.6489 7.5931 12.519C7.54647 12.345 7.53965 12.1819 7.57257 12.0295C7.60542 11.8773 7.68138 11.7426 7.8004 11.6259ZM11.8722 11.8563C11.8897 11.705 11.8764 11.5468 11.8321 11.3816C11.7397 11.0366 11.5583 10.7921 11.2882 10.648C11.0181 10.5041 10.692 10.4834 10.31 10.5857C9.92209 10.6897 9.64716 10.8706 9.48538 11.1287C9.3236 11.3868 9.28928 11.6893 9.38225 12.0363C9.44251 12.2612 9.54108 12.4444 9.67841 12.5862C9.81567 12.7281 9.98952 12.8208 10.2005 12.8643C10.4112 12.9079 10.647 12.8948 10.9079 12.8249C11.1013 12.7731 11.2682 12.6993 11.4086 12.6035C11.549 12.5078 11.6569 12.3972 11.7325 12.2717C11.8081 12.1462 11.8547 12.0077 11.8722 11.8563ZM10.1087 12.5465C9.91355 12.4285 9.7786 12.2302 9.70399 11.9518C9.62752 11.6664 9.64557 11.4244 9.75839 11.2255C9.87121 11.0266 10.0749 10.8877 10.3696 10.8087C10.6643 10.7298 10.9087 10.7486 11.1029 10.8653C11.297 10.9819 11.4324 11.1829 11.5088 11.4683C11.5838 11.7478 11.567 11.9869 11.4586 12.1857C11.3501 12.3844 11.1468 12.5237 10.8486 12.6036C10.5505 12.6835 10.3038 12.6645 10.1087 12.5465ZM14.2132 11.6063C14.4021 11.3566 14.4494 11.0554 14.3548 10.7025C14.3053 10.5178 14.2287 10.3646 14.125 10.2432C14.0213 10.1216 13.8953 10.0344 13.7468 9.98147C13.5986 9.92857 13.4335 9.90365 13.2522 9.90668C13.0706 9.90968 12.8722 9.94011 12.6567 9.99785L11.9404 10.1898L12.5214 12.3581L13.2884 12.1526C13.7158 12.0381 14.0241 11.856 14.2132 11.6063ZM13.5768 10.2101C13.8002 10.298 13.9524 10.4934 14.0336 10.7964C14.1095 11.0798 14.0779 11.3174 13.9389 11.5092C13.7999 11.7009 13.5604 11.8424 13.2202 11.9336L12.7642 12.0558L12.3018 10.3302L12.7073 10.2216C13.0637 10.1261 13.3535 10.1223 13.5768 10.2101ZM14.5244 9.49742L15.1054 11.6657L16.772 11.2192L16.7118 10.9948L15.3475 11.3604L15.1361 10.5716L16.2456 10.2744L16.1863 10.053L15.0768 10.3503L14.8867 9.64072L16.2509 9.27517L16.1909 9.05088L14.5244 9.49742ZM19.0838 10.5997L19.4548 10.5003L18.8738 8.33198L18.569 8.41367L18.9083 9.68021C18.9214 9.72905 18.9742 9.90824 19.0666 10.2177L18.9428 10.1424L17.0277 8.82666L16.6622 8.92458L17.2432 11.0929L17.55 11.0107L17.2129 9.7528C17.1697 9.59152 17.1156 9.40957 17.0504 9.20712L17.1723 9.28291L19.0838 10.5997ZM20.7486 9.94931C20.4412 10.0317 20.138 10.0533 19.8391 10.0139L19.8047 10.2495C19.9121 10.2732 20.0513 10.2811 20.2221 10.2736C20.393 10.266 20.5821 10.2344 20.7894 10.1789C21.0667 10.1046 21.271 9.98997 21.4023 9.8348C21.5336 9.67964 21.5697 9.49172 21.5105 9.27075C21.4649 9.10073 21.3756 8.984 21.2425 8.92068C21.1094 8.85736 20.9324 8.83274 20.7115 8.84691L20.1939 8.87878C20.0575 8.88699 19.9503 8.87467 19.8721 8.84167C19.794 8.80853 19.7439 8.75056 19.7216 8.66746C19.6559 8.42217 19.8337 8.243 20.2555 8.13C20.3871 8.09474 20.5211 8.07402 20.6574 8.06787C20.7936 8.06175 20.9056 8.06619 20.9934 8.08143L21.0253 7.85134C20.9205 7.82816 20.7961 7.82056 20.6522 7.82875C20.5084 7.83692 20.3585 7.86188 20.2024 7.90373C19.9042 7.98362 19.6841 8.09633 19.542 8.24168C19.4 8.38711 19.3566 8.56298 19.4119 8.76918C19.4839 9.03799 19.7274 9.16124 20.142 9.13919L20.6847 9.1101C20.852 9.10092 20.9736 9.11724 21.0492 9.15935C21.1248 9.20146 21.1751 9.26939 21.2003 9.36325C21.2778 9.65255 21.1271 9.8479 20.7486 9.94931ZM23.3444 8.72109L23.8311 9.32769L24.1422 9.24434L22.5972 7.32958L22.2879 7.41244L21.8778 9.85107L22.1851 9.76871L22.3137 8.99727L23.3444 8.72109ZM22.5119 7.63374C22.5574 7.70115 22.7833 8.00151 23.1897 8.53474L22.358 8.75759L22.5119 7.63374ZM7.37727 14.6149L24.7639 9.95615L24.8064 10.1148L7.41978 14.7736L7.37727 14.6149Z" fill="black"/>
</g>
<rect x="0.527344" y="0.62793" width="31" height="23" rx="3.5" stroke="#E5E5E5"/>
<defs>
<clipPath id="clip0_8585_72450">
<rect x="0.0273438" y="0.12793" width="32" height="24" rx="4" fill="white"/>
</clipPath>
</defs>
</svg>
