<svg width="33" height="25" viewBox="0 0 33 25" fill="none" xmlns="http://www.w3.org/2000/svg">
<g clip-path="url(#clip0_8585_72437)">
<rect x="0.0273438" y="0.12793" width="32" height="24" rx="4" fill="white"/>
<g clip-path="url(#clip1_8585_72437)">
<rect x="4.02734" y="6.12793" width="24" height="12" rx="1" fill="#0D42FB"/>
<path d="M11.1626 12.0853C11.0623 12.0652 10.9821 12.0652 10.8998 12.0652C10.4366 12.0652 10.0335 12.2858 10.0335 13.0118V14.522H9.12695V11.1988H9.99335V11.6821C10.1939 11.2389 10.6572 11.1587 10.94 11.1587C11.0202 11.1587 11.0803 11.1587 11.1405 11.1787V12.0853H11.1626Z" fill="white"/>
<path d="M14.5256 13.5549C14.3651 14.1185 13.8417 14.6018 13.0154 14.6018C12.1089 14.6018 11.3047 13.958 11.3047 12.8309C11.3047 11.764 12.0909 11.0801 12.9352 11.0801C13.962 11.0801 14.5657 11.7239 14.5657 12.7908C14.5657 12.9111 14.5456 13.0535 14.5456 13.0736H12.1891C12.2092 13.5168 12.5722 13.8397 13.0355 13.8397C13.4586 13.8397 13.6792 13.6391 13.8016 13.3363L14.5256 13.5549ZM13.6993 12.488C13.6792 12.1651 13.4787 11.8442 12.9552 11.8442C12.492 11.8442 12.2312 12.1871 12.2112 12.488H13.6993Z" fill="white"/>
<path d="M18.1305 13.9177C18.1305 14.1383 18.1505 14.381 18.1505 14.5214H17.2841C17.2641 14.4612 17.244 14.3008 17.244 14.1383C17.1037 14.4011 16.7607 14.6016 16.3175 14.6016C15.3709 14.6016 14.707 13.8576 14.707 12.8508C14.707 11.8841 15.3508 11.12 16.2974 11.12C16.861 11.12 17.1438 11.3607 17.244 11.5231V9.62988H18.1305C18.1305 9.62788 18.1305 13.9177 18.1305 13.9177ZM16.4599 13.7974C16.9232 13.7974 17.2862 13.4544 17.2862 12.8508C17.2862 12.2672 16.9232 11.9242 16.4599 11.9242C15.9966 11.9242 15.6336 12.2672 15.6336 12.8508C15.6336 13.4344 15.9765 13.7974 16.4599 13.7974Z" fill="white"/>
<path d="M18.9958 11.3004C19.2986 11.3004 19.5393 11.0598 19.5393 10.7569C19.5393 10.4541 19.2986 10.1934 18.9958 10.1934C18.6929 10.1934 18.4523 10.434 18.4523 10.7569C18.4322 11.0377 18.6929 11.3004 18.9958 11.3004Z" fill="white"/>
<path d="M18.5527 11.9242V14.0581V14.5214H19.4392V14.0581V11.9242V11.4609H18.5527V11.9242Z" fill="white"/>
<path d="M25.2971 13.5549C25.1366 14.1185 24.6132 14.6018 23.7869 14.6018C22.8804 14.6018 22.0762 13.958 22.0762 12.8309C22.0762 11.764 22.8623 11.0801 23.7067 11.0801C24.7335 11.0801 25.3372 11.7239 25.3372 12.7908C25.3372 12.9111 25.3171 13.0535 25.3171 13.0736H22.9626C22.9827 13.5168 23.3457 13.8397 23.809 13.8397C24.2321 13.8397 24.4527 13.6391 24.5751 13.3363L25.2971 13.5549ZM24.4728 12.488C24.4527 12.1651 24.2522 11.8442 23.7287 11.8442C23.2655 11.8442 23.0047 12.1871 22.9847 12.488H24.4728Z" fill="white"/>
<path d="M25.6211 14.5214V9.62793H26.5276V14.5014H25.6211V14.5214Z" fill="white"/>
<path d="M21.8143 12.247V11.4408H21.1706V11.1781V10.2114H21.1305H20.3242H20.2641V10.9374V11.4609H19.8008V12.2671H20.2641C20.2641 12.3874 20.2641 12.5078 20.2641 12.6301C20.2641 12.8708 20.2641 13.1134 20.2641 13.3341C20.2641 13.4343 20.2641 13.5346 20.2641 13.6369C20.2641 13.677 20.2641 13.7171 20.2641 13.7572C20.2641 13.8575 20.2841 13.9377 20.3242 14.04C20.4446 14.3228 20.7073 14.5033 21.0081 14.5634C21.0482 14.5634 21.1084 14.5835 21.1686 14.5835C21.2087 14.5835 21.2488 14.5835 21.2889 14.5835C21.5516 14.5835 21.7121 14.5434 21.7923 14.5033V13.7372C21.7522 13.7572 21.6318 13.7572 21.5095 13.7572C21.4092 13.7572 21.3089 13.7372 21.2267 13.677C21.1666 13.6168 21.1465 13.5366 21.1465 13.4564C21.1465 13.3361 21.1465 13.2157 21.1465 13.1134C21.1465 13.0533 21.1465 12.227 21.1465 12.227C21.1706 12.247 21.8143 12.247 21.8143 12.247Z" fill="white"/>
<path d="M8.06235 13.2324C7.98212 13.4951 7.75951 13.796 7.29623 13.796C6.83295 13.796 6.44989 13.453 6.44989 12.8494C6.44989 12.2457 6.83295 11.9228 7.29623 11.9228C7.73945 11.9228 7.96006 12.2056 8.04028 12.4864L8.84651 12.2236C8.82646 12.1635 8.8064 12.1033 8.78635 12.0431C8.48551 11.5217 7.92196 11.1587 7.25812 11.1587C6.55418 11.1587 5.94851 11.5819 5.66773 12.1655C5.58751 12.3861 5.52734 12.6087 5.52734 12.8694C5.52734 13.5332 5.85024 14.0768 6.35363 14.3796C6.37368 14.3996 6.39374 14.3996 6.41379 14.4197C6.65446 14.5601 6.93724 14.6203 7.24007 14.6203C7.90391 14.6203 8.46746 14.2572 8.7703 13.7137C8.81041 13.6536 8.83047 13.5734 8.85052 13.4931L8.06235 13.2324Z" fill="#F5D912"/>
</g>
</g>
<rect x="0.527344" y="0.62793" width="31" height="23" rx="3.5" stroke="#E5E5E5"/>
<defs>
<clipPath id="clip0_8585_72437">
<rect x="0.0273438" y="0.12793" width="32" height="24" rx="4" fill="white"/>
</clipPath>
<clipPath id="clip1_8585_72437">
<rect width="24" height="24" fill="white" transform="translate(4.02734 0.12793)"/>
</clipPath>
</defs>
</svg>
