<svg width="33" height="25" viewBox="0 0 33 25" fill="none" xmlns="http://www.w3.org/2000/svg">
<g clip-path="url(#clip0_8585_72461)">
<rect x="0.0273438" y="0.12793" width="32" height="24" rx="4" fill="white"/>
<path d="M17.5724 19.1278C21.4699 19.1462 25.0273 16.0073 25.0273 12.1887C25.0273 8.01291 21.4699 5.12654 17.5724 5.12793H14.2181C10.2738 5.12654 7.02734 8.01377 7.02734 12.1887C7.02734 16.0081 10.2738 19.1462 14.2181 19.1278H17.5724Z" fill="#0079BE"/>
<path d="M14.2345 5.70654C10.6304 5.70765 7.70983 8.57569 7.70898 12.1154C7.70983 15.6545 10.6303 18.5223 14.2345 18.5234C17.8395 18.5223 20.7606 15.6545 20.7611 12.1154C20.7606 8.57569 17.8395 5.70765 14.2345 5.70654ZM10.0982 12.1154C10.1016 10.3857 11.2019 8.91072 12.7536 8.32458V15.9054C11.2019 15.3196 10.1015 13.8454 10.0982 12.1154ZM15.7149 15.907V8.32433C17.2671 8.90905 18.3692 10.3849 18.372 12.1154C18.3692 13.8465 17.2671 15.3212 15.7149 15.907Z" fill="white"/>
</g>
<rect x="0.527344" y="0.62793" width="31" height="23" rx="3.5" stroke="#E5E5E5"/>
<defs>
<clipPath id="clip0_8585_72461">
<rect x="0.0273438" y="0.12793" width="32" height="24" rx="4" fill="white"/>
</clipPath>
</defs>
</svg>
