<svg width="33" height="25" viewBox="0 0 33 25" fill="none" xmlns="http://www.w3.org/2000/svg">
<g clip-path="url(#clip0_8585_72448)">
<rect x="0.0273438" y="0.12793" width="32" height="24" rx="4" fill="white"/>
<path d="M16.0273 22.1279C21.5502 22.1279 26.0273 17.6508 26.0273 12.1279C26.0273 6.60508 21.5502 2.12793 16.0273 2.12793C10.5045 2.12793 6.02734 6.60508 6.02734 12.1279C6.02734 17.6508 10.5045 22.1279 16.0273 22.1279Z" fill="#F9D94A"/>
<path fill-rule="evenodd" clip-rule="evenodd" d="M17.5183 4.12793C21.8526 4.12793 24.7071 7.70433 23.8868 12.1279C23.0665 16.5515 18.8818 20.1279 14.5419 20.1279C10.202 20.1279 7.34758 16.5515 8.16789 12.1279C8.99374 7.71002 13.1729 4.12793 17.5183 4.12793ZM19.5857 5.16844C22.2739 6.13504 23.8314 8.88699 23.2272 12.1279C22.5233 15.909 19.1368 19.0249 15.4564 19.4172C15.1627 19.4058 15.1571 19.2409 15.1516 18.9851C15.1682 18.462 15.1849 17.9332 15.1959 17.4101C15.2015 17.3305 15.1738 17.3077 15.1405 17.2964C14.7636 17.2566 14.3923 17.1713 14.0209 17.0519C13.6218 16.8927 13.2228 16.6596 12.8237 16.3923C12.6408 16.3013 12.663 15.8635 12.6685 15.693C12.7018 15.3802 12.9235 14.6638 13.2837 14.6297C13.7105 14.607 13.9156 14.8401 14.3424 15.0505C15.0906 15.4144 16.1326 15.6247 16.9031 15.2551C17.2744 15.022 17.3631 14.7093 17.1913 14.3113C16.8864 13.6631 15.4398 13.1286 14.7858 12.8045C13.2117 12.1166 12.3359 10.7235 12.6131 9.06325C12.8182 7.84079 13.9378 6.90831 15.1073 6.73774V6.16347C13.6606 6.59559 12.5632 7.44847 11.5766 8.43781C10.1466 9.87064 9.30413 11.6844 9.23762 13.9986C9.34847 16.8301 10.784 18.0867 12.2861 19.0249C9.70874 18.0014 8.2344 15.3006 8.82746 12.1279C9.548 8.24449 13.1008 5.0661 16.8975 4.81023C17.0472 4.90121 17.0583 4.91826 17.1359 5.12295C17.1026 5.61194 17.0749 6.10092 17.0416 6.58991C17.7899 6.74342 18.4994 6.96517 19.0702 7.45984C19.0869 8.58564 18.2666 9.05188 17.9562 8.8813C17.9728 8.83013 16.7202 8.47192 16.4597 8.40938C16.1437 8.35821 15.8333 8.37526 15.5174 8.5231C15.1516 8.69936 14.9742 8.96659 15.1516 9.38735C15.3013 9.70007 15.5507 9.89907 15.8278 10.0753C16.6149 10.5131 17.4019 10.951 18.1945 11.3888C18.8763 11.7811 19.3585 12.2871 19.6744 12.9069C19.9016 13.5153 19.9515 14.135 19.8185 14.7662C19.6633 15.2779 19.4749 15.7271 19.1866 16.0057C18.9483 16.2843 18.6823 16.506 18.3996 16.6596C18.0005 16.8756 17.5959 17.0689 17.1802 17.1372C17.1691 17.3987 17.158 17.6546 17.1414 17.9161C17.1747 17.9332 17.2079 17.9275 17.2467 17.9161C18.1391 17.6205 18.9206 17.1031 19.6855 16.5345C20.6776 15.6361 21.6032 14.6979 22.0854 13.4868C22.418 12.8102 22.673 12.0597 22.7949 11.1784C23.0609 8.71073 22.1852 6.38521 19.5857 5.16844Z" fill="black"/>
</g>
<rect x="0.527344" y="0.62793" width="31" height="23" rx="3.5" stroke="#E5E5E5"/>
<defs>
<clipPath id="clip0_8585_72448">
<rect x="0.0273438" y="0.12793" width="32" height="24" rx="4" fill="white"/>
</clipPath>
</defs>
</svg>
