<svg width="33" height="25" viewBox="0 0 33 25" fill="none" xmlns="http://www.w3.org/2000/svg">
<g clip-path="url(#clip0_9153_2929)">
<rect x="0.896484" y="0.12793" width="32" height="24" rx="4" fill="white"/>
<path d="M15.4692 7.66142C15.944 7.5047 16.4504 7.42112 16.9759 7.42112C19.2761 7.42112 21.1964 9.03846 21.6353 11.1886L24.8957 10.5304C24.1486 6.87783 20.8862 4.12793 16.9759 4.12793C16.079 4.12793 15.2202 4.27211 14.4141 4.53958L15.4692 7.66142Z" fill="#FFCB05"/>
<path d="M11.6229 18.1217L13.8281 15.6539C12.8448 14.7909 12.2243 13.5309 12.2243 12.1267C12.2243 10.7246 12.8448 9.46459 13.8281 8.60368L11.6229 6.13379C9.95161 7.60068 8.89648 9.7425 8.89648 12.1267C8.89648 14.513 9.95161 16.6549 11.6229 18.1217Z" fill="#00A4E0"/>
<path d="M21.6353 13.0713C21.1943 15.2194 19.2761 16.8346 16.978 16.8346C16.4504 16.8346 15.9419 16.751 15.4692 16.5922L14.4141 19.7183C15.2202 19.9836 16.0812 20.1278 16.978 20.1278C20.8841 20.1278 24.1444 17.3821 24.8957 13.7337L21.6353 13.0713Z" fill="#EF4123"/>
</g>
<rect x="1.39648" y="0.62793" width="31" height="23" rx="3.5" stroke="#E5E5E5"/>
<defs>
<clipPath id="clip0_9153_2929">
<rect x="0.896484" y="0.12793" width="32" height="24" rx="4" fill="white"/>
</clipPath>
</defs>
</svg>
