<svg width="33" height="25" viewBox="0 0 33 25" fill="none" xmlns="http://www.w3.org/2000/svg">
<g clip-path="url(#clip0_9153_2950)">
<rect x="0.896484" y="0.12793" width="32" height="24" rx="4" fill="white"/>
<g clip-path="url(#clip1_9153_2950)">
<path d="M11.9359 7.12793H9.65582C8.64837 7.17591 7.82485 7.58464 7.58706 8.42749C7.46307 8.86706 7.39484 9.34983 7.29788 9.80549C6.805 12.1224 6.36795 14.5031 5.89648 16.7738H23.6478C25.0201 16.7738 25.9623 16.4817 26.217 15.3846C26.3353 14.875 26.4486 14.2977 26.5618 13.7378C27.003 11.5546 27.4446 9.37153 27.8965 7.12793H11.9359Z" fill="#B82126"/>
<path d="M21.095 12.891C20.8488 13.1338 20.1578 13.2027 20.2285 12.6225C20.2872 12.1405 20.8081 12.0381 21.3727 12.1077C21.3307 12.3713 21.2826 12.706 21.095 12.891ZM20.3173 11.011C20.2938 11.144 20.2577 11.2643 20.2285 11.3915C20.5104 11.3203 21.3882 11.102 21.4727 11.481C21.5008 11.6069 21.4524 11.7407 21.4172 11.8391C20.6234 11.7634 19.9764 11.8962 19.8063 12.4658C19.6923 12.8473 19.819 13.2227 20.0618 13.3275C20.5294 13.5292 21.0981 13.2981 21.295 12.9806C21.2745 13.0905 21.2552 13.2015 21.2616 13.3386H21.6727C21.677 12.9421 21.7343 12.6211 21.7949 12.2643C21.8465 11.9605 21.9436 11.6597 21.9282 11.3915C21.8929 10.7773 20.8828 10.9946 20.3173 11.011ZM24.439 13.0812C24.1174 13.0882 23.9575 12.8877 23.9502 12.5553C23.9374 11.9732 24.1909 11.3264 24.7056 11.2684C24.9453 11.2414 25.1188 11.2976 25.2945 11.358C25.1332 12.0118 25.1914 13.065 24.439 13.0812ZM25.5055 10.0039C25.4646 10.3655 25.4098 10.7132 25.3389 11.0446C24.1671 10.671 23.4484 11.5394 23.4613 12.6112C23.4639 12.8185 23.4993 13.0241 23.628 13.1708C23.8498 13.4235 24.485 13.4839 24.8056 13.2715C24.8677 13.2304 24.9311 13.1556 24.9723 13.1037C25.0032 13.0646 25.0523 12.9623 25.0611 12.9917C25.0443 13.1053 25.0191 13.2105 25.0167 13.3386H25.45C25.5335 12.1321 25.7917 11.1016 25.9833 10.0039H25.5055ZM13.2738 12.9022C13.0182 13.1749 12.3899 13.1707 12.3406 12.712C12.3191 12.5123 12.393 12.303 12.4295 12.0965C12.4664 11.8875 12.493 11.6869 12.5294 11.5034C12.7812 11.1938 13.5209 11.1564 13.596 11.6713C13.6611 12.1183 13.4855 12.6764 13.2738 12.9022ZM13.6515 11.011C13.2472 10.8581 12.7544 11.0407 12.5408 11.2144C12.5415 11.222 12.5357 11.2231 12.5294 11.2236C12.5331 11.2206 12.537 11.2175 12.5408 11.2144C12.5408 11.2137 12.5407 11.2132 12.5405 11.2125C12.5442 11.1377 12.5703 11.0857 12.5739 11.011H12.1628C11.9915 12.159 11.7884 13.2748 11.574 14.3793H12.0517C12.1209 13.9491 12.1665 13.4953 12.2628 13.0925C12.3719 13.5162 13.0843 13.4352 13.3849 13.2715C14.0051 12.9337 14.4835 11.3258 13.6515 11.011ZM15.9179 11.8167H14.7958C14.8313 11.5569 15.0634 11.2713 15.429 11.2572C15.7732 11.244 16.0196 11.3845 15.9179 11.8167ZM15.4624 10.9663C15.1172 10.9931 14.8254 11.0931 14.6181 11.3132C14.3637 11.5831 14.1578 12.1798 14.2181 12.7232C14.3042 13.4984 15.2625 13.4706 16.029 13.2827C16.042 13.1466 16.0747 13.0303 16.0956 12.9022C15.7799 13.0212 15.2317 13.1874 14.9069 12.9806C14.6617 12.8244 14.6603 12.429 14.7403 12.0853C15.2554 12.0688 15.7908 12.072 16.3067 12.0853C16.3395 11.8417 16.4331 11.5762 16.3512 11.3356C16.243 11.018 15.8562 10.9357 15.4624 10.9663ZM11.2629 11.011C11.25 11.0129 11.2509 11.0287 11.2518 11.0446C11.1466 11.8375 11.0041 12.593 10.8519 13.3386H11.3296C11.4444 12.5404 11.5759 11.759 11.7406 11.011H11.2629ZM23.728 11.0222C23.3058 10.8096 22.9543 11.1664 22.817 11.3803C22.8561 11.2705 22.8584 11.1236 22.8948 11.011H22.4726C22.3588 11.8103 22.2215 12.5859 22.0615 13.3386H22.5504C22.5535 13.0301 22.6136 12.8019 22.6614 12.4994C22.7636 11.8534 22.9136 11.1449 23.6614 11.358C23.6862 11.2487 23.6965 11.1248 23.728 11.0222ZM18.362 12.7903C18.318 12.6757 18.3066 12.4865 18.3176 12.3427C18.3423 12.0193 18.4592 11.6257 18.6398 11.4475C18.8889 11.2015 19.3807 11.2422 19.7729 11.3803C19.7851 11.2471 19.8117 11.1284 19.8285 10.9999C19.1851 10.894 18.5746 10.9599 18.2509 11.302C17.9341 11.6369 17.7263 12.4067 17.8732 12.891C18.0451 13.4578 18.8157 13.4886 19.4397 13.2715C19.4673 13.1576 19.4819 13.0306 19.5063 12.9134C19.1654 13.0918 18.5135 13.1846 18.362 12.7903ZM18.0954 11.011C17.6718 10.8387 17.3388 11.1299 17.1844 11.4027C17.2194 11.2814 17.2339 11.1392 17.2622 11.011H16.84C16.7368 11.8173 16.5847 12.5742 16.4401 13.3386H16.9178C16.9848 12.8848 17.0137 12.2732 17.1622 11.8391C17.2809 11.4923 17.5916 11.1968 18.0398 11.358C18.0461 11.23 18.0825 11.1323 18.0954 11.011ZM10.3964 10.071C10.3282 10.5171 10.2513 10.9544 10.1742 11.3915C9.67929 11.3968 9.17398 11.4161 8.69662 11.3803C8.78678 10.9527 8.85144 10.4993 8.94099 10.071H8.40777C8.21685 11.1619 8.04322 12.2702 7.83008 13.3386H8.37443C8.45984 12.7905 8.53969 12.2368 8.65214 11.716C9.1163 11.7045 9.6726 11.6844 10.1186 11.7272C10.0267 12.2687 9.91555 12.7909 9.82979 13.3386H10.3742C10.5491 12.2317 10.7334 11.1341 10.9519 10.071H10.3964ZM11.7518 10.5634C11.847 10.4974 11.9697 10.1963 11.8295 10.071C11.7852 10.0314 11.7109 10.0199 11.6073 10.0375C11.5113 10.0538 11.456 10.0867 11.4185 10.1382C11.3581 10.221 11.3028 10.4707 11.3962 10.5634C11.4873 10.6538 11.6912 10.6054 11.7518 10.5634Z" fill="white"/>
</g>
</g>
<rect x="1.39648" y="0.62793" width="31" height="23" rx="3.5" stroke="#E5E5E5"/>
<defs>
<clipPath id="clip0_9153_2950">
<rect x="0.896484" y="0.12793" width="32" height="24" rx="4" fill="white"/>
</clipPath>
<clipPath id="clip1_9153_2950">
<rect width="22" height="9.65161" fill="white" transform="translate(5.89648 7.12793)"/>
</clipPath>
</defs>
</svg>
