<svg width="33" height="25" viewBox="0 0 33 25" fill="none" xmlns="http://www.w3.org/2000/svg">
<g clip-path="url(#clip0_8585_72462)">
<rect x="0.0273438" y="0.12793" width="32" height="24" rx="4" fill="white"/>
<path fill-rule="evenodd" clip-rule="evenodd" d="M7.92249 7.80485L15.9645 3.12793L24.0082 7.80481V10.6484L22.1573 10.6505V15.8525H23.1801L25.0273 20.196H7.02734L8.73592 15.8525H9.78135V10.6643L7.92249 10.6664V7.80485ZM9.57884 17.0899L8.84374 18.9586H23.1565L22.3617 17.0899H9.57884ZM20.92 15.8525V10.6519L16.5832 10.6567V15.8525H20.92ZM11.0187 10.6629L15.3459 10.6581V15.8525H11.0187V10.6629ZM9.15986 8.51665V9.42765L22.7709 9.41245V8.51669L15.9646 4.55929L9.15986 8.51665Z" fill="#009EE3"/>
</g>
<rect x="0.527344" y="0.62793" width="31" height="23" rx="3.5" stroke="#E5E5E5"/>
<defs>
<clipPath id="clip0_8585_72462">
<rect x="0.0273438" y="0.12793" width="32" height="24" rx="4" fill="white"/>
</clipPath>
</defs>
</svg>
