<svg width="33" height="25" viewBox="0 0 33 25" fill="none" xmlns="http://www.w3.org/2000/svg">
<g clip-path="url(#clip0_8585_72436)">
<rect x="0.0273438" y="0.12793" width="32" height="24" rx="4" fill="white"/>
<path fill-rule="evenodd" clip-rule="evenodd" d="M25.9004 19.0689H8.14339C6.97474 19.0689 6.02734 18.1745 6.02734 17.0712V5.24779C6.02734 5.18163 6.08418 5.12793 6.15431 5.12793H23.9113C25.0799 5.12793 26.0273 6.02233 26.0273 7.12564V18.949C26.0273 19.0152 25.9705 19.0689 25.9004 19.0689Z" fill="white"/>
<path fill-rule="evenodd" clip-rule="evenodd" d="M14.9021 15.5709C14.9304 15.5655 15.0219 15.5563 15.1076 15.5301C15.5364 15.399 15.8169 14.9911 15.8081 14.5193C15.7996 14.0669 15.4973 13.6617 15.0791 13.542C14.5989 13.4047 14.0971 13.6755 13.9213 14.1669C13.6708 14.8665 14.133 15.5736 14.9021 15.5709ZM15.8106 12.7283C15.8106 12.1117 15.8193 11.5337 15.8056 10.9561C15.8011 10.7654 15.8692 10.7139 16.0581 10.722C16.3323 10.7339 16.6076 10.7286 16.8823 10.7239C17.0145 10.7216 17.0696 10.7626 17.0692 10.8965C17.065 12.1604 17.1007 13.4253 17.0566 14.6878C17.0144 15.8965 15.9949 16.7407 14.7213 16.6941C13.5321 16.6505 12.5942 15.7525 12.5899 14.6096C12.586 13.5938 13.1594 12.7634 14.0775 12.4892C14.6708 12.312 15.2441 12.3728 15.8106 12.7283Z" fill="#CA2939"/>
<path fill-rule="evenodd" clip-rule="evenodd" d="M7.09194 5.12803C7.07772 5.22667 7.05787 5.24429 7.05783 5.31892C7.05631 9.20087 7.05389 13.0828 7.05804 16.9648C7.05931 18.1729 7.96443 19.0344 9.23296 19.0513C9.24582 19.0515 9.24464 19.0513 9.25759 19.0513C9.35285 19.0513 9.33529 19.0525 9.29288 19.0513C9.28116 19.0509 9.2694 19.0513 9.25759 19.0513C8.97306 19.0515 8.6728 19.0682 8.35691 19.0682C6.98521 19.0681 6.07133 18.2095 6.07099 16.9167C6.07002 13.068 6.07035 9.27634 6.07044 5.42768C6.07044 5.13182 6.07433 5.12846 6.39009 5.12807C6.62717 5.12779 6.86425 5.12803 7.09194 5.12803Z" fill="#CA2939"/>
<path fill-rule="evenodd" clip-rule="evenodd" d="M18.5768 14.3361C19.159 14.1037 19.6992 13.8881 20.2681 13.661C19.9312 13.4191 19.5993 13.366 19.2435 13.4963C18.8625 13.6359 18.6633 13.9159 18.5768 14.3361ZM18.8861 15.3161C19.2933 15.7336 19.9955 15.7053 20.3545 15.2848C20.4098 15.22 20.5201 15.1668 20.608 15.1623C20.9033 15.1472 21.1999 15.156 21.4961 15.1568C21.7405 15.1574 21.7659 15.1916 21.674 15.4166C21.3806 16.1347 20.8107 16.5325 20.0213 16.6547C18.8124 16.8418 17.7275 16.1574 17.4345 15.0352C17.1963 14.1232 17.6238 13.1524 18.4814 12.6578C19.2922 12.1901 20.3583 12.2785 21.0773 12.8782C21.445 13.1849 21.6415 13.5838 21.7505 14.0283C21.7846 14.1678 21.688 14.1968 21.5867 14.2369C20.7558 14.5656 19.9258 14.8962 19.0957 15.2266C19.0315 15.2522 18.9687 15.2808 18.8861 15.3161Z" fill="#CA2939"/>
<path fill-rule="evenodd" clip-rule="evenodd" d="M8.35891 12.8935C8.35891 12.2284 8.36382 11.5634 8.35552 10.8984C8.35341 10.7304 8.41519 10.6753 8.58799 10.6816C8.85529 10.6914 9.12352 10.691 9.39086 10.6818C9.56582 10.6757 9.6232 10.7374 9.62248 10.9026C9.61694 12.1528 9.61931 13.4031 9.61952 14.6533C9.61965 15.2386 9.94467 15.5147 10.5701 15.4507C10.7023 15.4372 10.7533 15.4738 10.7523 15.596C10.7498 15.8686 10.7484 16.1413 10.7529 16.4139C10.7549 16.5358 10.6893 16.5724 10.5733 16.5847C9.27769 16.7231 8.36073 15.9562 8.35903 14.7289C8.35819 14.1171 8.35886 13.5053 8.35891 12.8935Z" fill="#CA2939"/>
<path fill-rule="evenodd" clip-rule="evenodd" d="M22.1696 13.785C22.3669 12.5923 23.4969 12.273 24.3598 12.3788C24.4782 12.3934 24.5109 12.4485 24.5094 12.5513C24.5055 12.8175 24.5047 13.0838 24.5095 13.3499C24.5117 13.4731 24.4585 13.5135 24.3308 13.5047C24.2052 13.4962 24.0751 13.4911 23.9523 13.5122C23.5967 13.5733 23.3788 13.8362 23.3771 14.2001C23.3737 14.9122 23.37 15.6244 23.3801 16.3364C23.3827 16.5221 23.3371 16.6011 23.1244 16.5874C22.8648 16.5706 22.6026 16.5748 22.3423 16.5864C22.1704 16.594 22.1064 16.5456 22.1116 16.3753C22.1236 15.9896 22.1154 15.6034 22.1154 15.2174C22.1293 15.2174 22.0925 14.2517 22.1696 13.785Z" fill="#CA2939"/>
<path fill-rule="evenodd" clip-rule="evenodd" d="M11.0261 14.5446C11.0261 13.9328 11.0314 13.321 11.0227 12.7094C11.0203 12.5346 11.0826 12.4722 11.2671 12.4796C11.5413 12.4906 11.8164 12.4863 12.091 12.4811C12.2354 12.4784 12.2874 12.5314 12.2869 12.6695C12.283 13.9129 12.283 15.1563 12.2868 16.3998C12.2873 16.5387 12.237 16.5866 12.09 16.5817C11.7837 16.5913 11.6497 16.5798 11.2873 16.5829C11.0865 16.5941 11.0176 16.5361 11.0216 16.3398C11.0339 15.7416 11.0261 15.143 11.0261 14.5446Z" fill="#CA2939"/>
<path fill-rule="evenodd" clip-rule="evenodd" d="M12.3019 10.7314C12.3019 11.0844 12.306 11.4336 12.2955 11.7824C12.2944 11.8169 12.2045 11.8764 12.1543 11.8779C11.8387 11.8867 11.5228 11.8818 11.2069 11.883C11.105 11.8833 11.0275 11.8556 11.0788 11.7449C11.3024 11.262 11.668 10.9138 12.1942 10.7247C12.2172 10.7164 12.2479 10.7274 12.3019 10.7314Z" fill="#CA2939"/>
<path fill-rule="evenodd" clip-rule="evenodd" d="M25.9004 19.0689H8.14339C6.97474 19.0689 6.02734 18.1745 6.02734 17.0712V5.24779C6.02734 5.18163 6.08418 5.12793 6.15431 5.12793H23.9113C25.0799 5.12793 26.0273 6.02233 26.0273 7.12564V18.949C26.0273 19.0152 25.9705 19.0689 25.9004 19.0689V19.0689Z" stroke="#CA2939" stroke-width="0.590909"/>
</g>
<rect x="0.527344" y="0.62793" width="31" height="23" rx="3.5" stroke="#E5E5E5"/>
<defs>
<clipPath id="clip0_8585_72436">
<rect x="0.0273438" y="0.12793" width="32" height="24" rx="4" fill="white"/>
</clipPath>
</defs>
</svg>
