<svg width="48" height="26" viewBox="0 0 48 26" fill="none" xmlns="http://www.w3.org/2000/svg">
<rect width="48" height="26" rx="2" fill="white"/>
<path d="M23.5035 3.37549C15.6452 3.37549 9.27536 7.43609 9.27536 12.4456C9.27536 17.4551 15.6452 21.9089 23.5035 21.9089C31.3619 21.9089 37.7314 17.4547 37.7314 12.4456C37.7314 7.43645 31.3615 3.37549 23.5035 3.37549Z" fill="#00BCFF"/>
<path d="M18.8739 9.64196C18.8668 9.65578 18.7278 9.7991 18.818 9.91432C19.0378 10.1944 19.7175 10.355 20.4048 10.2013C20.814 10.1098 21.3384 9.69394 21.8465 9.29231C22.3316 8.85331 22.888 8.49975 23.4921 8.24676C23.878 8.10595 24.2996 8.09497 24.6923 8.21548C25.0911 8.36312 25.4613 8.57835 25.7864 8.85166C26.7402 9.56636 30.5758 12.9026 31.2388 13.4791C33.2753 12.6352 35.3838 11.9752 37.5388 11.507C37.2585 9.79456 36.2249 8.16205 34.6392 6.87923C32.4289 7.80428 29.5477 8.35816 26.9067 7.07311C26.0093 6.6683 25.0391 6.44845 24.0543 6.42676C21.9589 6.47533 21.0512 7.37883 20.0907 8.33538L18.8739 9.64196Z" fill="white"/>
<path d="M31.083 13.8424C31.0378 13.8022 26.5731 9.9091 25.5614 9.15149C25.2089 8.83906 24.7743 8.63342 24.3086 8.55875C24.1081 8.54284 23.9063 8.56217 23.7125 8.61586C23.1152 8.84004 22.5626 9.16819 22.0804 9.58502C21.5151 10.034 20.9818 10.4566 20.4866 10.5672C19.8882 10.6897 19.2657 10.5965 18.7299 10.3042C18.6044 10.2277 18.5033 10.1173 18.4383 9.98584C18.4025 9.88511 18.3976 9.77604 18.4242 9.67252C18.4508 9.569 18.5077 9.4757 18.5877 9.4045L19.8199 8.07641C19.9633 7.93412 20.1073 7.79141 20.2554 7.65124C19.8753 7.70817 19.4999 7.7924 19.1321 7.90329C18.7085 8.0435 18.2677 8.12543 17.8218 8.1468C17.3726 8.10149 16.9261 8.03194 16.4843 7.93848C15.1672 7.6305 13.8815 7.20175 12.6437 6.65771C10.8919 7.95718 9.75117 9.55267 9.41266 11.3422C9.66435 11.4085 10.3239 11.5583 10.4943 11.596C14.4587 12.4743 15.6932 13.379 15.9172 13.568C16.0489 13.4203 16.2126 13.3042 16.3958 13.2286C16.5791 13.1529 16.7771 13.1196 16.9751 13.1313C17.1731 13.1429 17.3659 13.1991 17.539 13.2957C17.712 13.3922 17.8609 13.5266 17.9743 13.6888C18.2417 13.4734 18.5753 13.3564 18.9191 13.3575C19.1123 13.3593 19.3038 13.3928 19.4861 13.4565C19.6627 13.5127 19.8253 13.606 19.9629 13.7299C20.1005 13.8538 20.21 14.0055 20.284 14.175C20.4573 14.0968 20.6454 14.0569 20.8356 14.0581C21.0631 14.0609 21.2875 14.1103 21.4951 14.203C21.7837 14.3378 22.0178 14.5663 22.1592 14.851C22.3006 15.1356 22.3408 15.4597 22.2732 15.7701C22.3257 15.7645 22.3784 15.7617 22.4311 15.7618C22.8478 15.7625 23.2472 15.9278 23.5417 16.2214C23.8363 16.5151 24.002 16.9132 24.0025 17.3284C24.0025 17.5866 23.9378 17.8408 23.8144 18.0678C24.2247 18.3177 24.6987 18.4442 25.1794 18.4321C25.2992 18.4321 25.4178 18.4075 25.5277 18.3598C25.6376 18.312 25.7364 18.2422 25.8179 18.1546C25.8574 18.0991 25.8986 18.0342 25.8603 17.9873L24.7417 16.7495C24.7417 16.7495 24.5577 16.5759 24.6185 16.509C24.6813 16.4401 24.7951 16.5389 24.8759 16.606C25.445 17.0796 26.1398 17.7946 26.1398 17.7946C26.152 17.8024 26.1977 17.893 26.4547 17.939C26.6083 17.9656 26.7658 17.9611 26.9177 17.9258C27.0695 17.8905 27.2127 17.8251 27.3387 17.7335C27.41 17.674 27.4752 17.6075 27.5333 17.5351C27.5294 17.5389 27.525 17.5423 27.5203 17.5452C27.5987 17.4372 27.6382 17.3059 27.6323 17.1728C27.6265 17.0396 27.5758 16.9123 27.4883 16.8114L26.1824 15.3502C26.1824 15.3502 25.9956 15.1778 26.0596 15.1092C26.1163 15.049 26.2363 15.1397 26.3183 15.2074C26.7315 15.552 27.3157 16.1357 27.8756 16.6827C28.0622 16.8085 28.2841 16.8721 28.5093 16.8643C28.7344 16.8565 28.9513 16.7778 29.1288 16.6394C29.2741 16.5595 29.3944 16.4409 29.4762 16.297C29.558 16.153 29.5982 15.9893 29.5923 15.8239C29.564 15.6172 29.4669 15.4259 29.3165 15.2808L27.5333 13.4935C27.5333 13.4935 27.3445 13.3331 27.4113 13.2522C27.466 13.1839 27.5876 13.2821 27.6683 13.349C28.2362 13.8228 29.7742 15.2284 29.7742 15.2284C29.9554 15.3449 30.1674 15.4049 30.3831 15.4006C30.5987 15.3963 30.8082 15.328 30.9846 15.2044C31.0979 15.1383 31.1933 15.0457 31.2626 14.9346C31.3318 14.8234 31.3728 14.6971 31.3819 14.5666C31.3872 14.4316 31.3632 14.297 31.3117 14.1721C31.2601 14.0471 31.1821 13.9347 31.083 13.8424V13.8424Z" fill="white"/>
<path d="M22.4309 16.1074C22.2214 16.1367 22.0145 16.1824 21.8122 16.244C21.7902 16.2299 21.8292 16.119 21.8549 16.0552C21.8818 15.992 22.246 14.8996 21.358 14.5206C21.1593 14.4143 20.9315 14.3748 20.7084 14.408C20.4854 14.4411 20.279 14.5451 20.1201 14.7045C20.0829 14.7431 20.066 14.7399 20.0619 14.6911C20.0566 14.4872 19.9874 14.29 19.8639 14.1273C19.7405 13.9645 19.569 13.8444 19.3735 13.7837C19.0967 13.6988 18.7997 13.7053 18.5269 13.8022C18.2541 13.8992 18.02 14.0813 17.8595 14.3216C17.8309 14.1062 17.7303 13.9067 17.5739 13.7554C17.4175 13.604 17.2144 13.5096 16.9976 13.4875C16.7807 13.4653 16.5627 13.5166 16.3787 13.6332C16.1947 13.7497 16.0555 13.9247 15.9837 14.1298C15.9118 14.3349 15.9114 14.5582 15.9826 14.7635C16.0537 14.9688 16.1923 15.1443 16.3759 15.2615C16.5595 15.3786 16.7773 15.4307 16.9943 15.4093C17.2112 15.3879 17.4146 15.2942 17.5715 15.1434C17.5771 15.1485 17.5792 15.1575 17.5765 15.1759C17.5108 15.4751 17.5554 15.7879 17.7022 16.0571C17.849 16.3262 18.0881 16.5337 18.3758 16.6416C18.5312 16.7013 18.6996 16.7194 18.8642 16.6941C19.0288 16.6688 19.1839 16.6009 19.3141 16.4973C19.3911 16.4432 19.4036 16.466 19.3928 16.5383C19.3597 16.7623 19.4018 17.2421 20.0767 17.5144C20.2439 17.5961 20.4331 17.6218 20.6162 17.5879C20.7993 17.554 20.9665 17.4622 21.0931 17.3262C21.18 17.2477 21.2037 17.2605 21.2082 17.3823C21.2191 17.6209 21.3 17.851 21.4409 18.0442C21.5819 18.2374 21.7767 18.385 22.0011 18.4689C22.2255 18.5527 22.4697 18.5691 22.7034 18.5159C22.937 18.4627 23.1498 18.3423 23.3155 18.1696C23.4811 17.997 23.5921 17.7797 23.6349 17.5447C23.6777 17.3097 23.6503 17.0673 23.5561 16.8477C23.4619 16.6281 23.3051 16.4409 23.1051 16.3093C22.9051 16.1777 22.6707 16.1075 22.431 16.1074H22.4309Z" fill="white"/>
<path d="M23.501 3C15.493 3 9.00164 7.24431 9.00164 12.4503C9.00164 12.585 9 12.9564 9 13.0036C9 18.5271 14.6738 23 23.4992 23C32.3779 23 38 18.5281 38 13.0046V12.4503C37.9998 7.24431 31.5084 3 23.501 3ZM37.3463 11.403C35.257 11.8637 33.2173 12.5244 31.2555 13.376C29.8799 12.1799 26.7015 9.42574 25.8407 8.78219C25.507 8.50247 25.1273 8.28228 24.7184 8.13134C24.5402 8.07536 24.3545 8.04645 24.1676 8.04559C23.9297 8.04874 23.6938 8.08837 23.468 8.16308C22.8635 8.41317 22.3064 8.76462 21.821 9.20217L21.7934 9.22393C21.2939 9.61968 20.7776 10.029 20.387 10.1156C20.2161 10.154 20.0415 10.1735 19.8663 10.1738C19.6905 10.1884 19.5136 10.1682 19.3457 10.1143C19.1778 10.0605 19.0223 9.9741 18.888 9.86011C18.8637 9.82904 18.8798 9.77901 18.9364 9.70709L18.9436 9.69731L20.154 8.39805C21.1018 7.45356 21.9971 6.56178 24.0574 6.51466C24.0917 6.51367 24.1263 6.51303 24.1602 6.51303C25.096 6.55108 26.0157 6.76814 26.8692 7.1524C28.0159 7.72361 29.2788 8.0254 30.5608 8.03461C31.9631 8.01049 33.3433 7.6816 34.6049 7.07091C36.0749 8.30282 37.0498 9.78652 37.3463 11.403ZM23.5035 3.55806C27.754 3.55806 31.5574 4.77207 34.1145 6.68412C32.9988 7.19196 31.79 7.46502 30.5636 7.48622C29.3639 7.47649 28.1823 7.19308 27.1095 6.65773C26.1819 6.23586 25.1801 6 24.1611 5.96358C24.1224 5.96358 24.0832 5.96419 24.0449 5.96504C22.8175 5.94713 21.6245 6.36918 20.6833 7.15428C20.1134 7.18404 19.5496 7.28659 19.0059 7.4594C18.6238 7.58643 18.2264 7.6623 17.8241 7.68502C17.6726 7.68502 17.3999 7.67121 17.3754 7.67014C15.9293 7.41648 14.511 7.02532 13.1397 6.50205C15.6917 4.69494 19.3888 3.55806 23.5035 3.55806ZM12.638 6.87931C14.4065 7.6001 16.552 8.1567 17.2304 8.20049C17.4197 8.2129 17.6213 8.23422 17.8231 8.23465C18.2769 8.21271 18.7256 8.12963 19.157 7.98767C19.4138 7.91592 19.6971 7.83766 19.9951 7.78097C19.9154 7.85859 19.836 7.93746 19.7563 8.01714L18.5271 9.34223C18.4336 9.4248 18.3674 9.5337 18.3374 9.65453C18.3073 9.77535 18.3148 9.90242 18.3587 10.0189C18.4301 10.1663 18.5422 10.2903 18.6819 10.3763C19.0795 10.6003 19.5301 10.7142 19.9868 10.7062C20.1617 10.7074 20.3363 10.6892 20.5072 10.6519C21.0227 10.5369 21.5634 10.1076 22.1358 9.65391C22.6101 9.24588 23.1517 8.92292 23.7367 8.69939C23.8824 8.66082 24.0323 8.64034 24.183 8.63841C24.2216 8.63811 24.2602 8.64042 24.2984 8.64532C24.7486 8.71898 25.1685 8.91861 25.5092 9.22095C26.5185 9.97671 30.9837 13.8694 31.0277 13.9078C31.1164 13.9916 31.1861 14.0932 31.2324 14.206C31.2786 14.3187 31.3002 14.44 31.2957 14.5617C31.2876 14.6784 31.2508 14.7913 31.1886 14.8904C31.1263 14.9896 31.0405 15.0719 30.9387 15.1302C30.7651 15.2458 30.5617 15.309 30.353 15.3121C30.1697 15.3123 29.9901 15.2605 29.8353 15.1627C29.819 15.1493 28.2891 13.7513 27.7257 13.2814C27.6552 13.2072 27.5625 13.1578 27.4614 13.1408C27.4389 13.1403 27.4167 13.1451 27.3964 13.1546C27.3761 13.1641 27.3583 13.1782 27.3443 13.1957C27.2557 13.3044 27.355 13.4552 27.472 13.554L29.2591 15.345C29.3923 15.4744 29.4792 15.6439 29.5063 15.8273C29.5109 15.9774 29.4737 16.1259 29.3988 16.2562C29.3239 16.3865 29.2142 16.4936 29.082 16.5656C28.8962 16.696 28.6757 16.7687 28.4484 16.7743C28.2669 16.7743 28.0894 16.7206 27.9385 16.62L27.6823 16.3685C27.2136 15.9091 26.7297 15.4339 26.3756 15.1395C26.3041 15.0661 26.2106 15.0178 26.1092 15.0017C26.0881 15.0014 26.0672 15.0054 26.0478 15.0137C26.0284 15.022 26.011 15.0342 25.9967 15.0497C25.9563 15.0944 25.9281 15.1747 26.0293 15.308C26.0565 15.3439 26.0867 15.3774 26.1195 15.4082L27.4233 16.868C27.4986 16.953 27.5425 17.061 27.5479 17.1742C27.5533 17.2875 27.5198 17.3992 27.4529 17.4909L27.4067 17.549C27.3685 17.5902 27.3279 17.6292 27.2851 17.6657C27.1006 17.8007 26.8767 17.8714 26.6478 17.8669C26.5888 17.8672 26.5298 17.8622 26.4716 17.8521C26.3765 17.8446 26.2864 17.8067 26.2146 17.7441L26.1983 17.7277C26.1274 17.6543 25.4701 16.9856 24.9263 16.5331C24.8588 16.4616 24.7697 16.4141 24.6725 16.3979C24.6503 16.3977 24.6282 16.4023 24.6079 16.4113C24.5876 16.4203 24.5694 16.4336 24.5546 16.4502C24.4474 16.5677 24.6089 16.7431 24.6774 16.8075L25.7891 18.0301C25.7796 18.0572 25.7656 18.0824 25.7475 18.1047C25.7076 18.1596 25.5729 18.2942 25.1694 18.3446C25.1204 18.3508 25.0711 18.3538 25.0217 18.3535C24.639 18.329 24.2667 18.219 23.9325 18.0316C24.0517 17.7796 24.105 17.5018 24.0876 17.2239C24.0702 16.946 23.9826 16.6769 23.833 16.4417C23.6833 16.2065 23.4765 16.0128 23.2317 15.8785C22.9869 15.7443 22.712 15.6738 22.4326 15.6737C22.413 15.6737 22.3922 15.6743 22.3726 15.6749C22.4203 15.3602 22.3639 15.0385 22.2121 14.7585C22.0603 14.4785 21.8212 14.2552 21.531 14.1223C21.3127 14.0247 21.0766 13.9729 20.8373 13.97C20.6635 13.9692 20.4911 14.0003 20.3286 14.0619C20.1596 13.7348 19.8676 13.4877 19.5163 13.3745C19.325 13.3069 19.1237 13.2716 18.9208 13.2701C18.5879 13.2682 18.263 13.3719 17.9932 13.5662C17.8706 13.4127 17.7168 13.2867 17.5419 13.1965C17.367 13.1063 17.1749 13.054 16.9783 13.043C16.7817 13.0319 16.5849 13.0624 16.4009 13.1324C16.217 13.2025 16.0499 13.3104 15.9108 13.4493C15.5644 13.1855 14.191 12.3161 10.5146 11.4844C10.339 11.4448 9.94042 11.331 9.68937 11.2576C10.0343 9.6132 11.0829 8.11146 12.6381 6.87931H12.638ZM19.4573 16.4156L19.4175 16.3801H19.3773C19.336 16.3832 19.2967 16.399 19.2649 16.4254C19.107 16.5466 18.9146 16.6148 18.7154 16.6203C18.6104 16.6195 18.5065 16.5993 18.4088 16.561C18.139 16.4606 17.9149 16.2661 17.7782 16.0135C17.6415 15.761 17.6014 15.4675 17.6654 15.1877C17.6698 15.1674 17.6687 15.1462 17.6621 15.1265C17.6556 15.1067 17.6439 15.089 17.6282 15.0753L17.568 15.0263L17.5118 15.0798C17.3479 15.2383 17.1286 15.3269 16.9002 15.3268C16.7299 15.3275 16.563 15.2791 16.4195 15.1876C16.2761 15.0961 16.1622 14.9652 16.0916 14.8108C16.0209 14.6563 15.9965 14.4849 16.0213 14.3169C16.0461 14.149 16.119 13.9918 16.2313 13.8641C16.3435 13.7365 16.4904 13.6438 16.6542 13.5973C16.818 13.5508 16.9918 13.5525 17.1548 13.602C17.3177 13.6515 17.4628 13.7469 17.5726 13.8766C17.6825 14.0063 17.7524 14.1649 17.7741 14.3332L17.8045 14.57L17.9351 14.3696C18.0822 14.1421 18.3007 13.9696 18.5565 13.8789C18.8123 13.7882 19.0911 13.7844 19.3493 13.8681C19.5276 13.9239 19.684 14.034 19.7963 14.1829C19.9086 14.3318 19.9713 14.512 19.9755 14.6983C19.985 14.8131 20.0671 14.8187 20.083 14.8187C20.1028 14.8173 20.1222 14.8119 20.1398 14.8027C20.1574 14.7935 20.1729 14.7808 20.1854 14.7653C20.2695 14.6778 20.3707 14.6084 20.4827 14.5613C20.5946 14.5142 20.7151 14.4903 20.8367 14.4913C21.0051 14.495 21.1711 14.5323 21.3248 14.6011C22.1578 14.9572 21.7801 16.0121 21.7756 16.0229C21.7038 16.1977 21.7009 16.275 21.7683 16.3195L21.8011 16.3349H21.8255C21.8811 16.3287 21.9354 16.3145 21.9869 16.2929C22.1288 16.237 22.2788 16.2039 22.4312 16.1951H22.4316C22.5808 16.1951 22.7286 16.2244 22.8664 16.2814C23.0043 16.3383 23.1295 16.4218 23.235 16.527C23.3405 16.6321 23.4242 16.757 23.4813 16.8944C23.5383 17.0318 23.5677 17.179 23.5677 17.3278C23.5676 17.4765 23.5382 17.6237 23.481 17.7611C23.4239 17.8984 23.3402 18.0233 23.2346 18.1284C23.1291 18.2335 23.0038 18.3169 22.8659 18.3738C22.728 18.4306 22.5802 18.4599 22.431 18.4598C22.1383 18.4616 21.8563 18.3499 21.6448 18.1483C21.4332 17.9467 21.3086 17.671 21.2973 17.3795C21.2956 17.3277 21.2902 17.1899 21.1728 17.1899C21.1195 17.196 21.0704 17.2218 21.0352 17.2622C20.8901 17.4161 20.6897 17.5062 20.478 17.5129C20.3516 17.5103 20.2269 17.4833 20.1108 17.4335C19.4637 17.1717 19.4549 16.729 19.481 16.5509C19.4874 16.528 19.4885 16.504 19.4844 16.4806C19.4803 16.4572 19.4711 16.435 19.4573 16.4156V16.4156ZM23.5034 21.3332C15.8036 21.3333 9.56176 17.354 9.56176 12.4457C9.56296 12.2494 9.57417 12.0534 9.59536 11.8584C9.65684 11.873 10.2683 12.0187 10.395 12.0471C14.1505 12.8784 15.3914 13.7427 15.6011 13.9061C15.5119 14.1192 15.477 14.3509 15.4992 14.5807C15.5215 14.8105 15.6004 15.0312 15.7289 15.2233C15.8574 15.4154 16.0315 15.573 16.2357 15.6819C16.44 15.7909 16.668 15.8479 16.8997 15.8479C16.9863 15.848 17.0727 15.84 17.1578 15.8241C17.2132 16.102 17.3403 16.3608 17.5264 16.575C17.7125 16.7892 17.9513 16.9516 18.2193 17.0461C18.3791 17.1086 18.549 17.1412 18.7207 17.1424C18.8287 17.1431 18.9363 17.1298 19.041 17.103C19.1699 17.3735 19.3713 17.6032 19.623 17.7669C19.8746 17.9306 20.1667 18.0219 20.4671 18.0307C20.6137 18.0307 20.7591 18.0048 20.8966 17.9542C21.0008 18.2082 21.1668 18.4323 21.3797 18.6062C21.5926 18.7801 21.8456 18.8984 22.1159 18.9504C22.3863 19.0024 22.6653 18.9864 22.9278 18.9039C23.1904 18.8214 23.4282 18.675 23.6197 18.4779C24.048 18.7266 24.5296 18.8699 25.0247 18.8959C25.0957 18.8957 25.1667 18.8913 25.2373 18.8826C25.42 18.877 25.5995 18.8327 25.7637 18.7526C25.928 18.6725 26.0732 18.5585 26.1898 18.4181C26.2118 18.3879 26.2315 18.3561 26.2486 18.323C26.3945 18.3673 26.546 18.3909 26.6985 18.3931C27.0283 18.3865 27.347 18.273 27.6062 18.0697C27.8799 17.8907 28.0722 17.6118 28.1419 17.2931C28.1425 17.2895 28.1429 17.286 28.1431 17.2824C28.2431 17.3027 28.3449 17.3129 28.447 17.3129C28.7803 17.3088 29.1048 17.2062 29.3796 17.0182C29.5886 16.8974 29.761 16.7228 29.8788 16.5126C29.9965 16.3024 30.0552 16.0644 30.0487 15.8238C30.15 15.8448 30.2532 15.8555 30.3567 15.8557C30.6677 15.8523 30.971 15.7593 31.2301 15.5878C31.4022 15.483 31.547 15.3391 31.6527 15.1679C31.7583 14.9966 31.8219 14.8029 31.8381 14.6026C31.8587 14.3237 31.7912 14.0455 31.6451 13.8068C33.5184 13.0449 35.4526 12.4413 37.4274 12.0024C37.4387 12.1494 37.445 12.2972 37.445 12.4459C37.445 17.354 31.2033 21.3333 23.5035 21.3333L23.5034 21.3332Z" fill="#0A0080"/>
</svg>
