<svg width="33" height="25" viewBox="0 0 33 25" fill="none" xmlns="http://www.w3.org/2000/svg">
<g clip-path="url(#clip0_9153_361)">
<rect x="0.896484" y="0.12793" width="32" height="24" rx="4" fill="white"/>
<path d="M26.7055 15.7581V15.5181H26.6455L26.5755 15.6781L26.5055 15.5181H26.4455V15.7581H26.4855V15.5781L26.5555 15.7381H26.6055L26.6755 15.5781V15.7581H26.7055ZM26.3055 15.7581V15.5581H26.3855V15.5181H26.1855V15.5581H26.2655V15.7581H26.3055Z" fill="#00A2E5"/>
<path d="M19.5955 16.7884H14.1855V7.06836H19.5955V16.7884Z" fill="#7375CF"/>
<path d="M14.5365 11.9281C14.5365 9.95805 15.4565 8.19805 16.8965 7.06805C15.8465 6.23805 14.5165 5.74805 13.0765 5.74805C9.66648 5.74805 6.89648 8.51805 6.89648 11.9281C6.89648 15.3381 9.66648 18.1081 13.0765 18.1081C14.5165 18.1081 15.8465 17.6181 16.8965 16.7881C15.4565 15.6581 14.5365 13.8981 14.5365 11.9281Z" fill="#EB001B"/>
<path d="M26.8965 11.9281C26.8965 15.3381 24.1265 18.1081 20.7165 18.1081C19.2765 18.1081 17.9465 17.6181 16.8965 16.7881C18.3365 15.6581 19.2565 13.8981 19.2565 11.9281C19.2565 9.95805 18.3365 8.19805 16.8965 7.06805C17.9465 6.23805 19.2765 5.74805 20.7165 5.74805C24.1265 5.74805 26.8965 8.51805 26.8965 11.9281Z" fill="#00A2E5"/>
</g>
<rect x="1.39648" y="0.62793" width="31" height="23" rx="3.5" stroke="#E5E5E5"/>
<defs>
<clipPath id="clip0_9153_361">
<rect x="0.896484" y="0.12793" width="32" height="24" rx="4" fill="white"/>
</clipPath>
</defs>
</svg>
