<svg width="33" height="25" viewBox="0 0 33 25" fill="none" xmlns="http://www.w3.org/2000/svg">
<g clip-path="url(#clip0_9153_354)">
<rect x="0.896484" y="0.12793" width="32" height="24" rx="4" fill="white"/>
<path d="M23.1472 11.9962L19.8344 6.85082C19.7602 6.73539 19.6338 6.6665 19.4964 6.6665H17.2891C17.2202 6.6665 17.157 6.70397 17.1245 6.76415C17.0916 6.82471 17.0942 6.89775 17.1317 6.95566L20.5849 12.319C20.5921 12.3304 20.5921 12.3448 20.5849 12.3561L17.1317 17.704C17.0942 17.7619 17.0916 17.8349 17.1245 17.8955C17.1574 17.9561 17.2206 17.9935 17.2895 17.9935H19.4975C19.6345 17.9935 19.761 17.9246 19.8351 17.8096L23.1472 12.6805C23.2812 12.4723 23.2812 12.204 23.1472 11.9962Z" fill="#FE5000"/>
<path d="M23.8267 13.0434C23.7919 12.9897 23.7332 12.9575 23.6693 12.9575C23.6053 12.9575 23.5463 12.9897 23.5115 13.0434L22.602 14.4514C22.4086 14.7511 22.4086 15.1383 22.6027 15.4377L24.1526 17.8312C24.2181 17.9322 24.3294 17.9928 24.4497 17.9928H26.7365C26.7947 17.9928 26.8485 17.961 26.8765 17.9099C26.9045 17.8588 26.9022 17.7963 26.8704 17.7471L23.8267 13.0434Z" fill="#50007F"/>
<path d="M23.5117 11.6156C23.5465 11.6694 23.6056 11.7015 23.6695 11.7015C23.7335 11.7015 23.7925 11.6694 23.827 11.6156L26.8703 6.91154C26.9021 6.86233 26.9044 6.80026 26.8764 6.74879C26.8483 6.69732 26.7946 6.66553 26.7363 6.66553H24.4496C24.3292 6.66553 24.2179 6.72608 24.1525 6.82714L22.6026 9.22062C22.4088 9.51999 22.4084 9.90717 22.6018 10.2069L23.5117 11.6156Z" fill="#50007F"/>
<path d="M16.2009 6.66211H14.2669C14.1632 6.66211 14.0796 6.74613 14.0796 6.84945V13.7271C14.0762 13.8407 14.0179 13.8747 13.9528 13.7642L9.48677 6.8328C9.41827 6.72645 9.30056 6.66211 9.17377 6.66211H7.0861C6.97521 6.66211 6.89648 6.75256 6.89648 6.85173V17.8082C6.89648 17.9176 6.9858 17.9978 7.0861 17.9978H9.02011C9.12381 17.9978 9.20746 17.9138 9.20746 17.8105V10.9328C9.21086 10.8193 9.26915 10.7852 9.33425 10.8957L13.8003 17.8271C13.8688 17.9335 13.9868 17.9978 14.1133 17.9978H16.2009C16.3118 17.9978 16.3905 17.9074 16.3905 17.8082V6.85173C16.3905 6.74235 16.3008 6.66211 16.2009 6.66211Z" fill="#FE5000"/>
</g>
<rect x="1.39648" y="0.62793" width="31" height="23" rx="3.5" stroke="#E5E5E5"/>
<defs>
<clipPath id="clip0_9153_354">
<rect x="0.896484" y="0.12793" width="32" height="24" rx="4" fill="white"/>
</clipPath>
</defs>
</svg>
