<svg width="33" height="25" viewBox="0 0 33 25" fill="none" xmlns="http://www.w3.org/2000/svg">
<g clip-path="url(#clip0_8585_72432)">
<rect x="0.0273438" y="0.12793" width="32" height="24" rx="4" fill="white"/>
<path d="M9.75339 9.12793C7.92632 9.12793 6.26938 10.5887 6.05116 12.3869C5.83295 14.1852 7.13853 15.646 8.96191 15.646C10.7853 15.646 12.4459 14.1852 12.6641 12.3869C12.8824 10.5887 11.5768 9.12793 9.75339 9.12793ZM10.9332 12.3869C10.826 13.2768 10.1011 13.9998 9.20231 13.9998C8.30357 13.9998 7.66372 13.2768 7.77098 12.3869C7.87824 11.4971 8.69561 10.7741 9.59066 10.7741C10.4857 10.7741 11.0368 11.4971 10.9295 12.3869H10.9332ZM25.2133 9.43566C25.2022 9.34297 25.1208 9.27253 25.0246 9.27253H22.861C22.7537 9.27253 22.6539 9.33185 22.6021 9.42825L19.3511 15.442C19.3326 15.4754 19.3585 15.5199 19.3992 15.5199H20.9156C21.0228 15.5199 21.1227 15.4606 21.1745 15.3642L23.6303 10.7741H23.708L23.9853 13.0172C23.989 13.0469 23.9632 13.0766 23.9336 13.0766H23.057C22.824 13.0766 22.7168 13.3658 22.8906 13.5215L23.8744 14.3742C24.0741 14.5485 24.2036 14.7895 24.2369 15.0527L24.2738 15.3531C24.2849 15.4495 24.3663 15.5199 24.4625 15.5199H25.9752C26.0084 15.5199 26.0306 15.4902 26.0269 15.4606L25.217 9.43937L25.2133 9.43566ZM19.3067 13.8181L18.223 13.2397C18.0862 13.1656 17.9161 13.1989 17.8199 13.3213C17.7607 13.3954 17.6978 13.4696 17.6498 13.5141C17.328 13.8292 16.9507 14.0072 16.4662 14.0072C15.5379 14.0072 15.0127 13.3027 15.0127 12.576C15.0127 11.8493 15.8449 10.7778 16.8435 10.7778C17.8421 10.7778 17.7237 10.9892 17.9826 11.308C18.0751 11.423 18.2415 11.4563 18.3747 11.3896C18.7038 11.2265 19.5878 10.7852 19.6211 10.7704C19.647 10.7556 19.6581 10.7222 19.647 10.6963C19.6322 10.6666 19.6137 10.6332 19.6137 10.6295C19.1366 9.74711 18.1787 9.13164 17.0062 9.13164C14.9794 9.13164 13.2781 10.8631 13.2781 12.7874C13.2781 14.7116 14.5245 15.6497 16.2147 15.6497C17.905 15.6497 18.5966 14.9675 19.2808 13.9627C19.2919 13.9479 19.3104 13.9182 19.3252 13.8922C19.3437 13.8663 19.3326 13.8292 19.3067 13.8144V13.8181Z" fill="#0F6EE2"/>
</g>
<rect x="0.527344" y="0.62793" width="31" height="23" rx="3.5" stroke="#E5E5E5"/>
<defs>
<clipPath id="clip0_8585_72432">
<rect x="0.0273438" y="0.12793" width="32" height="24" rx="4" fill="white"/>
</clipPath>
</defs>
</svg>
