<svg width="33" height="25" viewBox="0 0 33 25" fill="none" xmlns="http://www.w3.org/2000/svg">
<g clip-path="url(#clip0_9153_1513)">
<rect x="0.896484" y="0.12793" width="32" height="24" rx="4" fill="white"/>
<path d="M6.89648 8.34727C6.89648 7.68788 7.43323 7.15283 8.09601 7.15283H25.6942C26.3564 7.15283 26.8937 7.68788 26.8937 8.34727V15.9028C26.8937 16.5622 26.3564 17.0967 25.6942 17.0967H8.09601C7.43323 17.0967 6.89648 16.5622 6.89648 15.9028V8.34727Z" fill="white"/>
<path fill-rule="evenodd" clip-rule="evenodd" d="M8.0135 7.12793C7.40434 7.12793 6.91016 7.61988 6.91016 8.22638V8.26128H26.8963V8.22638C26.8963 7.61988 26.4027 7.12793 25.7935 7.12793H8.0135ZM26.8965 16.0292V16.0019H6.91032V16.0292C6.91032 16.6357 7.4045 17.1276 8.01366 17.1276H25.7937C26.4029 17.1276 26.8965 16.6357 26.8965 16.0292Z" fill="#FBB110"/>
<path d="M20.7423 12.1157C20.7423 13.651 21.9921 14.8957 23.5343 14.8957C25.076 14.8957 26.3264 13.651 26.3264 12.1157C26.3264 10.5799 25.076 9.33524 23.5343 9.33524C21.9921 9.33524 20.7423 10.5799 20.7423 12.1157ZM7.43032 12.1157C7.43032 13.651 8.6807 14.8957 10.2229 14.8957C11.7646 14.8957 13.015 13.651 13.015 12.1157C13.015 10.5799 11.7646 9.33524 10.2229 9.33524C8.6807 9.33524 7.43032 10.5799 7.43032 12.1157ZM26.8963 15.4754H13.1294C13.3776 15.302 13.6087 15.0647 13.8608 14.7446L15.2632 12.9627L15.8756 13.7334L16.5572 12.8307L15.9613 12.0754L17.3886 10.2613C17.8419 9.68594 16.9751 9.00963 16.5218 9.58504L15.2604 11.1885L13.9779 9.56377C13.5241 8.99 12.659 9.66794 13.1129 10.2423L14.5622 12.0759L12.994 14.0683C12.4368 14.7762 11.8807 15.4252 10.7768 15.4754H6.91016V8.78711H20.6046C20.3691 8.95837 20.1469 9.18798 19.9059 9.4945L18.5041 11.2758L17.8911 10.5057L17.21 11.4083L17.8059 12.1632L16.3781 13.9772C15.9254 14.5526 16.7921 15.2289 17.2449 14.6535L18.5068 13.0505L19.7893 14.6748C20.2431 15.2491 21.1082 14.5711 20.6544 13.9968L19.205 12.1626L20.7732 10.1708C21.2851 9.51959 21.7964 8.91855 22.7328 8.78711H26.8963V15.4754ZM21.8627 12.1157C21.8627 11.1962 22.6112 10.4511 23.5343 10.4511C24.4575 10.4511 25.2054 11.1962 25.2054 12.1157C25.2054 13.0347 24.4575 13.7798 23.5343 13.7798C22.6112 13.7798 21.8627 13.0347 21.8627 12.1157ZM8.55135 12.1157C8.55135 11.1962 9.29981 10.4511 10.2229 10.4511C11.1455 10.4511 11.894 11.1962 11.894 12.1157C11.894 13.0347 11.1455 13.7798 10.2229 13.7798C9.29981 13.7798 8.55135 13.0347 8.55135 12.1157Z" fill="#E70020"/>
</g>
<rect x="1.39648" y="0.62793" width="31" height="23" rx="3.5" stroke="#E5E5E5"/>
<defs>
<clipPath id="clip0_9153_1513">
<rect x="0.896484" y="0.12793" width="32" height="24" rx="4" fill="white"/>
</clipPath>
</defs>
</svg>
