<svg width="33" height="25" viewBox="0 0 33 25" fill="none" xmlns="http://www.w3.org/2000/svg">
<g clip-path="url(#clip0_9153_2907)">
<rect x="0.896484" y="0.12793" width="32" height="24" rx="4" fill="white"/>
<path fill-rule="evenodd" clip-rule="evenodd" d="M12.7382 7.87904C13.3659 7.87904 13.9563 8.12345 14.4002 8.56712L16.8088 10.976C16.9823 11.1496 17.2655 11.1502 17.4394 10.9758L19.8392 8.5759C20.2831 8.13223 20.8735 7.88782 21.5012 7.88782H21.7902L18.7423 4.83985C17.7929 3.89062 16.2539 3.89062 15.3047 4.83985L12.2654 7.87905L12.7382 7.87904ZM21.5013 16.368C20.8736 16.368 20.2832 16.1236 19.8393 15.6799L17.4395 13.2801C17.271 13.1112 16.9774 13.1117 16.8089 13.2801L14.4004 15.6887C13.9565 16.1324 13.3661 16.3768 12.7383 16.3768H12.2654L15.3048 19.4161C16.254 20.3652 17.7931 20.3652 18.7423 19.4161L21.7904 16.368H21.5013ZM22.3425 8.56648L24.1845 10.4084C25.1337 11.3576 25.1337 12.8965 24.1845 13.8457L22.3425 15.6876C22.302 15.6714 22.258 15.6612 22.2117 15.6612H21.3742C20.9412 15.6612 20.5174 15.4856 20.2114 15.1795L17.8117 12.78C17.3768 12.3446 16.6179 12.3448 16.1825 12.7798L13.774 15.1882C13.468 15.4944 13.0442 15.6699 12.6112 15.6699H11.5814C11.5375 15.6699 11.4965 15.6803 11.4576 15.6949L9.60843 13.8457C8.65917 12.8965 8.65917 11.3576 9.60843 10.4084L11.4577 8.55914C11.4965 8.57374 11.5375 8.58409 11.5814 8.58409H12.6112C13.0442 8.58409 13.468 8.75963 13.774 9.06586L16.1828 11.4746C16.4073 11.6989 16.7021 11.8113 16.9972 11.8113C17.292 11.8113 17.5871 11.6989 17.8117 11.4743L20.2114 9.07463C20.5174 8.76847 20.9412 8.59286 21.3742 8.59286H22.2117C22.258 8.59286 22.302 8.58272 22.3425 8.56648Z" fill="#4AB7A8"/>
</g>
<rect x="1.39648" y="0.62793" width="31" height="23" rx="3.5" stroke="#E5E5E5"/>
<defs>
<clipPath id="clip0_9153_2907">
<rect x="0.896484" y="0.12793" width="32" height="24" rx="4" fill="white"/>
</clipPath>
</defs>
</svg>
