<svg width="33" height="25" viewBox="0 0 33 25" fill="none" xmlns="http://www.w3.org/2000/svg">
<g clip-path="url(#clip0_8585_72443)">
<rect x="0.0273438" y="0.12793" width="32" height="24" rx="4" fill="white"/>
<g clip-path="url(#clip1_8585_72443)">
<path d="M16.0273 22.1723C21.5502 22.1723 26.0273 17.6852 26.0273 12.1501C26.0273 6.61502 21.5502 2.12793 16.0273 2.12793C10.5045 2.12793 6.02734 6.61502 6.02734 12.1501C6.02734 17.6852 10.5045 22.1723 16.0273 22.1723Z" fill="url(#paint0_radial_8585_72443)"/>
<path fill-rule="evenodd" clip-rule="evenodd" d="M22.2876 9.65428C22.2803 9.65222 22.2729 9.65723 22.2654 9.66228C22.259 9.66661 22.2525 9.67096 22.246 9.67096H20.4954C19.7029 9.67096 19.345 10.5886 19.3302 10.6286C19.3291 10.6318 19.3271 10.6327 19.3271 10.6327C19.3271 10.6327 19.3252 10.6336 19.3244 10.6371C19.3062 10.7193 18.8796 12.649 18.8939 13.2862C18.9076 13.8856 19.5181 14.1035 19.8389 14.1378C19.8417 14.1381 19.8445 14.1368 19.8473 14.1356C19.8499 14.1344 19.8524 14.1332 19.855 14.1332H22.2888C22.3714 14.1332 22.4386 14.0565 22.4386 13.9739C22.4386 13.8912 22.3715 13.8145 22.2888 13.8145H19.8641C19.7879 13.8145 19.2041 13.7255 19.1936 13.2615C19.188 13.0125 19.2588 12.5359 19.3443 12.0544L22.7314 12.0291C22.8036 12.0286 22.8652 11.9779 22.8777 11.9066C22.8842 11.8694 23.0364 11.0032 23.0364 10.4838C23.0363 9.87139 22.3311 9.6669 22.2886 9.65457L22.2876 9.65428ZM22.6028 11.7335L19.3992 11.7603C19.484 11.3102 19.5701 10.9301 19.6031 10.7847L19.6145 10.7337C19.6488 10.6482 19.9426 9.98958 20.4954 9.98958H22.2224C22.3158 9.98958 22.7368 10.1549 22.7368 10.5052C22.7368 10.8882 22.6448 11.4726 22.6028 11.7335ZM18.7203 9.67092H16.3773L16.3681 9.67066C16.3607 9.67036 16.3533 9.67005 16.346 9.67155C15.9732 9.7524 15.2706 10.1335 15.2742 10.9658C15.2549 11.286 15.3951 11.7958 16.0648 12.0082H17.7349C17.8088 12.0082 18.2649 12.1126 18.2346 12.9081C18.2107 13.5367 17.7855 13.7366 17.5553 13.8449C17.4918 13.8747 17.4432 13.8976 17.4219 13.9206H14.8341C14.7525 13.9206 14.6863 13.9984 14.6863 14.0799C14.6863 14.1615 14.7525 14.2393 14.8341 14.2393H17.4361C17.4404 14.2393 17.4447 14.2291 17.4489 14.219C17.453 14.2093 17.4571 14.1997 17.4611 14.1989C17.8164 14.1382 18.4969 13.7738 18.5301 12.902C18.573 11.7747 17.7574 11.7035 17.7491 11.703L16.1007 11.6982C15.5375 11.5952 15.5679 10.9972 15.5696 10.9712C15.5697 10.9689 15.5698 10.9733 15.5698 10.9733C15.5638 10.2182 16.2814 9.98964 16.3948 9.98964H18.7204C18.802 9.98964 18.8682 9.91187 18.8682 9.83028C18.8681 9.74869 18.8019 9.67092 18.7203 9.67092ZM14.0202 9.67102C14.1615 9.67102 14.9166 9.9703 14.8287 10.5681C14.8284 10.5704 14.8282 10.5743 14.828 10.5784C14.8277 10.5837 14.8274 10.5893 14.8268 10.5923L14.4204 13.0815C14.4196 13.0869 14.4183 13.0922 14.4169 13.0974C14.4081 13.1286 14.1945 13.8614 13.4843 14.0744C13.4721 14.0781 13.4596 14.0802 13.4467 14.0805L11.9497 14.1233C11.9436 14.1238 11.9378 14.1234 11.9319 14.1228C11.9082 14.1205 11.4352 14.0702 11.055 13.5905C10.8937 14.4762 10.7328 15.3646 10.6346 15.9071C10.622 15.9776 10.5605 16.0269 10.4915 16.0269C10.4829 16.0269 10.4742 16.0261 10.4655 16.0245C10.3863 16.0101 10.3337 15.9343 10.3481 15.8551C10.3481 15.8551 10.5801 14.5718 10.8138 13.2886C10.9307 12.6469 11.0479 12.0048 11.1367 11.5236C11.1812 11.2827 11.2185 11.0814 11.2452 10.9408L11.2468 10.932C11.2679 10.8207 11.282 10.746 11.2981 10.6971L11.2955 10.694C11.4602 10.2442 11.9729 9.75793 12.3505 9.69779C12.3559 9.69698 12.3612 9.69513 12.3665 9.69329C12.3745 9.69055 12.3823 9.68783 12.39 9.68866C12.4301 9.69003 12.6136 9.6872 12.8582 9.68343C13.201 9.67815 13.6643 9.67102 14.0202 9.67102ZM14.1346 13.0248L14.538 10.5625C14.5801 10.2881 14.1596 9.99453 13.9866 9.9958C13.8799 9.99623 13.5387 9.9974 13.1974 9.99793C12.9914 9.99835 12.7851 9.99846 12.6308 9.99825L12.6264 9.99824C12.5229 9.99803 12.4479 9.99788 12.3928 9.99453C12.1462 10.0367 11.7067 10.4289 11.5708 10.794C11.5452 10.9086 11.3469 11.9886 11.1311 13.1735C11.4275 13.7381 11.885 13.8222 11.9525 13.8317L13.4187 13.7898C13.9281 13.626 14.1136 13.0907 14.1346 13.0248Z" fill="white"/>
<path fill-rule="evenodd" clip-rule="evenodd" d="M7.53782 7.75062C7.53782 7.55481 7.41893 7.3903 7.25468 7.33057C7.11593 7.58217 6.9877 7.84049 6.87073 8.10487C6.94063 8.16141 7.02669 8.19623 7.12103 8.19623C7.35126 8.19623 7.53782 7.99669 7.53782 7.75062ZM7.95866 9.60289C8.18884 9.60289 8.37544 9.40339 8.37544 9.15729C8.37544 8.91118 8.18884 8.71168 7.95866 8.71168C7.72847 8.71168 7.54187 8.91118 7.54187 9.15729C7.54187 9.40339 7.72847 9.60289 7.95866 9.60289ZM6.57777 8.84686C6.65086 8.92715 6.69623 9.0365 6.69623 9.15735C6.69623 9.37787 6.546 9.55973 6.34924 9.5954C6.41575 9.34177 6.49214 9.09219 6.57777 8.84686ZM8.01676 15.0318C8.24695 15.0318 8.43355 14.8323 8.43355 14.5862C8.43355 14.3401 8.24695 14.1406 8.01676 14.1406C7.78658 14.1406 7.59998 14.3401 7.59998 14.5862C7.59998 14.8323 7.78658 15.0318 8.01676 15.0318ZM6.24805 14.2229C6.41538 14.2483 6.54446 14.4004 6.54446 14.5862C6.54446 14.7039 6.49187 14.8075 6.41145 14.875C6.34972 14.6605 6.29543 14.443 6.24805 14.2229ZM7.53591 16.0392C7.53591 15.7932 7.34935 15.5936 7.11912 15.5936C6.95477 15.5936 6.8141 15.6962 6.74622 15.8438C6.83248 16.0572 6.92576 16.267 7.02616 16.4727C7.05612 16.48 7.08704 16.4847 7.11912 16.4847C7.34924 16.4848 7.53591 16.2853 7.53591 16.0392ZM7.40753 13.2014H8.24333L8.96833 11.9236H6.02734C6.02872 11.8523 6.03106 11.7814 6.03393 11.7106H8.06166L7.31606 10.4329H6.16833C6.18671 10.3259 6.20625 10.2193 6.22793 10.1135H7.15053H7.38501H7.44854L8.35956 11.7106H10.5758V11.9236H9.22384L8.34724 13.5207H8.32726H8.09173H7.40753C7.35335 13.7337 7.19813 13.8211 7.01284 13.8211C6.78262 13.8211 6.59606 13.613 6.59606 13.3669C6.59606 13.1208 6.78262 12.9117 7.01284 12.9117C7.19813 12.9117 7.35335 13.0949 7.40753 13.2014Z" fill="#FDB718"/>
<path fill-rule="evenodd" clip-rule="evenodd" d="M13.4563 8.00521L13.3518 7.98633L13.1418 9.15428L13.2464 9.17316L13.3629 8.52511C13.3641 8.52304 13.3656 8.52049 13.3673 8.51756C13.373 8.50831 13.3814 8.49543 13.3923 8.48133C13.4131 8.45461 13.4407 8.42658 13.4729 8.40894L13.4768 8.40862C13.4857 8.40791 13.4987 8.407 13.5145 8.40615C13.5461 8.40445 13.5886 8.40306 13.6327 8.40423C13.6771 8.4054 13.721 8.40913 13.7562 8.41694C13.7738 8.42084 13.7875 8.42541 13.7975 8.43025C13.8078 8.43524 13.8114 8.43961 13.8114 8.43961L13.8193 8.45086L13.8308 8.45642L13.834 8.45859C13.8372 8.46095 13.842 8.46498 13.8468 8.47093C13.8555 8.48165 13.866 8.50063 13.8654 8.53297L13.762 9.13548L13.8667 9.15353L13.9712 8.54743L13.9715 8.5405C13.974 8.47821 13.9532 8.43339 13.9294 8.40393C13.9178 8.3896 13.9059 8.37939 13.8967 8.37259L13.8902 8.36809C13.8767 8.35296 13.8599 8.34221 13.8438 8.33439C13.8239 8.32476 13.8016 8.31795 13.7791 8.31298C13.7343 8.30304 13.6828 8.29903 13.6354 8.29779C13.5877 8.29653 13.5422 8.29803 13.5088 8.29982C13.492 8.30072 13.4782 8.3017 13.4685 8.30246L13.4572 8.3034L13.4541 8.30368L13.4529 8.30379L13.4435 8.3047L13.4351 8.30877C13.4219 8.31509 13.4095 8.32235 13.3979 8.33021L13.4563 8.00521ZM13.3979 8.33021C13.3595 8.35624 13.3295 8.38889 13.3085 8.41588C13.2946 8.43382 13.2839 8.4502 13.2766 8.4622C13.2729 8.46822 13.2701 8.47319 13.2681 8.47678L13.2658 8.4811L13.2648 8.48308L13.3598 8.53076L13.3612 8.5282C13.3616 8.52733 13.3622 8.5263 13.3629 8.52511L13.3979 8.33021ZM12.2271 8.41004H11.7899V8.30356H12.2444L12.2517 8.30573L12.253 8.30612L12.2551 8.3068L12.2613 8.30905C12.2663 8.31097 12.273 8.3138 12.2808 8.31773C12.2962 8.32553 12.3166 8.33808 12.3363 8.35717C12.3775 8.39713 12.4114 8.46216 12.3971 8.55755L12.3059 9.19765H11.7803L11.7713 9.19434L11.7699 9.19377L11.7672 9.19269L11.7587 9.18895C11.7518 9.18573 11.7424 9.18096 11.7316 9.17448C11.7103 9.16166 11.6824 9.14127 11.6581 9.1115C11.6335 9.08133 11.6126 9.04132 11.607 8.99075C11.6013 8.94025 11.6113 8.88338 11.6418 8.82015L11.6474 8.80847L11.6896 8.84329L11.6486 8.80945L11.6502 8.80754L11.654 8.8031C11.6573 8.79938 11.6619 8.7942 11.6677 8.78805C11.6792 8.77581 11.6957 8.75936 11.7153 8.74275C11.7348 8.72628 11.7585 8.70875 11.7845 8.69514C11.8101 8.68172 11.8412 8.67037 11.8746 8.67037H11.8764L12.2718 8.68371L12.292 8.54231C12.3008 8.48342 12.2809 8.45161 12.2624 8.43368C12.2522 8.42381 12.2413 8.41704 12.2329 8.41277L12.2271 8.41004ZM12.2567 8.78974L11.8739 8.77686C11.864 8.77703 11.8505 8.78068 11.8337 8.78949C11.8169 8.79832 11.7997 8.81071 11.7838 8.82415C11.7681 8.83747 11.7545 8.85094 11.7449 8.86114C11.7406 8.8658 11.737 8.86971 11.7346 8.8725C11.7136 8.91824 11.7097 8.95305 11.7126 8.97887C11.7156 9.00575 11.7265 9.02703 11.7404 9.04415C11.7547 9.06166 11.772 9.07457 11.7863 9.08323C11.7921 9.08667 11.7971 9.0893 11.8009 9.09117H12.2137L12.2567 8.78974ZM12.6864 8.30356H13.1459V8.41004H12.7132L12.7044 8.41586C12.6917 8.42462 12.674 8.43837 12.6551 8.45772C12.6175 8.49628 12.5755 8.55674 12.5585 8.64487L12.557 8.65284L12.5556 8.65498L12.5529 8.66356C12.5505 8.67123 12.5472 8.68266 12.5435 8.69714C12.5362 8.72617 12.5276 8.76705 12.5226 8.81416C12.5132 8.90301 12.5174 9.00794 12.5611 9.09778L12.5835 9.10278H12.9975V9.20926H12.5658L12.5661 9.20799L12.4911 9.19127L12.4795 9.17083C12.4098 9.04869 12.4058 8.90811 12.4169 8.80295C12.4226 8.74968 12.4323 8.70368 12.4406 8.67094C12.4447 8.65453 12.4485 8.64135 12.4514 8.63213L12.4548 8.62134C12.4769 8.51064 12.5307 8.43296 12.5792 8.38327C12.6036 8.35822 12.6268 8.34013 12.6442 8.32814C12.6529 8.32213 12.6602 8.31762 12.6656 8.3145L12.672 8.31085L12.6741 8.30977L12.675 8.30928L12.6864 8.30356Z" fill="white"/>
</g>
</g>
<rect x="0.527344" y="0.62793" width="31" height="23" rx="3.5" stroke="#E5E5E5"/>
<defs>
<radialGradient id="paint0_radial_8585_72443" cx="0" cy="0" r="1" gradientUnits="userSpaceOnUse" gradientTransform="translate(16.2062 12.1142) scale(9.99981 10.0224)">
<stop offset="0.3155" stop-color="#2D5CA8"/>
<stop offset="0.5312" stop-color="#285496"/>
<stop offset="0.7289" stop-color="#1F4272"/>
<stop offset="1" stop-color="#0D2D4D"/>
</radialGradient>
<clipPath id="clip0_8585_72443">
<rect x="0.0273438" y="0.12793" width="32" height="24" rx="4" fill="white"/>
</clipPath>
<clipPath id="clip1_8585_72443">
<rect width="20" height="20" fill="white" transform="translate(6.02734 2.12793)"/>
</clipPath>
</defs>
</svg>
