<svg width="33" height="25" viewBox="0 0 33 25" fill="none" xmlns="http://www.w3.org/2000/svg">
<g clip-path="url(#clip0_8585_72473)">
<rect x="0.0273438" y="0.12793" width="32" height="24" rx="4" fill="white"/>
<path fill-rule="evenodd" clip-rule="evenodd" d="M5.02734 10.1279H15.6341L14.3986 14.5653H5.02734V10.1279Z" fill="#E30613"/>
<path fill-rule="evenodd" clip-rule="evenodd" d="M27.0272 10.1279L25.7719 14.5653H14.3984L15.6339 10.1279H27.0272Z" fill="#312783"/>
<path d="M17.2278 12.2332C17.2516 12.0863 17.2596 11.9631 17.2556 11.8598C17.2516 11.7565 17.2318 11.6731 17.204 11.6056C17.1762 11.538 17.1404 11.4824 17.0967 11.4467C17.053 11.407 17.0053 11.3791 16.9497 11.3633C16.8941 11.3474 16.8425 11.3394 16.7829 11.3394C16.6756 11.3394 16.5684 11.3633 16.4691 11.407C16.3658 11.4507 16.2704 11.5222 16.183 11.6175C16.0917 11.7128 16.0082 11.836 15.9328 11.983C15.8573 12.1339 15.7897 12.3127 15.7341 12.5193C15.6785 12.7298 15.6428 12.9086 15.6348 13.0635C15.6269 13.2145 15.6428 13.3416 15.6785 13.4409C15.7143 13.5402 15.7699 13.6117 15.8454 13.6594C15.9169 13.7071 16.0082 13.7309 16.1155 13.7309C16.2069 13.7309 16.2982 13.719 16.3856 13.6912C16.473 13.6634 16.5564 13.6117 16.6399 13.5402C16.7233 13.4687 16.7988 13.3694 16.8782 13.2423C16.9537 13.1152 17.0252 12.9523 17.0927 12.7536C16.9656 12.7536 16.8385 12.7536 16.7154 12.7536C16.6836 12.849 16.6438 12.9284 16.6001 12.996C16.5525 13.0635 16.5048 13.1152 16.4532 13.1549C16.4015 13.1906 16.3459 13.2105 16.2903 13.2105C16.2148 13.2105 16.1552 13.1827 16.1195 13.131C16.0797 13.0794 16.0599 12.9999 16.0599 12.8967C16.0599 12.7934 16.0797 12.6702 16.1195 12.5272C16.1592 12.3802 16.2069 12.2611 16.2625 12.1578C16.3181 12.0585 16.3777 11.979 16.4452 11.9274C16.5128 11.8757 16.5843 11.8479 16.6597 11.8479C16.7114 11.8479 16.7511 11.8598 16.7869 11.8837C16.8186 11.9075 16.8425 11.9472 16.8584 12.0068C16.8703 12.0624 16.8743 12.1419 16.8623 12.2372C16.9775 12.2332 17.1007 12.2332 17.2278 12.2332ZM17.2755 12.5232C17.2199 12.7338 17.1921 12.9126 17.1881 13.0675C17.1841 13.2184 17.2 13.3456 17.2397 13.4449C17.2795 13.5442 17.339 13.6157 17.4185 13.6634C17.4979 13.711 17.5933 13.7349 17.7045 13.7349C17.8157 13.7349 17.923 13.711 18.0263 13.6634C18.1296 13.6157 18.2249 13.5442 18.3163 13.4449C18.4077 13.3456 18.4871 13.2224 18.5626 13.0675C18.6341 12.9165 18.6977 12.7338 18.7533 12.5232C18.8049 12.3127 18.8327 12.1339 18.8327 11.9869C18.8367 11.836 18.8168 11.7128 18.7771 11.6175C18.7374 11.5222 18.6778 11.4507 18.5983 11.407C18.5229 11.3633 18.4275 11.3394 18.3163 11.3394C18.209 11.3394 18.1018 11.3633 18.0025 11.407C17.9031 11.4507 17.8078 11.5222 17.7164 11.6175C17.6251 11.7128 17.5456 11.836 17.4701 11.9869C17.3947 12.1379 17.3271 12.3167 17.2755 12.5232ZM17.6529 12.5232C17.6886 12.3763 17.7363 12.2571 17.7919 12.1538C17.8475 12.0545 17.9071 11.975 17.9707 11.9234C18.0382 11.8717 18.1097 11.8439 18.1852 11.8439C18.2607 11.8439 18.3163 11.8717 18.356 11.9234C18.3957 11.975 18.4156 12.0505 18.4196 12.1538C18.4235 12.2531 18.4037 12.3763 18.3679 12.5232C18.3322 12.6702 18.2845 12.7934 18.2329 12.8927C18.1773 12.996 18.1177 13.0715 18.0501 13.1271C17.9826 13.1787 17.9111 13.2065 17.8356 13.2065C17.7601 13.2065 17.7005 13.1787 17.6608 13.1271C17.6211 13.0754 17.6012 12.996 17.5973 12.8927C17.5973 12.7934 17.6131 12.6702 17.6529 12.5232ZM20.4138 13.6475C20.537 13.6475 20.6601 13.6475 20.7832 13.6475C20.8428 13.3932 20.8985 13.139 20.958 12.8847C21.0176 12.6345 21.0732 12.3802 21.1328 12.1339C21.1646 11.9909 21.1805 11.8678 21.1805 11.7685C21.1805 11.6691 21.1646 11.5897 21.1368 11.5341C21.109 11.4745 21.0732 11.4348 21.0256 11.407C20.9779 11.3791 20.9263 11.3672 20.8706 11.3672C20.7713 11.3672 20.672 11.403 20.5806 11.4745C20.4893 11.546 20.3979 11.6453 20.3185 11.7804C20.3185 11.6969 20.3105 11.6254 20.2946 11.5619C20.2787 11.5023 20.247 11.4546 20.2033 11.4189C20.1596 11.3831 20.1039 11.3672 20.0364 11.3672C19.9848 11.3672 19.9291 11.3791 19.8775 11.399C19.8259 11.4228 19.7742 11.4507 19.7265 11.4864C19.6789 11.5222 19.6352 11.5619 19.5955 11.6056C19.5557 11.6493 19.5239 11.6969 19.4922 11.7406H19.4882C19.516 11.6334 19.5398 11.5301 19.5676 11.4228C19.4524 11.4228 19.3333 11.4228 19.2181 11.4228C19.1267 11.7883 19.0353 12.1538 18.944 12.5232C18.8526 12.8927 18.7612 13.2701 18.6659 13.6435C18.789 13.6435 18.9122 13.6435 19.0353 13.6435C19.087 13.4409 19.1346 13.2383 19.1823 13.0357C19.23 12.8331 19.2816 12.6345 19.3293 12.4319C19.3492 12.3445 19.377 12.269 19.4048 12.2054C19.4366 12.1419 19.4683 12.0863 19.5041 12.0465C19.5398 12.0028 19.5756 11.975 19.6153 11.9512C19.655 11.9313 19.6908 11.9194 19.7305 11.9194C19.7583 11.9194 19.7822 11.9234 19.802 11.9353C19.8259 11.9472 19.8418 11.9671 19.8576 11.9949C19.8735 12.0227 19.8815 12.0624 19.8815 12.1101C19.8815 12.1578 19.8735 12.2213 19.8576 12.2928C19.806 12.5153 19.7504 12.7378 19.6987 12.9602C19.6431 13.1827 19.5915 13.4091 19.5359 13.6356C19.659 13.6356 19.7822 13.6356 19.9053 13.6356C19.953 13.433 20.0007 13.2304 20.0483 13.0278C20.096 12.8252 20.1437 12.6265 20.1913 12.4239C20.2112 12.3365 20.239 12.2611 20.2668 12.1975C20.2946 12.1339 20.3304 12.0783 20.3622 12.0386C20.3979 11.9949 20.4337 11.9671 20.4734 11.9432C20.5091 11.9234 20.5489 11.9115 20.5846 11.9115C20.6124 11.9115 20.6363 11.9154 20.6601 11.9274C20.6839 11.9393 20.7038 11.9591 20.7157 11.9869C20.7316 12.0148 20.7395 12.0545 20.7395 12.1022C20.7395 12.1498 20.7356 12.2134 20.7157 12.2849C20.6641 12.5074 20.6124 12.7298 20.5608 12.9523C20.5171 13.1946 20.4654 13.421 20.4138 13.6475ZM21.6413 12.5352C21.6652 12.4279 21.6969 12.3365 21.7327 12.2571C21.7684 12.1776 21.8082 12.1101 21.8519 12.0585C21.8956 12.0068 21.9393 11.9671 21.9869 11.9393C22.0346 11.9115 22.0783 11.8995 22.126 11.8995C22.1736 11.8995 22.2134 11.9115 22.2491 11.9393C22.2849 11.9671 22.3127 12.0068 22.3325 12.0585C22.3524 12.1101 22.3643 12.1776 22.3643 12.2571C22.3643 12.3365 22.3524 12.4279 22.3325 12.5352C22.3087 12.6424 22.2809 12.7338 22.2451 12.8132C22.2094 12.8927 22.1697 12.9602 22.126 13.0158C22.0823 13.0715 22.0386 13.1112 21.9909 13.139C21.9432 13.1668 21.8956 13.1787 21.8479 13.1787C21.8002 13.1787 21.7605 13.1668 21.7247 13.139C21.689 13.1112 21.6612 13.0715 21.6413 13.0158C21.6215 12.9602 21.6135 12.8927 21.6135 12.8132C21.6056 12.7378 21.6175 12.6424 21.6413 12.5352ZM20.8428 14.4936C20.966 14.4936 21.0891 14.4936 21.2163 14.4936C21.256 14.3109 21.2997 14.1242 21.3394 13.9414C21.3791 13.7587 21.4228 13.576 21.4626 13.3932C21.4626 13.3932 21.4626 13.3932 21.4665 13.3932C21.4745 13.4608 21.4943 13.5204 21.5261 13.572C21.5539 13.6236 21.5976 13.6634 21.6453 13.6912C21.6969 13.719 21.7565 13.7309 21.8241 13.7349C21.9115 13.7349 22.0028 13.7031 22.0902 13.6475C22.1776 13.5879 22.261 13.5084 22.3405 13.4012C22.4199 13.2939 22.4914 13.1668 22.555 13.0198C22.6186 12.8728 22.6702 12.71 22.7099 12.5272C22.7536 12.3326 22.7735 12.1617 22.7695 12.0187C22.7695 11.8717 22.7497 11.7526 22.7099 11.6572C22.6702 11.5619 22.6186 11.4904 22.555 11.4427C22.4875 11.395 22.408 11.3712 22.3206 11.3712C22.269 11.3712 22.2213 11.3791 22.1697 11.399C22.118 11.4189 22.0664 11.4546 22.0108 11.5063C21.9551 11.5579 21.8956 11.6294 21.828 11.7287H21.8241C21.8479 11.6294 21.8678 11.5301 21.8916 11.4308C21.7764 11.4308 21.6572 11.4308 21.542 11.4308C21.4268 11.9313 21.3116 12.4358 21.1964 12.9443C21.0772 13.4528 20.962 13.9693 20.8428 14.4936ZM22.6662 13.6475C22.7894 13.6475 22.9125 13.6475 23.0357 13.6475C23.0714 13.4846 23.1032 13.3217 23.139 13.1628C23.1747 12.9999 23.2065 12.841 23.2423 12.6821C23.274 12.5391 23.3138 12.416 23.3614 12.3127C23.4091 12.2134 23.4647 12.1339 23.5323 12.0823C23.5958 12.0306 23.6713 12.0028 23.7547 12.0028C23.7865 12.0028 23.8223 12.0108 23.8501 12.0227C23.8818 12.0346 23.9096 12.0505 23.9414 12.0704C23.9891 11.8439 24.0368 11.6175 24.0805 11.395C24.0606 11.3871 24.0407 11.3831 24.0169 11.3791C23.9931 11.3752 23.9732 11.3752 23.9533 11.3752C23.9017 11.3752 23.854 11.3831 23.8103 11.403C23.7666 11.4228 23.7229 11.4507 23.6792 11.4904C23.6355 11.5301 23.5958 11.5817 23.5521 11.6413C23.5084 11.7009 23.4607 11.7764 23.4091 11.8598H23.4051C23.4369 11.7168 23.4647 11.5738 23.4965 11.4308C23.3813 11.4308 23.2621 11.4308 23.1469 11.4308C23.0675 11.7963 22.988 12.1617 22.9086 12.5312C22.8291 12.8967 22.7457 13.2701 22.6662 13.6475ZM24.8869 12.7378C24.871 12.8132 24.8511 12.8808 24.8233 12.9404C24.7955 12.9999 24.7637 13.0516 24.732 13.0953C24.6962 13.139 24.6605 13.1747 24.6207 13.2065C24.581 13.2343 24.5413 13.2582 24.5016 13.2741C24.4618 13.2899 24.4221 13.2939 24.3864 13.2939C24.3387 13.2939 24.3029 13.282 24.2711 13.2582C24.2433 13.2343 24.2195 13.1986 24.2116 13.1509C24.2036 13.1032 24.2036 13.0476 24.2155 12.9801C24.2275 12.9126 24.2473 12.8609 24.2711 12.8212C24.295 12.7815 24.3228 12.7497 24.3546 12.7298C24.3864 12.71 24.4261 12.698 24.4698 12.6901C24.5413 12.6782 24.6168 12.6663 24.6883 12.6543C24.724 12.6504 24.7637 12.6384 24.8035 12.6265C24.8432 12.6146 24.8829 12.5908 24.9226 12.559C24.9147 12.6146 24.8988 12.6742 24.8869 12.7378ZM24.4301 12.0942C24.4579 12.0187 24.4857 11.9591 24.5095 11.9154C24.5373 11.8717 24.5611 11.84 24.589 11.8161C24.6168 11.7963 24.6446 11.7804 24.6763 11.7764C24.7081 11.7685 24.7439 11.7685 24.7796 11.7685C24.8511 11.7685 24.9028 11.7764 24.9425 11.7963C24.9783 11.8161 25.0061 11.8439 25.014 11.8837C25.0259 11.9234 25.0259 11.9711 25.014 12.0306C25.0021 12.0902 24.9902 12.1339 24.9743 12.1657C24.9584 12.1975 24.9385 12.2213 24.9147 12.2332C24.8909 12.2452 24.8591 12.2571 24.8194 12.2611C24.6883 12.2809 24.5532 12.2968 24.4221 12.3127C24.3744 12.3167 24.3307 12.3286 24.2831 12.3445C24.2354 12.3604 24.1877 12.3842 24.144 12.412C24.1003 12.4398 24.0566 12.4835 24.0129 12.5312C23.9732 12.5828 23.9375 12.6464 23.9017 12.7219C23.8699 12.7973 23.8381 12.8927 23.8183 12.9999C23.7905 13.131 23.7825 13.2423 23.7865 13.3336C23.7905 13.425 23.8103 13.5005 23.8421 13.5601C23.8739 13.6197 23.9176 13.6634 23.9732 13.6872C24.0288 13.715 24.0924 13.7269 24.1679 13.7269C24.2116 13.7269 24.2553 13.723 24.3069 13.711C24.3585 13.6991 24.4102 13.6832 24.4618 13.6594C24.5135 13.6356 24.5651 13.5998 24.6168 13.5601C24.6684 13.5164 24.7161 13.4647 24.7598 13.4012C24.7558 13.4409 24.7479 13.4806 24.7439 13.5204C24.7399 13.5601 24.7399 13.5998 24.7359 13.6395C24.8591 13.6395 24.9822 13.6395 25.1054 13.6395C25.1014 13.5839 25.1054 13.5164 25.1133 13.4449C25.1213 13.3694 25.1332 13.282 25.1531 13.1867C25.1888 12.9999 25.2246 12.8172 25.2603 12.6305C25.2961 12.4478 25.3318 12.265 25.3676 12.0823C25.3835 11.9989 25.3954 11.9194 25.3994 11.8479C25.4033 11.7724 25.3994 11.7049 25.3835 11.6413C25.3676 11.5778 25.3398 11.5261 25.304 11.4824C25.2643 11.4387 25.2126 11.403 25.1451 11.3752C25.0776 11.3513 24.9902 11.3354 24.8869 11.3354C24.8273 11.3354 24.7677 11.3394 24.7081 11.3474C24.6446 11.3553 24.589 11.3752 24.5294 11.403C24.4698 11.4308 24.4142 11.4745 24.3585 11.5301C24.3029 11.5857 24.2553 11.6572 24.2076 11.7486C24.1599 11.84 24.1202 11.9512 24.0844 12.0863C24.1957 12.0942 24.3109 12.0942 24.4301 12.0942Z" fill="white"/>
<path d="M9.52825 11.2047C9.73482 11.2047 9.94139 11.2047 10.1519 11.2047C10.1837 11.2047 10.2115 11.2087 10.2393 11.2206C10.2671 11.2325 10.287 11.2523 10.3069 11.2802C10.3228 11.308 10.3307 11.3477 10.3347 11.3954C10.3347 11.443 10.3228 11.5066 10.3029 11.5821C10.283 11.6536 10.2552 11.7132 10.2274 11.7608C10.1996 11.8085 10.1678 11.8482 10.136 11.88C10.1043 11.9118 10.0725 11.9317 10.0407 11.9475C10.0089 11.9595 9.98112 11.9674 9.95331 11.9674C9.73879 11.9674 9.5203 11.9674 9.30578 11.9674C9.36934 11.7132 9.44879 11.4589 9.52825 11.2047ZM8.93236 11.5423H5.02734V11.9078H8.82113L8.75757 12.1104H5.02734V12.4799H8.64237L8.57881 12.6825H5.02734V13.0479H8.46757L8.3921 13.2903H5.02734V13.6557H8.27689H8.28484H8.29278H8.30073H8.3047H8.30867H8.31662H8.32456H8.33251H8.34045H8.3484H8.35634H8.36429H8.37223H8.38018H8.38812H8.39607H8.40401H8.41196H8.4199H8.42388H8.42785H8.43579H8.44374H8.45168H8.45963H8.46757H8.47552H8.48346H8.49141H8.49936H8.5073H8.51524H8.52319H8.53114H8.53908H8.54702H8.77743L9.14291 12.5395C9.33756 12.5395 9.53222 12.5395 9.73085 12.5395C9.77057 12.5395 9.80235 12.5474 9.83016 12.5633C9.85797 12.5792 9.87783 12.607 9.88578 12.6467C9.89769 12.6864 9.89769 12.7381 9.88975 12.8096C9.8818 12.8771 9.86194 12.9645 9.83016 13.0718C9.80633 13.1512 9.78646 13.2188 9.7666 13.2784C9.75071 13.3379 9.73482 13.3896 9.72687 13.4293C9.71496 13.473 9.70701 13.5127 9.70304 13.5485C9.69907 13.5842 9.69509 13.62 9.69509 13.6557C9.87386 13.6557 10.0526 13.6557 10.2314 13.6557C10.2234 13.616 10.2195 13.5683 10.2234 13.5088C10.2274 13.4492 10.2393 13.3896 10.2513 13.3221C10.2632 13.2585 10.2791 13.1949 10.2949 13.1353C10.3108 13.0797 10.3228 13.0321 10.3347 12.9923C10.3545 12.9327 10.3704 12.8692 10.3903 12.7977C10.4062 12.7301 10.4221 12.6626 10.434 12.5951C10.4459 12.5275 10.4499 12.464 10.4499 12.4044C10.4499 12.3448 10.438 12.2971 10.4221 12.2574C10.4062 12.2177 10.3784 12.1938 10.3386 12.1819C10.3386 12.178 10.3386 12.178 10.3426 12.174C10.4618 12.1104 10.5651 12.023 10.6485 11.8999C10.7319 11.7807 10.8034 11.6258 10.8591 11.443C10.8789 11.3795 10.8948 11.3119 10.9067 11.2404C10.9186 11.165 10.9266 11.0934 10.9226 11.0219C10.9226 10.9504 10.9067 10.8829 10.8829 10.8233C10.8591 10.7637 10.8154 10.7161 10.7597 10.6803C10.7041 10.6445 10.6247 10.6247 10.5254 10.6247C10.0884 10.6247 9.6514 10.6247 9.21839 10.6247L8.93236 11.5423ZM11.8164 12.9804C11.7529 13.0797 11.6853 13.1512 11.6059 13.2029C11.5304 13.2545 11.443 13.2784 11.3556 13.2784C11.2801 13.2784 11.2206 13.2585 11.1769 13.2227C11.1332 13.187 11.1014 13.1393 11.0815 13.0837C11.0617 13.0281 11.0537 12.9685 11.0577 12.9049C11.0617 12.8414 11.0696 12.7818 11.0855 12.7262C11.0855 12.7222 11.0855 12.7222 11.0895 12.7182C11.5264 12.7182 11.9594 12.7182 12.3964 12.7182C12.4044 12.6944 12.4083 12.6745 12.4163 12.6507C12.5037 12.3647 12.5434 12.1223 12.5434 11.9197C12.5394 11.7171 12.4918 11.5662 12.3964 11.4589C12.3011 11.3517 12.1541 11.3 11.9594 11.3C11.8244 11.3 11.6973 11.3239 11.5741 11.3715C11.451 11.4192 11.3358 11.4907 11.2245 11.59C11.1173 11.6893 11.018 11.8165 10.9266 11.9714C10.8352 12.1263 10.7597 12.309 10.6922 12.5236C10.6286 12.7381 10.5929 12.9208 10.5889 13.0758C10.5849 13.2307 10.6048 13.3578 10.6565 13.4571C10.7041 13.5564 10.7756 13.6319 10.871 13.6756C10.9663 13.7233 11.0815 13.7471 11.2166 13.7471C11.3516 13.7471 11.4867 13.7193 11.6138 13.6677C11.741 13.616 11.8641 13.5326 11.9753 13.4174C12.0905 13.3022 12.1978 13.1592 12.2931 12.9764C12.1342 12.9804 11.9753 12.9804 11.8164 12.9804ZM11.2245 12.2773C11.2245 12.2733 11.2245 12.2733 11.2285 12.2693C11.2325 12.2574 11.2444 12.2336 11.2603 12.1978C11.2801 12.1581 11.304 12.1184 11.3358 12.0707C11.3675 12.023 11.4073 11.9754 11.4549 11.9317C11.5026 11.884 11.5542 11.8482 11.6138 11.8165C11.6734 11.7847 11.737 11.7688 11.8085 11.7688C11.8721 11.7688 11.9237 11.7807 11.9634 11.8085C12.0031 11.8363 12.031 11.8681 12.0508 11.9118C12.0707 11.9555 12.0826 11.9992 12.0866 12.0429C12.0905 12.0906 12.0905 12.1343 12.0866 12.174C12.0826 12.2137 12.0786 12.2495 12.0667 12.2733C12.0667 12.2773 12.0667 12.2773 12.0627 12.2812C11.7847 12.2773 11.5066 12.2773 11.2245 12.2773ZM13.0757 12.5315C13.1075 12.4243 13.1472 12.3289 13.1949 12.2455C13.2426 12.1621 13.2942 12.0945 13.3498 12.0389C13.4055 11.9833 13.4611 11.9436 13.5207 11.9158C13.5802 11.888 13.6359 11.8721 13.6955 11.8721C13.7511 11.8721 13.7987 11.884 13.8424 11.9158C13.8822 11.9436 13.9139 11.9833 13.9378 12.0389C13.9616 12.0945 13.9696 12.1621 13.9696 12.2455C13.9656 12.3289 13.9497 12.4243 13.9179 12.5315C13.8861 12.6388 13.8464 12.7341 13.7987 12.8175C13.7511 12.901 13.6994 12.9685 13.6438 13.0241C13.5882 13.0797 13.5326 13.1194 13.473 13.1473C13.4134 13.1751 13.3578 13.191 13.3022 13.191C13.2466 13.191 13.1949 13.1751 13.1552 13.1473C13.1115 13.1194 13.0797 13.0797 13.0598 13.0241C13.036 12.9685 13.0281 12.901 13.032 12.8175C13.0281 12.7341 13.044 12.6388 13.0757 12.5315ZM13.5763 13.6597C13.7193 13.6597 13.8623 13.6597 14.0093 13.6597C14.1642 13.1433 14.3152 12.6308 14.4701 12.1184C14.6211 11.6059 14.776 11.0934 14.9269 10.585C14.78 10.585 14.629 10.585 14.482 10.585C14.4264 10.7637 14.3748 10.9465 14.3191 11.1252C14.2635 11.304 14.2119 11.4867 14.1563 11.6655H14.1523C14.1444 11.598 14.1245 11.5384 14.0887 11.4867C14.053 11.4351 14.0093 11.3954 13.9497 11.3676C13.8901 11.3397 13.8186 11.3239 13.7352 11.3239C13.6279 11.3239 13.5207 11.3517 13.4134 11.4113C13.3061 11.4669 13.1989 11.5503 13.0996 11.6576C13.0003 11.7648 12.9089 11.8919 12.8255 12.0429C12.742 12.1938 12.6705 12.3607 12.6149 12.5434C12.5553 12.7421 12.5236 12.9168 12.5156 13.0678C12.5077 13.2188 12.5236 13.3419 12.5633 13.4412C12.603 13.5405 12.6586 13.616 12.7341 13.6677C12.8096 13.7193 12.9009 13.7431 13.0082 13.7431C13.0757 13.7431 13.1433 13.7352 13.2148 13.7114C13.2863 13.6915 13.3578 13.6518 13.4293 13.5962C13.5008 13.5405 13.5763 13.4651 13.6557 13.3697H13.6597C13.6319 13.469 13.6041 13.5644 13.5763 13.6597Z" fill="white"/>
</g>
<rect x="0.527344" y="0.62793" width="31" height="23" rx="3.5" stroke="#E5E5E5"/>
<defs>
<clipPath id="clip0_8585_72473">
<rect x="0.0273438" y="0.12793" width="32" height="24" rx="4" fill="white"/>
</clipPath>
</defs>
</svg>
