<svg width="33" height="25" viewBox="0 0 33 25" fill="none" xmlns="http://www.w3.org/2000/svg">
<g clip-path="url(#clip0_9153_1521)">
<rect x="0.896484" y="0.12793" width="32" height="24" rx="4" fill="white"/>
<g clip-path="url(#clip1_9153_1521)">
<path d="M18.207 9.37451V15.7622H23.6298V14.3821H20.2345V12.9042H23.3123V11.6096H20.2345V10.9501H23.6298V9.37451H18.207Z" fill="#F3921A"/>
<path d="M24.3633 11.4142H25.0961V10.0463L26.4152 11.8051V9.26465H24.3633V11.4142Z" fill="#323184"/>
<path d="M24.3633 12.7825H25.0961V14.1015L26.4152 12.3428V15.6649H24.3633V12.7825Z" fill="#323184"/>
<path d="M27.1523 9.89872V9.37305H27.3756C27.4318 9.37305 27.4728 9.37793 27.4982 9.38721C27.5236 9.3965 27.5442 9.4136 27.5593 9.43753C27.5744 9.46147 27.5823 9.48932 27.5823 9.52059C27.5823 9.56016 27.5705 9.5924 27.5476 9.61829C27.5246 9.64419 27.4899 9.66031 27.4435 9.66666C27.4665 9.67985 27.4855 9.695 27.5002 9.71063C27.5148 9.72626 27.5354 9.75509 27.5608 9.79612L27.6248 9.89872H27.4977L27.421 9.7844C27.3937 9.74336 27.3751 9.71796 27.3649 9.70721C27.3546 9.69646 27.3443 9.68913 27.3331 9.68522C27.3219 9.68132 27.3043 9.67936 27.2799 9.67936H27.2584V9.89872H27.1523ZM27.2584 9.59533H27.337C27.3878 9.59533 27.4196 9.59338 27.4323 9.58898C27.445 9.58459 27.4548 9.57726 27.4621 9.56651C27.4694 9.55576 27.4728 9.54306 27.4728 9.52694C27.4728 9.50935 27.4679 9.49518 27.4587 9.48395C27.4494 9.47271 27.4357 9.46636 27.4186 9.46343C27.4098 9.46245 27.3844 9.46147 27.3409 9.46147H27.2579V9.59484L27.2584 9.59533Z" fill="#323184"/>
<path d="M27.3889 10.1441C27.109 10.1441 26.8809 9.91595 26.8809 9.63601C26.8809 9.35608 27.109 9.12793 27.3889 9.12793C27.6689 9.12793 27.897 9.35608 27.897 9.63601C27.897 9.91595 27.6689 10.1441 27.3889 10.1441ZM27.3889 9.22564C27.1627 9.22564 26.9786 9.40982 26.9786 9.63601C26.9786 9.86221 27.1627 10.0464 27.3889 10.0464C27.6151 10.0464 27.7993 9.86221 27.7993 9.63601C27.7993 9.40982 27.6151 9.22564 27.3889 9.22564Z" fill="#323184"/>
<path d="M12.2314 15.7232V9.27441H14.6947C15.5355 9.27441 16.0836 9.30763 16.3391 9.37359C16.7314 9.47276 17.0602 9.68772 17.325 10.019C17.5898 10.3502 17.7222 10.7786 17.7222 11.3033C17.7222 11.7083 17.646 12.0488 17.493 12.3244C17.3406 12.6004 17.1467 12.8168 16.9112 12.9746C16.6762 13.1319 16.4368 13.2365 16.194 13.2873C15.8638 13.3503 15.386 13.3816 14.7596 13.3816H14.2486V15.7227H12.2305L12.2314 15.7232ZM14.2012 10.5935V12.0102H14.7015C15.0616 12.0102 15.3029 11.9844 15.4241 11.9321C15.5457 11.8798 15.6405 11.7982 15.7099 11.6868C15.7787 11.5754 15.8134 11.446 15.8134 11.2984C15.8134 11.1167 15.7651 10.9672 15.6683 10.849C15.5716 10.7308 15.449 10.657 15.301 10.6277C15.192 10.6052 14.9727 10.5935 14.6429 10.5935H14.2012Z" fill="#323184"/>
<path d="M5.89648 13.5638L7.75294 13.4661C7.82622 13.8018 7.92589 14.1374 8.14964 14.3113C8.37339 14.4852 8.49113 14.5722 8.89369 14.5722C9.33679 14.5722 9.37734 14.4906 9.60061 14.3265C9.75108 14.2121 9.82631 14.0583 9.82631 13.8663C9.82631 13.7353 9.78576 13.6269 9.70418 13.5409C9.61868 13.4593 9.42766 13.2859 9.13063 13.216C7.74806 12.9092 7.16523 12.6288 6.79491 12.3752C6.28243 12.0235 6.173 11.6322 6.173 11.0058C6.173 10.4411 6.44365 10.0644 6.88676 9.67945C7.32986 9.29546 7.91953 9.20068 8.85069 9.20068C9.78185 9.20068 10.396 9.34578 10.8268 9.63646C11.2577 9.92714 11.3765 10.5281 11.5391 11.0967L9.68268 11.1944C9.61331 10.9409 9.55859 10.6805 9.36562 10.5451C9.17264 10.4103 8.94987 10.315 8.7056 10.315C8.46133 10.315 8.35092 10.3575 8.1555 10.4841C8.02555 10.574 7.96008 10.6907 7.96008 10.8339C7.96008 10.9565 8.01675 11.061 8.13107 11.147C8.28545 11.2618 8.47745 11.3254 9.39004 11.5344C10.3026 11.7431 10.8425 12.0479 11.2045 12.3503C11.5621 12.6571 11.7414 13.0851 11.7414 13.6332C11.7414 14.2307 11.4932 14.7442 10.9973 15.1741C10.501 15.6035 9.86491 15.8185 8.8932 15.8185C8.01089 15.8185 7.21457 15.6387 6.70062 15.2781C6.18619 14.9181 6.05526 14.1819 5.89648 13.5638Z" fill="#323184"/>
</g>
</g>
<rect x="1.39648" y="0.62793" width="31" height="23" rx="3.5" stroke="#E5E5E5"/>
<defs>
<clipPath id="clip0_9153_1521">
<rect x="0.896484" y="0.12793" width="32" height="24" rx="4" fill="white"/>
</clipPath>
<clipPath id="clip1_9153_1521">
<rect width="22" height="6.69058" fill="white" transform="translate(5.89648 9.12793)"/>
</clipPath>
</defs>
</svg>
