<svg width="33" height="25" viewBox="0 0 33 25" fill="none" xmlns="http://www.w3.org/2000/svg">
<g clip-path="url(#clip0_8585_72444)">
<rect x="0.0273438" y="0.12793" width="32" height="24" rx="4" fill="white"/>
<path fill-rule="evenodd" clip-rule="evenodd" d="M10.5275 15.4176H8.62359L7.19586 9.4442C7.12809 9.16942 6.98421 8.9265 6.77255 8.81201C6.24435 8.52429 5.6623 8.29531 5.02734 8.17982V7.94984H8.09446C8.51776 7.94984 8.83524 8.29531 8.88815 8.69652L9.62894 13.0054L11.532 7.94984H13.383L10.5275 15.4176ZM14.4417 15.4176H12.6436L14.1242 7.94984H15.9223L14.4417 15.4176ZM18.2486 10.0189C18.3015 9.61666 18.619 9.38668 18.9894 9.38668C19.5714 9.32894 20.2054 9.44442 20.7346 9.73115L21.0521 8.1233C20.5229 7.89332 19.9409 7.77783 19.4127 7.77783C17.6675 7.77783 16.3976 8.81223 16.3976 10.2478C16.3976 11.34 17.2971 11.9134 17.932 12.2589C18.619 12.6034 18.8835 12.8334 18.8306 13.1778C18.8306 13.6945 18.3015 13.9245 17.7733 13.9245C17.1383 13.9245 16.5034 13.7523 15.9223 13.4645L15.6048 15.0734C16.2397 15.3601 16.9267 15.4756 17.5616 15.4756C19.5185 15.5324 20.7346 14.4989 20.7346 12.9478C20.7346 10.9945 18.2486 10.88 18.2486 10.0189ZM27.0273 15.4176L25.5995 7.94984H24.066C23.7485 7.94984 23.431 8.17982 23.3252 8.52429L20.6814 15.4176H22.5324L22.9019 14.3265H25.1762L25.3879 15.4176H27.0273ZM24.3306 9.961L24.8588 12.7755H23.3782L24.3306 9.961Z" fill="#1434CB"/>
</g>
<rect x="0.527344" y="0.62793" width="31" height="23" rx="3.5" stroke="#E5E5E5"/>
<defs>
<clipPath id="clip0_8585_72444">
<rect x="0.0273438" y="0.12793" width="32" height="24" rx="4" fill="white"/>
</clipPath>
</defs>
</svg>
