<svg width="32" height="32" viewBox="0 0 32 32" fill="none" xmlns="http://www.w3.org/2000/svg">
<path d="M0.25 25.75V6.25H1.75V25.75H0.25Z" fill="#969696"/>
<path d="M3.248 25.75V6.25H4.748V25.75H3.248Z" fill="#969696"/>
<path d="M7.75 6.25V25.75H9.25V6.25H7.75Z" fill="#969696"/>
<path d="M12.25 25.75V6.25H13.75V25.75H12.25Z" fill="#969696"/>
<path d="M14.4954 6.25V25.75H15.9954V6.25H14.4954Z" fill="#969696"/>
<path d="M21.248 25.75V6.25H22.748V25.75H21.248Z" fill="#969696"/>
<path d="M18.9954 6.25V25.75H20.4954V6.25H18.9954Z" fill="#969696"/>
<path d="M24.25 25.75V6.25H25.75V25.75H24.25Z" fill="#969696"/>
<path d="M28.0026 6.25V25.75H29.5026V6.25H28.0026Z" fill="#969696"/>
<path d="M30.248 25.75V6.25H31.748V25.75H30.248Z" fill="#969696"/>
</svg>
