<svg width="48" height="26" viewBox="0 0 48 26" fill="none" xmlns="http://www.w3.org/2000/svg">
<g clip-path="url(#clip0_203_201)">
<rect width="48" height="26" rx="2" fill="white"/>
<path d="M8.25 22.75V3.25H9.75V22.75H8.25Z" fill="#6D6D6D"/>
<path d="M11.248 22.75V3.25H12.748V22.75H11.248Z" fill="#6D6D6D"/>
<path d="M15.75 3.25V22.75H17.25V3.25H15.75Z" fill="#6D6D6D"/>
<path d="M20.25 22.75V3.25H21.75V22.75H20.25Z" fill="#6D6D6D"/>
<path d="M22.4954 3.25V22.75H23.9954V3.25H22.4954Z" fill="#6D6D6D"/>
<path d="M29.248 22.75V3.25H30.748V22.75H29.248Z" fill="#6D6D6D"/>
<path d="M26.9954 3.25V22.75H28.4954V3.25H26.9954Z" fill="#6D6D6D"/>
<path d="M32.25 22.75V3.25H33.75V22.75H32.25Z" fill="#6D6D6D"/>
<path d="M36.0026 3.25V22.75H37.5026V3.25H36.0026Z" fill="#6D6D6D"/>
<path d="M38.248 22.75V3.25H39.748V22.75H38.248Z" fill="#6D6D6D"/>
</g>
<defs>
<clipPath id="clip0_203_201">
<rect width="48" height="26" rx="2" fill="white"/>
</clipPath>
</defs>
</svg>
