<svg width="32" height="32" viewBox="0 0 32 32" fill="none" xmlns="http://www.w3.org/2000/svg">
<path d="M31 16.0039C31 14.5638 30.4367 13.2176 29.4248 12.2053L19.796 2.57318C17.6991 0.475607 14.2878 0.475607 12.2014 2.57318L6.65157 8.12497H6.57854V8.19802L2.57263 12.2053C0.475789 14.3029 0.475789 17.7049 2.57263 19.8025L6.44292 23.6637V23.8724H6.65157L12.2014 29.4242C13.2446 30.4678 14.6217 31 15.9987 31C17.3757 31 18.7528 30.4782 19.796 29.4242L25.3458 23.8724L25.5753 23.6428L29.4143 19.8025C30.4262 18.7902 30.9896 17.4336 30.9896 16.0039H31ZM13.3072 3.67936C14.0479 2.93843 15.0285 2.56274 15.9987 2.56274C16.9689 2.56274 17.9495 2.93843 18.6902 3.67936L23.1238 8.11453H22.2579C21.4755 8.11453 20.7557 8.44847 20.2758 9.02244L16.3742 13.635C16.2491 13.7915 16.0404 13.7915 15.9987 13.8124C15.9152 13.8124 15.7379 13.7915 15.6023 13.6246L11.7111 9.02244C11.2312 8.44847 10.501 8.11453 9.72903 8.11453H8.86317L13.2968 3.67936H13.3072ZM18.6902 28.3285C17.2088 29.8103 14.7886 29.8103 13.3072 28.3285L8.86317 23.8829H9.73945C10.5219 23.8829 11.2417 23.5489 11.7216 22.975L15.6127 18.3728C15.7483 18.2163 15.9152 18.185 16.0091 18.185C16.0509 18.2058 16.2595 18.2058 16.3951 18.3728L20.2863 22.975C20.7661 23.5489 21.4964 23.8829 22.2684 23.8829H23.1447L18.7006 28.3285H18.6902ZM24.7095 22.3071H22.2684C21.9554 22.3071 21.6633 22.1818 21.4755 21.9627L17.5844 17.3606C17.188 16.8909 16.6246 16.6196 16.0091 16.6196C15.4041 16.6196 14.8199 16.8909 14.4235 17.3606L10.5323 21.9627C10.355 22.1818 10.0524 22.3071 9.73945 22.3071H7.29836L3.68886 18.6963C2.2075 17.2145 2.2075 14.7934 3.68886 13.3115L7.30878 9.69032H9.73945C10.0524 9.69032 10.3445 9.81555 10.5323 10.0347L14.4235 14.6368C14.8199 15.1064 15.4041 15.3778 16.0091 15.3778C16.6142 15.3778 17.188 15.1064 17.5739 14.6368L21.4651 10.0347C21.6424 9.81555 21.945 9.69032 22.2579 9.69032H24.6886L28.3085 13.3115C29.0283 14.0316 29.4248 14.9917 29.4248 16.0039C29.4248 17.0162 29.0283 17.9763 28.3085 18.6963L24.699 22.3071H24.7095Z" fill="#969696"/>
</svg>
