<svg width="32" height="32" viewBox="0 0 32 32" fill="none" xmlns="http://www.w3.org/2000/svg">
<g clip-path="url(#clip0_15204_32582)">
<rect width="32" height="32" rx="16" fill="white" style="mix-blend-mode:luminosity"/>
<rect width="110" height="110" transform="translate(-39 -39)" fill="white"/>
<path d="M11.9196 10.3936C12.2203 10.3936 12.5209 10.5225 12.7141 10.7481L15.2158 13.7454C15.3876 13.9495 15.6452 14.0677 15.9351 14.0677C16.225 14.0677 16.4934 13.9495 16.6652 13.7454L19.1561 10.7589C19.3601 10.5225 19.6608 10.3936 19.9614 10.3936H20.6593L18.1576 7.89045C16.9659 6.69797 15.0333 6.69797 13.8415 7.89045L11.3398 10.3936H11.9196Z" fill="#38BB9C"/>
<path d="M20.0053 21.598C19.7047 21.598 19.4041 21.469 19.2108 21.2434L16.7092 18.2461C16.5374 18.042 16.2797 17.9238 15.9898 17.9238C15.6999 17.9238 15.4315 18.042 15.2597 18.2461L12.7688 21.2327C12.5648 21.469 12.2642 21.598 11.9636 21.598H11.3516L13.8532 24.1011C15.045 25.2936 16.9776 25.2936 18.1693 24.1011L20.671 21.598H20.016H20.0053Z" fill="#38BB9C"/>
<path d="M24.1062 13.8312L21.9481 11.6719H20.0585L17.6427 14.5725C17.224 15.0774 16.6013 15.3567 15.9248 15.3567C15.2592 15.3567 14.6364 15.0667 14.2285 14.5725L11.8127 11.6826H10.0519L7.89383 13.842C6.70206 15.0345 6.70206 16.9682 7.89383 18.1607L10.0519 20.3201H11.8449L14.2607 17.4302C14.6794 16.9252 15.3343 16.603 15.9893 16.6459C16.6549 16.6459 17.2777 16.936 17.6964 17.4409L20.1121 20.3308H21.9481L24.1062 18.1714C25.2979 16.979 25.2979 15.0452 24.1062 13.8527V13.8312Z" fill="#38BB9C"/>
</g>
<rect x="0.5" y="0.5" width="31" height="31" rx="15.5" stroke="black" stroke-opacity="0.07"/>
<defs>
<clipPath id="clip0_15204_32582">
<rect width="32" height="32" rx="16" fill="white"/>
</clipPath>
</defs>
</svg>
